ISO-10303-21;
HEADER;
FILE_DESCRIPTION (( 'STEP AP214' ),
    '1' );
FILE_NAME ('TZM5232B-GS08.STEP',
    '2023-05-17T10:16:45',
    ( '' ),
    ( '' ),
    'SwSTEP 2.0',
    'SolidWorks 2021',
    '' );
FILE_SCHEMA (( 'AUTOMOTIVE_DESIGN' ));
ENDSEC;

DATA;
#1 = DIRECTION ( 'NONE',  ( 0.000000000000000000, -1.000000000000000000, 0.000000000000000000 ) ) ;
#2 = EDGE_CURVE ( 'NONE', #348, #646, #267, .T. ) ;
#3 = DIRECTION ( 'NONE',  ( -1.000000000000000000, -1.239088197126290570E-16, -0.000000000000000000 ) ) ;
#4 = PRESENTATION_LAYER_ASSIGNMENT (  '', '', ( #245 ) ) ;
#5 = ORIENTED_EDGE ( 'NONE', *, *, #578, .T. ) ;
#6 = CIRCLE ( 'NONE', #760, 0.7337642505497358192 ) ;
#7 = ORIENTED_EDGE ( 'NONE', *, *, #153, .T. ) ;
#8 = DIRECTION ( 'NONE',  ( -1.000000000000000000, -1.239088197126290570E-16, -0.000000000000000000 ) ) ;
#9 = DIRECTION ( 'NONE',  ( -1.000000000000000000, -1.239088197126290570E-16, -0.000000000000000000 ) ) ;
#10 = AXIS2_PLACEMENT_3D ( 'NONE', #23, #103, #430 ) ;
#11 = ORIENTED_EDGE ( 'NONE', *, *, #337, .T. ) ;
#12 = DIRECTION ( 'NONE',  ( 0.000000000000000000, -1.000000000000000000, 0.000000000000000000 ) ) ;
#13 = CARTESIAN_POINT ( 'NONE',  ( -0.3499999999999999223, 0.04999999999999980849, 0.000000000000000000 ) ) ;
#14 = DIRECTION ( 'NONE',  ( 0.000000000000000000, -1.000000000000000000, 0.000000000000000000 ) ) ;
#15 = CARTESIAN_POINT ( 'NONE',  ( -1.200000000000000178, 0.2500000000000000000, 0.000000000000000000 ) ) ;
#16 = AXIS2_PLACEMENT_3D ( 'NONE', #540, #724, #545 ) ;
#17 = TOROIDAL_SURFACE ( 'NONE', #229, 0.3500000000000004774, 0.4500000000000000111 ) ;
#18 = EDGE_CURVE ( 'NONE', #216, #573, #215, .T. ) ;
#19 = ORIENTED_EDGE ( 'NONE', *, *, #851, .F. ) ;
#20 = CARTESIAN_POINT ( 'NONE',  ( -0.3500000000000000888, 1.400000000000000577, 7.347880794884126392E-17 ) ) ;
#21 = CARTESIAN_POINT ( 'NONE',  ( -1.750000000000000000, 0.8000000000000000444, 0.000000000000000000 ) ) ;
#22 = AXIS2_PLACEMENT_3D ( 'NONE', #221, #766, #691 ) ;
#23 = CARTESIAN_POINT ( 'NONE',  ( -0.3500000000000000333, 0.1999999999999997891, 0.000000000000000000 ) ) ;
#24 = DIRECTION ( 'NONE',  ( 1.000000000000000000, 1.239088197126290570E-16, 0.000000000000000000 ) ) ;
#25 = DIRECTION ( 'NONE',  ( 0.000000000000000000, -1.000000000000000000, 0.000000000000000000 ) ) ;
#26 = EDGE_CURVE ( 'NONE', #47, #375, #759, .T. ) ;
#27 = PLANE ( 'NONE',  #60 ) ;
#28 = VERTEX_POINT ( 'NONE', #193 ) ;
#29 = CLOSED_SHELL ( 'NONE', ( #431, #272, #411, #833, #320, #729, #362 ) ) ;
#30 = CARTESIAN_POINT ( 'NONE',  ( 1.080000000000000515, 0.8000000000000003775, 0.000000000000000000 ) ) ;
#31 = DIRECTION ( 'NONE',  ( 9.035018104045862066E-17, -1.000000000000000000, 0.000000000000000000 ) ) ;
#32 = VERTEX_POINT ( 'NONE', #459 ) ;
#33 = CARTESIAN_POINT ( 'NONE',  ( 1.080000000000000515, 0.8000000000000003775, 0.000000000000000000 ) ) ;
#34 = ORIENTED_EDGE ( 'NONE', *, *, #164, .F. ) ;
#35 = FACE_OUTER_BOUND ( 'NONE', #506, .T. ) ;
#36 = VERTEX_POINT ( 'NONE', #463 ) ;
#37 = ORIENTED_EDGE ( 'NONE', *, *, #578, .F. ) ;
#38 = EDGE_LOOP ( 'NONE', ( #772, #137, #268, #274 ) ) ;
#39 = ADVANCED_FACE ( 'NONE', ( #59 ), #257, .T. ) ;
#40 =( LENGTH_UNIT ( ) NAMED_UNIT ( * ) SI_UNIT ( .MILLI., .METRE. ) );
#41 = ORIENTED_EDGE ( 'NONE', *, *, #136, .T. ) ;
#42 = PLANE ( 'NONE',  #863 ) ;
#43 = EDGE_CURVE ( 'NONE', #357, #253, #800, .T. ) ;
#44 = AXIS2_PLACEMENT_3D ( 'NONE', #611, #3, #529 ) ;
#45 = CIRCLE ( 'NONE', #112, 0.2000000000000000944 ) ;
#46 = DIRECTION ( 'NONE',  ( -1.000000000000000000, -1.239088197126290570E-16, -0.000000000000000000 ) ) ;
#47 = VERTEX_POINT ( 'NONE', #123 ) ;
#48 = DIRECTION ( 'NONE',  ( -1.000000000000000000, -1.239088197126290570E-16, 0.000000000000000000 ) ) ;
#49 = ORIENTED_EDGE ( 'NONE', *, *, #630, .T. ) ;
#50 = PRODUCT_DEFINITION_FORMATION_WITH_SPECIFIED_SOURCE ( 'ANY', '', #277, .NOT_KNOWN. ) ;
#51 = CIRCLE ( 'NONE', #518, 0.2000000000000003164 ) ;
#52 = DIRECTION ( 'NONE',  ( -1.000000000000000000, -1.239088197126290570E-16, -0.000000000000000000 ) ) ;
#53 = CARTESIAN_POINT ( 'NONE',  ( -1.000000000000000000, 0.8000000000000001554, 0.000000000000000000 ) ) ;
#54 = CARTESIAN_POINT ( 'NONE',  ( 1.750000000000000444, 0.8000000000000004885, 0.000000000000000000 ) ) ;
#55 = ADVANCED_FACE ( 'NONE', ( #659 ), #67, .T. ) ;
#56 =( NAMED_UNIT ( * ) SI_UNIT ( $, .STERADIAN. ) SOLID_ANGLE_UNIT ( ) );
#57 = CARTESIAN_POINT ( 'NONE',  ( -0.3500000000000000333, 0.8000000000000002665, 0.000000000000000000 ) ) ;
#58 = PRESENTATION_STYLE_ASSIGNMENT (( #662 ) ) ;
#59 = FACE_OUTER_BOUND ( 'NONE', #556, .T. ) ;
#60 = AXIS2_PLACEMENT_3D ( 'NONE', #224, #651, #494 ) ;
#61 = EDGE_CURVE ( 'NONE', #522, #254, #184, .T. ) ;
#62 = DIRECTION ( 'NONE',  ( 0.000000000000000000, -1.000000000000000000, 0.000000000000000000 ) ) ;
#63 = DIRECTION ( 'NONE',  ( -1.000000000000000000, -1.239088197126290570E-16, -0.000000000000000000 ) ) ;
#64 = EDGE_CURVE ( 'NONE', #36, #788, #853, .T. ) ;
#65 = DIRECTION ( 'NONE',  ( -1.000000000000000000, -1.239088197126290570E-16, -0.000000000000000000 ) ) ;
#66 = DIRECTION ( 'NONE',  ( -1.000000000000000000, -1.239088197126290570E-16, -0.000000000000000000 ) ) ;
#67 = TOROIDAL_SURFACE ( 'NONE', #440, 0.5500000000000001554, 0.2000000000000003164 ) ;
#68 = PRODUCT_CONTEXT ( 'NONE', #538, 'mechanical' ) ;
#69 = VECTOR ( 'NONE', #72, 1000.000000000000000 ) ;
#70 = ORIENTED_EDGE ( 'NONE', *, *, #567, .F. ) ;
#71 = CYLINDRICAL_SURFACE ( 'NONE', #409, 0.6000000000000005329 ) ;
#72 = DIRECTION ( 'NONE',  ( -1.000000000000000000, -1.239088197126290570E-16, -0.000000000000000000 ) ) ;
#73 = STYLED_ITEM ( 'NONE', ( #370 ), #725 ) ;
#74 = AXIS2_PLACEMENT_3D ( 'NONE', #282, #108, #820 ) ;
#75 = CARTESIAN_POINT ( 'NONE',  ( -1.750000000000000000, 0.8000000000000000444, 0.000000000000000000 ) ) ;
#76 = CARTESIAN_POINT ( 'NONE',  ( -1.000000000000000000, 1.350000000000000311, 6.735557395310443749E-17 ) ) ;
#77 = EDGE_CURVE ( 'NONE', #456, #28, #558, .T. ) ;
#78 = VERTEX_POINT ( 'NONE', #322 ) ;
#79 = CYLINDRICAL_SURFACE ( 'NONE', #682, 0.6000000000000005329 ) ;
#80 = CARTESIAN_POINT ( 'NONE',  ( -0.8500000000000000888, 0.04999999999999969746, 0.000000000000000000 ) ) ;
#81 = AXIS2_PLACEMENT_3D ( 'NONE', #468, #604, #317 ) ;
#82 = AXIS2_PLACEMENT_3D ( 'NONE', #76, #564, #416 ) ;
#83 = FILL_AREA_STYLE ('',( #160 ) ) ;
#84 = DIRECTION ( 'NONE',  ( -1.000000000000000000, -1.239088197126290570E-16, -0.000000000000000000 ) ) ;
#85 = DIRECTION ( 'NONE',  ( 1.239088197126290570E-16, -1.000000000000000000, 0.000000000000000000 ) ) ;
#86 = AXIS2_PLACEMENT_3D ( 'NONE', #789, #125, #373 ) ;
#87 = AXIS2_PLACEMENT_3D ( 'NONE', #803, #340, #811 ) ;
#88 =( NAMED_UNIT ( * ) SI_UNIT ( $, .STERADIAN. ) SOLID_ANGLE_UNIT ( ) );
#89 = ORIENTED_EDGE ( 'NONE', *, *, #250, .F. ) ;
#90 = DIRECTION ( 'NONE',  ( 1.239088197126290570E-16, -1.000000000000000000, 0.000000000000000000 ) ) ;
#91 = EDGE_LOOP ( 'NONE', ( #278, #736, #510, #199 ) ) ;
#92 =( LENGTH_UNIT ( ) NAMED_UNIT ( * ) SI_UNIT ( .MILLI., .METRE. ) );
#93 = CARTESIAN_POINT ( 'NONE',  ( -1.000000000000000000, 0.8000000000000001554, 0.000000000000000000 ) ) ;
#94 = ORIENTED_EDGE ( 'NONE', *, *, #241, .F. ) ;
#95 = FACE_OUTER_BOUND ( 'NONE', #541, .T. ) ;
#96 = ORIENTED_EDGE ( 'NONE', *, *, #284, .T. ) ;
#97 = PLANE ( 'NONE',  #332 ) ;
#98 = EDGE_CURVE ( 'NONE', #582, #473, #328, .T. ) ;
#99 = EDGE_LOOP ( 'NONE', ( #870, #672 ) ) ;
#100 = ORIENTED_EDGE ( 'NONE', *, *, #453, .T. ) ;
#101 = VERTEX_POINT ( 'NONE', #114 ) ;
#102 =( GEOMETRIC_REPRESENTATION_CONTEXT ( 3 ) GLOBAL_UNCERTAINTY_ASSIGNED_CONTEXT ( ( #822 ) ) GLOBAL_UNIT_ASSIGNED_CONTEXT ( ( #236, #437, #88 ) ) REPRESENTATION_CONTEXT ( 'NONE', 'WORKASPACE' ) );
#103 = DIRECTION ( 'NONE',  ( 1.000000000000000000, 1.239088197126290570E-16, 0.000000000000000000 ) ) ;
#104 = ADVANCED_FACE ( 'NONE', ( #263 ), #350, .T. ) ;
#105 = ORIENTED_EDGE ( 'NONE', *, *, #689, .T. ) ;
#106 = DIRECTION ( 'NONE',  ( 1.239088197126290570E-16, -1.000000000000000000, 0.000000000000000000 ) ) ;
#107 = ORIENTED_EDGE ( 'NONE', *, *, #250, .T. ) ;
#108 = DIRECTION ( 'NONE',  ( -1.000000000000000000, -1.239088197126290570E-16, -0.000000000000000000 ) ) ;
#109 = EDGE_LOOP ( 'NONE', ( #481, #307, #441, #600 ) ) ;
#110 = DIRECTION ( 'NONE',  ( 1.239088197126290570E-16, -1.000000000000000000, 0.000000000000000000 ) ) ;
#111 = AXIS2_PLACEMENT_3D ( 'NONE', #536, #737, #530 ) ;
#112 = AXIS2_PLACEMENT_3D ( 'NONE', #634, #693, #812 ) ;
#113 = CYLINDRICAL_SURFACE ( 'NONE', #767, 0.7500000000000004441 ) ;
#114 = CARTESIAN_POINT ( 'NONE',  ( -1.000000000000000000, 0.04999999999999969746, 0.000000000000000000 ) ) ;
#115 = FACE_BOUND ( 'NONE', #698, .T. ) ;
#116 = CIRCLE ( 'NONE', #563, 0.5500000000000003775 ) ;
#117 = FILL_AREA_STYLE ('',( #663 ) ) ;
#118 = ORIENTED_EDGE ( 'NONE', *, *, #399, .F. ) ;
#119 = DIRECTION ( 'NONE',  ( -1.000000000000000000, -1.239088197126290570E-16, -0.000000000000000000 ) ) ;
#120 = SURFACE_SIDE_STYLE ('',( #172 ) ) ;
#121 = LINE ( 'NONE', #389, #201 ) ;
#122 = VERTEX_POINT ( 'NONE', #335 ) ;
#123 = CARTESIAN_POINT ( 'NONE',  ( -1.280000000000000027, 0.4250000000000000999, 0.000000000000000000 ) ) ;
#124 = VERTEX_POINT ( 'NONE', #394 ) ;
#125 = DIRECTION ( 'NONE',  ( -1.000000000000000000, -1.239088197126290570E-16, -0.000000000000000000 ) ) ;
#126 = AXIS2_PLACEMENT_3D ( 'NONE', #787, #526, #187 ) ;
#127 = AXIS2_PLACEMENT_3D ( 'NONE', #133, #671, #197 ) ;
#128 = ORIENTED_EDGE ( 'NONE', *, *, #145, .T. ) ;
#129 = EDGE_CURVE ( 'NONE', #776, #761, #207, .T. ) ;
#130 = DIRECTION ( 'NONE',  ( 0.000000000000000000, -1.000000000000000000, 0.000000000000000000 ) ) ;
#131 = CIRCLE ( 'NONE', #628, 0.7500000000000004441 ) ;
#132 = CIRCLE ( 'NONE', #631, 0.6000000000000004219 ) ;
#133 = CARTESIAN_POINT ( 'NONE',  ( -0.8500000000000001998, 0.8000000000000001554, 0.000000000000000000 ) ) ;
#134 = AXIS2_PLACEMENT_3D ( 'NONE', #706, #365, #645 ) ;
#135 = EDGE_LOOP ( 'NONE', ( #177, #107, #652, #247 ) ) ;
#136 = EDGE_CURVE ( 'NONE', #375, #47, #777, .T. ) ;
#137 = ORIENTED_EDGE ( 'NONE', *, *, #744, .T. ) ;
#138 = UNCERTAINTY_MEASURE_WITH_UNIT (LENGTH_MEASURE( 1.000000000000000082E-05 ), #333, 'distance_accuracy_value', 'NONE');
#139 = FACE_OUTER_BOUND ( 'NONE', #445, .T. ) ;
#140 = DIRECTION ( 'NONE',  ( -1.000000000000000000, -1.239088197126290570E-16, -0.000000000000000000 ) ) ;
#141 = MANIFOLD_SOLID_BREP ( 'Revolve2', #542 ) ;
#142 = DIRECTION ( 'NONE',  ( -1.000000000000000000, -1.239088197126290570E-16, -0.000000000000000000 ) ) ;
#143 = DIRECTION ( 'NONE',  ( 9.035018104045862066E-17, -1.000000000000000000, 0.000000000000000000 ) ) ;
#144 = CARTESIAN_POINT ( 'NONE',  ( 1.280000000000000471, 0.06623574945026453054, 0.000000000000000000 ) ) ;
#145 = EDGE_CURVE ( 'NONE', #402, #122, #719, .T. ) ;
#146 = CARTESIAN_POINT ( 'NONE',  ( -1.514999999999999902, 0.8000000000000001554, 0.000000000000000000 ) ) ;
#147 = AXIS2_PLACEMENT_3D ( 'NONE', #701, #571, #31 ) ;
#148 = EDGE_LOOP ( 'NONE', ( #769, #315, #381, #588 ) ) ;
#149 = CARTESIAN_POINT ( 'NONE',  ( -1.750000000000000000, 0.8000000000000000444, 0.000000000000000000 ) ) ;
#150 = DIRECTION ( 'NONE',  ( -1.000000000000000000, -1.239088197126290570E-16, -0.000000000000000000 ) ) ;
#151 = SURFACE_SIDE_STYLE ('',( #220 ) ) ;
#152 = CARTESIAN_POINT ( 'NONE',  ( -0.8500000000000003109, 1.550000000000000488, 9.184850993605154600E-17 ) ) ;
#153 = EDGE_CURVE ( 'NONE', #232, #712, #228, .T. ) ;
#154 =( LENGTH_UNIT ( ) NAMED_UNIT ( * ) SI_UNIT ( .MILLI., .METRE. ) );
#155 = EDGE_LOOP ( 'NONE', ( #807, #41 ) ) ;
#156 = DIRECTION ( 'NONE',  ( -1.239088197126290570E-16, 1.000000000000000000, 0.000000000000000000 ) ) ;
#157 = ORIENTED_EDGE ( 'NONE', *, *, #18, .T. ) ;
#158 = AXIS2_PLACEMENT_3D ( 'NONE', #415, #217, #482 ) ;
#159 = ADVANCED_FACE ( 'NONE', ( #323, #598 ), #203, .T. ) ;
#160 = FILL_AREA_STYLE_COLOUR ( '', #750 ) ;
#161 = DIRECTION ( 'NONE',  ( 1.239088197126290570E-16, -1.000000000000000000, 0.000000000000000000 ) ) ;
#162 = EDGE_LOOP ( 'NONE', ( #632, #782 ) ) ;
#163 = CARTESIAN_POINT ( 'NONE',  ( -0.8500000000000001998, 0.8000000000000001554, 0.000000000000000000 ) ) ;
#164 = EDGE_CURVE ( 'NONE', #788, #761, #654, .T. ) ;
#165 = FACE_OUTER_BOUND ( 'NONE', #857, .T. ) ;
#166 = ORIENTED_EDGE ( 'NONE', *, *, #212, .F. ) ;
#167 = FACE_OUTER_BOUND ( 'NONE', #294, .T. ) ;
#168 = EDGE_CURVE ( 'NONE', #438, #198, #6, .T. ) ;
#169 = ORIENTED_EDGE ( 'NONE', *, *, #733, .F. ) ;
#170 = ORIENTED_EDGE ( 'NONE', *, *, #647, .T. ) ;
#171 = ORIENTED_EDGE ( 'NONE', *, *, #689, .F. ) ;
#172 = SURFACE_STYLE_FILL_AREA ( #728 ) ;
#173 = CIRCLE ( 'NONE', #342, 0.7337642505497358192 ) ;
#174 = CIRCLE ( 'NONE', #866, 0.6000000000000005329 ) ;
#175 = FACE_OUTER_BOUND ( 'NONE', #299, .T. ) ;
#176 = ORIENTED_EDGE ( 'NONE', *, *, #814, .F. ) ;
#177 = ORIENTED_EDGE ( 'NONE', *, *, #744, .F. ) ;
#178 = PLANE ( 'NONE',  #487 ) ;
#179 = ORIENTED_EDGE ( 'NONE', *, *, #647, .F. ) ;
#180 =( NAMED_UNIT ( * ) SI_UNIT ( $, .STERADIAN. ) SOLID_ANGLE_UNIT ( ) );
#181 = DIRECTION ( 'NONE',  ( -1.000000000000000000, -1.239088197126290570E-16, -0.000000000000000000 ) ) ;
#182 = EDGE_CURVE ( 'NONE', #438, #208, #352, .T. ) ;
#183 = DIRECTION ( 'NONE',  ( -1.000000000000000000, -1.239088197126290570E-16, 0.000000000000000000 ) ) ;
#184 = CIRCLE ( 'NONE', #420, 0.7500000000000004441 ) ;
#185 = TOROIDAL_SURFACE ( 'NONE', #499, 0.3500000000000004219, 0.4500000000000000111 ) ;
#186 = PRODUCT_DEFINITION_CONTEXT ( 'detailed design', #864, 'design' ) ;
#187 = DIRECTION ( 'NONE',  ( 1.239088197126290570E-16, -1.000000000000000000, 0.000000000000000000 ) ) ;
#188 = CARTESIAN_POINT ( 'NONE',  ( -0.8500000000000001998, 0.8000000000000001554, 0.000000000000000000 ) ) ;
#189 =( GEOMETRIC_REPRESENTATION_CONTEXT ( 3 ) GLOBAL_UNCERTAINTY_ASSIGNED_CONTEXT ( ( #525 ) ) GLOBAL_UNIT_ASSIGNED_CONTEXT ( ( #344, #810, #339 ) ) REPRESENTATION_CONTEXT ( 'NONE', 'WORKASPACE' ) );
#190 = APPLICATION_PROTOCOL_DEFINITION ( 'draft international standard', 'automotive_design', 1998, #538 ) ;
#191 = MECHANICAL_DESIGN_GEOMETRIC_PRESENTATION_REPRESENTATION (  '', ( #73 ), #102 ) ;
#192 = AXIS2_PLACEMENT_3D ( 'NONE', #757, #627, #280 ) ;
#193 = CARTESIAN_POINT ( 'NONE',  ( 1.080000000000000515, 1.550000000000000933, 9.184850993605157066E-17 ) ) ;
#194 = CARTESIAN_POINT ( 'NONE',  ( -0.8500000000000001998, 0.8000000000000001554, 0.000000000000000000 ) ) ;
#195 = EDGE_CURVE ( 'NONE', #573, #348, #121, .T. ) ;
#196 = EDGE_CURVE ( 'NONE', #78, #124, #845, .T. ) ;
#197 = DIRECTION ( 'NONE',  ( 1.807003620809172906E-16, -1.000000000000000000, 0.000000000000000000 ) ) ;
#198 = VERTEX_POINT ( 'NONE', #471 ) ;
#199 = ORIENTED_EDGE ( 'NONE', *, *, #61, .F. ) ;
#200 = DIRECTION ( 'NONE',  ( -1.000000000000000000, -1.239088197126290570E-16, -0.000000000000000000 ) ) ;
#201 = VECTOR ( 'NONE', #140, 1000.000000000000000 ) ;
#202 = ADVANCED_FACE ( 'NONE', ( #865 ), #185, .T. ) ;
#203 = PLANE ( 'NONE',  #296 ) ;
#204 = FACE_BOUND ( 'NONE', #835, .T. ) ;
#205 = CIRCLE ( 'NONE', #850, 0.4500000000000000111 ) ;
#206 =( GEOMETRIC_REPRESENTATION_CONTEXT ( 3 ) GLOBAL_UNCERTAINTY_ASSIGNED_CONTEXT ( ( #413 ) ) GLOBAL_UNIT_ASSIGNED_CONTEXT ( ( #154, #424, #180 ) ) REPRESENTATION_CONTEXT ( 'NONE', 'WORKASPACE' ) );
#207 = LINE ( 'NONE', #462, #281 ) ;
#208 = VERTEX_POINT ( 'NONE', #262 ) ;
#209 = ORIENTED_EDGE ( 'NONE', *, *, #168, .F. ) ;
#210 = CYLINDRICAL_SURFACE ( 'NONE', #791, 0.7500000000000004441 ) ;
#211 = FACE_OUTER_BOUND ( 'NONE', #38, .T. ) ;
#212 = EDGE_CURVE ( 'NONE', #712, #47, #338, .T. ) ;
#213 = CYLINDRICAL_SURFACE ( 'NONE', #260, 0.6000000000000005329 ) ;
#214 = CARTESIAN_POINT ( 'NONE',  ( -1.750000000000000000, 0.4249999999999999334, 0.000000000000000000 ) ) ;
#215 = CIRCLE ( 'NONE', #813, 0.7500000000000004441 ) ;
#216 = VERTEX_POINT ( 'NONE', #291 ) ;
#217 = DIRECTION ( 'NONE',  ( -1.000000000000000000, -1.239088197126290570E-16, -0.000000000000000000 ) ) ;
#218 = CARTESIAN_POINT ( 'NONE',  ( -1.280000000000000249, 0.8000000000000001554, 0.000000000000000000 ) ) ;
#219 = CIRCLE ( 'NONE', #234, 0.7500000000000004441 ) ;
#220 = SURFACE_STYLE_FILL_AREA ( #83 ) ;
#221 = CARTESIAN_POINT ( 'NONE',  ( -0.3500000000000000333, 0.8000000000000002665, 0.000000000000000000 ) ) ;
#222 = EDGE_CURVE ( 'NONE', #581, #735, #421, .T. ) ;
#223 = CARTESIAN_POINT ( 'NONE',  ( -1.750000000000000000, 0.04999999999999958644, 0.000000000000000000 ) ) ;
#224 = CARTESIAN_POINT ( 'NONE',  ( -1.200000000000000178, 0.2500000000000000000, 0.000000000000000000 ) ) ;
#225 = DIRECTION ( 'NONE',  ( -1.000000000000000000, -1.239088197126290570E-16, -0.000000000000000000 ) ) ;
#226 = DIRECTION ( 'NONE',  ( -1.000000000000000000, -1.239088197126290570E-16, -0.000000000000000000 ) ) ;
#227 = PRODUCT_RELATED_PRODUCT_CATEGORY ( 'part', '', ( #277 ) ) ;
#228 = CIRCLE ( 'NONE', #44, 0.3750000000000000555 ) ;
#229 = AXIS2_PLACEMENT_3D ( 'NONE', #146, #9, #85 ) ;
#230 = CARTESIAN_POINT ( 'NONE',  ( -1.750000000000000000, 1.533764250549735975, 8.986020407644902805E-17 ) ) ;
#231 = CARTESIAN_POINT ( 'NONE',  ( 1.080000000000000515, 0.8000000000000003775, 0.000000000000000000 ) ) ;
#232 = VERTEX_POINT ( 'NONE', #688 ) ;
#233 = ORIENTED_EDGE ( 'NONE', *, *, #805, .F. ) ;
#234 = AXIS2_PLACEMENT_3D ( 'NONE', #489, #752, #742 ) ;
#235 = ADVANCED_FACE ( 'NONE', ( #619 ), #271, .T. ) ;
#236 =( LENGTH_UNIT ( ) NAMED_UNIT ( * ) SI_UNIT ( .MILLI., .METRE. ) );
#237 = CARTESIAN_POINT ( 'NONE',  ( -1.200000000000000178, 0.8000000000000001554, 0.000000000000000000 ) ) ;
#238 = ORIENTED_EDGE ( 'NONE', *, *, #222, .F. ) ;
#239 = EDGE_LOOP ( 'NONE', ( #395, #715 ) ) ;
#240 = DIRECTION ( 'NONE',  ( -1.000000000000000000, -1.239088197126290570E-16, -0.000000000000000000 ) ) ;
#241 = EDGE_CURVE ( 'NONE', #402, #456, #45, .T. ) ;
#242 = ORIENTED_EDGE ( 'NONE', *, *, #539, .F. ) ;
#243 = ORIENTED_EDGE ( 'NONE', *, *, #26, .F. ) ;
#244 = VERTEX_POINT ( 'NONE', #343 ) ;
#245 = STYLED_ITEM ( 'NONE', ( #385 ), #141 ) ;
#246 = SURFACE_SIDE_STYLE ('',( #565 ) ) ;
#247 = ORIENTED_EDGE ( 'NONE', *, *, #353, .F. ) ;
#248 = DIRECTION ( 'NONE',  ( -1.000000000000000000, -1.239088197126290570E-16, 0.000000000000000000 ) ) ;
#249 = CIRCLE ( 'NONE', #331, 0.7500000000000004441 ) ;
#250 = EDGE_CURVE ( 'NONE', #198, #438, #677, .T. ) ;
#251 = FACE_OUTER_BOUND ( 'NONE', #368, .T. ) ;
#252 = DIRECTION ( 'NONE',  ( -1.000000000000000000, -1.239088197126290570E-16, -0.000000000000000000 ) ) ;
#253 = VERTEX_POINT ( 'NONE', #80 ) ;
#254 = VERTEX_POINT ( 'NONE', #13 ) ;
#255 = VECTOR ( 'NONE', #867, 1000.000000000000000 ) ;
#256 = SURFACE_SIDE_STYLE ('',( #265 ) ) ;
#257 = CYLINDRICAL_SURFACE ( 'NONE', #704, 0.6000000000000005329 ) ;
#258 = STYLED_ITEM ( 'NONE', ( #58 ), #687 ) ;
#259 = DIRECTION ( 'NONE',  ( -1.000000000000000000, -1.239088197126290570E-16, -0.000000000000000000 ) ) ;
#260 = AXIS2_PLACEMENT_3D ( 'NONE', #485, #200, #14 ) ;
#261 = AXIS2_PLACEMENT_3D ( 'NONE', #503, #576, #359 ) ;
#262 = CARTESIAN_POINT ( 'NONE',  ( -1.750000000000000000, 0.06623574945026432237, 0.000000000000000000 ) ) ;
#263 = FACE_OUTER_BOUND ( 'NONE', #798, .T. ) ;
#264 = ADVANCED_FACE ( 'NONE', ( #486 ), #762, .T. ) ;
#265 = SURFACE_STYLE_FILL_AREA ( #117 ) ;
#266 = CARTESIAN_POINT ( 'NONE',  ( 1.515000000000000346, 0.4499999999999999556, 0.000000000000000000 ) ) ;
#267 = CIRCLE ( 'NONE', #393, 0.7500000000000004441 ) ;
#268 = ORIENTED_EDGE ( 'NONE', *, *, #337, .F. ) ;
#269 = ORIENTED_EDGE ( 'NONE', *, *, #567, .T. ) ;
#270 = CARTESIAN_POINT ( 'NONE',  ( 1.750000000000000444, 0.06623574945026464156, 0.000000000000000000 ) ) ;
#271 = CYLINDRICAL_SURFACE ( 'NONE', #613, 0.7500000000000004441 ) ;
#272 = ADVANCED_FACE ( 'NONE', ( #211 ), #17, .T. ) ;
#273 = ORIENTED_EDGE ( 'NONE', *, *, #222, .T. ) ;
#274 = ORIENTED_EDGE ( 'NONE', *, *, #182, .F. ) ;
#275 = DIRECTION ( 'NONE',  ( 1.807003620809172906E-16, -1.000000000000000000, 0.000000000000000000 ) ) ;
#276 = LINE ( 'NONE', #817, #802 ) ;
#277 = PRODUCT ( 'TZM5232B-GS08', 'TZM5232B-GS08', '', ( #68 ) ) ;
#278 = ORIENTED_EDGE ( 'NONE', *, *, #347, .F. ) ;
#279 = LINE ( 'NONE', #557, #383 ) ;
#280 = DIRECTION ( 'NONE',  ( 0.000000000000000000, -1.000000000000000000, 0.000000000000000000 ) ) ;
#281 = VECTOR ( 'NONE', #792, 1000.000000000000000 ) ;
#282 = CARTESIAN_POINT ( 'NONE',  ( -1.750000000000000000, 0.8000000000000000444, 0.000000000000000000 ) ) ;
#283 = DIRECTION ( 'NONE',  ( 0.000000000000000000, -1.000000000000000000, -1.224646799147352961E-16 ) ) ;
#284 = EDGE_CURVE ( 'NONE', #581, #582, #514, .T. ) ;
#285 = CARTESIAN_POINT ( 'NONE',  ( 1.750000000000000444, 0.8000000000000004885, 0.000000000000000000 ) ) ;
#286 = AXIS2_PLACEMENT_3D ( 'NONE', #266, #549, #537 ) ;
#287 = MECHANICAL_DESIGN_GEOMETRIC_PRESENTATION_REPRESENTATION (  '', ( #669 ), #466 ) ;
#288 = CARTESIAN_POINT ( 'NONE',  ( -1.750000000000000000, 0.8000000000000000444, 0.000000000000000000 ) ) ;
#289 = DIRECTION ( 'NONE',  ( 1.807003620809172906E-16, -1.000000000000000000, 0.000000000000000000 ) ) ;
#290 = EDGE_CURVE ( 'NONE', #364, #124, #474, .T. ) ;
#291 = CARTESIAN_POINT ( 'NONE',  ( -0.3499999999999999223, 0.04999999999999980849, 0.000000000000000000 ) ) ;
#292 = CARTESIAN_POINT ( 'NONE',  ( -1.280000000000000249, 0.06623574945026432237, 0.000000000000000000 ) ) ;
#293 = FILL_AREA_STYLE ('',( #756 ) ) ;
#294 = EDGE_LOOP ( 'NONE', ( #848, #242 ) ) ;
#295 = FACE_OUTER_BOUND ( 'NONE', #442, .T. ) ;
#296 = AXIS2_PLACEMENT_3D ( 'NONE', #869, #804, #740 ) ;
#297 = ORIENTED_EDGE ( 'NONE', *, *, #453, .F. ) ;
#298 = AXIS2_PLACEMENT_3D ( 'NONE', #218, #226, #824 ) ;
#299 = EDGE_LOOP ( 'NONE', ( #157, #847, #841, #711 ) ) ;
#300 = DIRECTION ( 'NONE',  ( -1.000000000000000000, -1.239088197126290570E-16, -0.000000000000000000 ) ) ;
#301 = DIRECTION ( 'NONE',  ( -1.000000000000000000, -1.239088197126290570E-16, 0.000000000000000000 ) ) ;
#302 =( GEOMETRIC_REPRESENTATION_CONTEXT ( 3 ) GLOBAL_UNCERTAINTY_ASSIGNED_CONTEXT ( ( #548 ) ) GLOBAL_UNIT_ASSIGNED_CONTEXT ( ( #40, #310, #854 ) ) REPRESENTATION_CONTEXT ( 'NONE', 'WORKASPACE' ) );
#303 = AXIS2_PLACEMENT_3D ( 'NONE', #316, #852, #764 ) ;
#304 = EDGE_CURVE ( 'NONE', #357, #364, #276, .T. ) ;
#305 = EDGE_LOOP ( 'NONE', ( #309, #707, #648, #801 ) ) ;
#306 = AXIS2_PLACEMENT_3D ( 'NONE', #452, #311, #500 ) ;
#307 = ORIENTED_EDGE ( 'NONE', *, *, #64, .T. ) ;
#308 = CARTESIAN_POINT ( 'NONE',  ( -1.280000000000000027, 1.175000000000000266, 4.592425496802575451E-17 ) ) ;
#309 = ORIENTED_EDGE ( 'NONE', *, *, #861, .T. ) ;
#310 =( NAMED_UNIT ( * ) PLANE_ANGLE_UNIT ( ) SI_UNIT ( $, .RADIAN. ) );
#311 = DIRECTION ( 'NONE',  ( -1.000000000000000000, -1.239088197126290570E-16, -0.000000000000000000 ) ) ;
#312 = ORIENTED_EDGE ( 'NONE', *, *, #705, .F. ) ;
#313 = AXIS2_PLACEMENT_3D ( 'NONE', #285, #809, #674 ) ;
#314 = FACE_OUTER_BOUND ( 'NONE', #361, .T. ) ;
#315 = ORIENTED_EDGE ( 'NONE', *, *, #539, .T. ) ;
#316 = CARTESIAN_POINT ( 'NONE',  ( -1.000000000000000000, 0.8000000000000001554, 0.000000000000000000 ) ) ;
#317 = DIRECTION ( 'NONE',  ( 1.445602896647338424E-16, -1.000000000000000000, 0.000000000000000000 ) ) ;
#318 = DIRECTION ( 'NONE',  ( 1.517445394471976285E-32, -1.224646799147353207E-16, 1.000000000000000000 ) ) ;
#319 = CIRCLE ( 'NONE', #87, 0.7500000000000004441 ) ;
#320 = ADVANCED_FACE ( 'NONE', ( #550, #346 ), #623, .T. ) ;
#321 = DIRECTION ( 'NONE',  ( 0.000000000000000000, -1.000000000000000000, 0.000000000000000000 ) ) ;
#322 = CARTESIAN_POINT ( 'NONE',  ( -1.200000000000000178, 0.2500000000000000000, 0.000000000000000000 ) ) ;
#323 = FACE_BOUND ( 'NONE', #99, .T. ) ;
#324 = EDGE_CURVE ( 'NONE', #32, #597, #692, .T. ) ;
#325 = DIRECTION ( 'NONE',  ( 1.445602896647338424E-16, -1.000000000000000000, 0.000000000000000000 ) ) ;
#326 = FACE_BOUND ( 'NONE', #358, .T. ) ;
#327 = DIRECTION ( 'NONE',  ( -1.000000000000000000, -1.239088197126290570E-16, -0.000000000000000000 ) ) ;
#328 = LINE ( 'NONE', #859, #255 ) ;
#329 = EDGE_CURVE ( 'NONE', #216, #646, #483, .T. ) ;
#330 = AXIS2_PLACEMENT_3D ( 'NONE', #524, #48, #533 ) ;
#331 = AXIS2_PLACEMENT_3D ( 'NONE', #739, #625, #610 ) ;
#332 = AXIS2_PLACEMENT_3D ( 'NONE', #832, #301, #90 ) ;
#333 =( LENGTH_UNIT ( ) NAMED_UNIT ( * ) SI_UNIT ( .MILLI., .METRE. ) );
#334 = CARTESIAN_POINT ( 'NONE',  ( -0.3500000000000001443, 1.550000000000000711, 9.184850993605155833E-17 ) ) ;
#335 = CARTESIAN_POINT ( 'NONE',  ( 1.280000000000000471, 1.350000000000000755, 7.960204194457801640E-17 ) ) ;
#336 = CARTESIAN_POINT ( 'NONE',  ( 1.280000000000000471, 0.8000000000000003775, 0.000000000000000000 ) ) ;
#337 = EDGE_CURVE ( 'NONE', #208, #454, #633, .T. ) ;
#338 = LINE ( 'NONE', #214, #422 ) ;
#339 =( NAMED_UNIT ( * ) SI_UNIT ( $, .STERADIAN. ) SOLID_ANGLE_UNIT ( ) );
#340 = DIRECTION ( 'NONE',  ( -1.000000000000000000, -1.239088197126290570E-16, -0.000000000000000000 ) ) ;
#341 = AXIS2_PLACEMENT_3D ( 'NONE', #695, #501, #703 ) ;
#342 = AXIS2_PLACEMENT_3D ( 'NONE', #637, #419, #562 ) ;
#343 = CARTESIAN_POINT ( 'NONE',  ( 1.280000000000000471, 1.533764250549736197, 8.986020407644902805E-17 ) ) ;
#344 =( LENGTH_UNIT ( ) NAMED_UNIT ( * ) SI_UNIT ( .MILLI., .METRE. ) );
#345 = DIRECTION ( 'NONE',  ( -1.000000000000000000, -1.239088197126290570E-16, -0.000000000000000000 ) ) ;
#346 = FACE_OUTER_BOUND ( 'NONE', #443, .T. ) ;
#347 = EDGE_CURVE ( 'NONE', #28, #522, #615, .T. ) ;
#348 = VERTEX_POINT ( 'NONE', #754 ) ;
#349 = FACE_OUTER_BOUND ( 'NONE', #713, .T. ) ;
#350 = TOROIDAL_SURFACE ( 'NONE', #126, 0.5500000000000001554, 0.2000000000000003164 ) ;
#351 = CARTESIAN_POINT ( 'NONE',  ( -0.3500000000000000333, 0.8000000000000002665, 0.000000000000000000 ) ) ;
#352 = CIRCLE ( 'NONE', #831, 0.4499999999999999001 ) ;
#353 = EDGE_CURVE ( 'NONE', #454, #208, #710, .T. ) ;
#354 = CARTESIAN_POINT ( 'NONE',  ( -1.750000000000000000, 0.04999999999999958644, 0.000000000000000000 ) ) ;
#355 = DIRECTION ( 'NONE',  ( -1.000000000000000000, -1.239088197126290570E-16, -0.000000000000000000 ) ) ;
#356 = AXIS2_PLACEMENT_3D ( 'NONE', #808, #799, #275 ) ;
#357 = VERTEX_POINT ( 'NONE', #152 ) ;
#358 = EDGE_LOOP ( 'NONE', ( #176, #34 ) ) ;
#359 = DIRECTION ( 'NONE',  ( 0.000000000000000000, -1.000000000000000000, 0.000000000000000000 ) ) ;
#360 = DIRECTION ( 'NONE',  ( -1.000000000000000000, 0.000000000000000000, 0.000000000000000000 ) ) ;
#361 = EDGE_LOOP ( 'NONE', ( #519, #502 ) ) ;
#362 = ADVANCED_FACE ( 'NONE', ( #95 ), #97, .T. ) ;
#363 = DIRECTION ( 'NONE',  ( -1.000000000000000000, -1.239088197126290570E-16, -0.000000000000000000 ) ) ;
#364 = VERTEX_POINT ( 'NONE', #638 ) ;
#365 = DIRECTION ( 'NONE',  ( -1.000000000000000000, -1.239088197126290570E-16, 0.000000000000000000 ) ) ;
#366 = AXIS2_PLACEMENT_3D ( 'NONE', #380, #784, #658 ) ;
#367 = EDGE_LOOP ( 'NONE', ( #19, #774, #849, #828 ) ) ;
#368 = EDGE_LOOP ( 'NONE', ( #516, #488 ) ) ;
#369 = PRESENTATION_LAYER_ASSIGNMENT (  '', '', ( #669 ) ) ;
#370 = PRESENTATION_STYLE_ASSIGNMENT (( #826 ) ) ;
#371 = ORIENTED_EDGE ( 'NONE', *, *, #290, .F. ) ;
#372 = ADVANCED_FACE ( 'NONE', ( #35 ), #520, .T. ) ;
#373 = DIRECTION ( 'NONE',  ( 0.000000000000000000, -1.000000000000000000, 0.000000000000000000 ) ) ;
#374 = FILL_AREA_STYLE_COLOUR ( '', #428 ) ;
#375 = VERTEX_POINT ( 'NONE', #308 ) ;
#376 = COLOUR_RGB ( '',0.2509803921568627416, 0.2509803921568627416, 0.2509803921568627416 ) ;
#377 = AXIS2_PLACEMENT_3D ( 'NONE', #401, #52, #321 ) ;
#378 = FACE_OUTER_BOUND ( 'NONE', #778, .T. ) ;
#379 = EDGE_CURVE ( 'NONE', #36, #776, #174, .T. ) ;
#380 = CARTESIAN_POINT ( 'NONE',  ( 1.750000000000000222, 0.8000000000000004885, 0.000000000000000000 ) ) ;
#381 = ORIENTED_EDGE ( 'NONE', *, *, #329, .T. ) ;
#382 = DIRECTION ( 'NONE',  ( 1.445602896647338424E-16, -1.000000000000000000, 0.000000000000000000 ) ) ;
#383 = VECTOR ( 'NONE', #475, 1000.000000000000000 ) ;
#384 = EDGE_CURVE ( 'NONE', #776, #36, #821, .T. ) ;
#385 = PRESENTATION_STYLE_ASSIGNMENT (( #665 ) ) ;
#386 = DIRECTION ( 'NONE',  ( 1.445602896647338424E-16, -1.000000000000000000, 0.000000000000000000 ) ) ;
#387 = FACE_OUTER_BOUND ( 'NONE', #871, .T. ) ;
#388 = ADVANCED_FACE ( 'NONE', ( #295 ), #427, .T. ) ;
#389 = CARTESIAN_POINT ( 'NONE',  ( -1.750000000000000000, 1.550000000000000488, 9.184850993605154600E-17 ) ) ;
#390 = DIRECTION ( 'NONE',  ( -1.000000000000000000, -1.239088197126290570E-16, -0.000000000000000000 ) ) ;
#391 = CLOSED_SHELL ( 'NONE', ( #372, #551, #104, #388, #620, #403, #264, #39, #159, #491, #55, #844, #235, #668 ) ) ;
#392 = DIRECTION ( 'NONE',  ( 0.000000000000000000, -1.000000000000000000, 0.000000000000000000 ) ) ;
#393 = AXIS2_PLACEMENT_3D ( 'NONE', #188, #472, #731 ) ;
#394 = CARTESIAN_POINT ( 'NONE',  ( -1.200000000000000178, 1.350000000000000311, 7.960204194457799175E-17 ) ) ;
#395 = ORIENTED_EDGE ( 'NONE', *, *, #196, .T. ) ;
#396 = AXIS2_PLACEMENT_3D ( 'NONE', #54, #594, #392 ) ;
#397 = CIRCLE ( 'NONE', #286, 0.4499999999999999001 ) ;
#398 = CARTESIAN_POINT ( 'NONE',  ( -1.750000000000000000, 0.8000000000000000444, 0.000000000000000000 ) ) ;
#399 = EDGE_CURVE ( 'NONE', #712, #232, #492, .T. ) ;
#400 = DIRECTION ( 'NONE',  ( -1.000000000000000000, -1.239088197126290570E-16, -0.000000000000000000 ) ) ;
#401 = CARTESIAN_POINT ( 'NONE',  ( -1.200000000000000178, 0.8000000000000001554, 0.000000000000000000 ) ) ;
#402 = VERTEX_POINT ( 'NONE', #773 ) ;
#403 = ADVANCED_FACE ( 'NONE', ( #165 ), #439, .F. ) ;
#404 = CARTESIAN_POINT ( 'NONE',  ( -0.3500000000000001443, 1.550000000000000711, 9.184850993605155833E-17 ) ) ;
#405 = CARTESIAN_POINT ( 'NONE',  ( -1.750000000000000000, 0.8000000000000000444, 0.000000000000000000 ) ) ;
#406 = DIRECTION ( 'NONE',  ( 0.000000000000000000, 0.000000000000000000, 1.000000000000000000 ) ) ;
#407 = TOROIDAL_SURFACE ( 'NONE', #642, 0.3500000000000004774, 0.4500000000000000111 ) ;
#408 = CARTESIAN_POINT ( 'NONE',  ( 1.280000000000000471, 0.8000000000000003775, 0.000000000000000000 ) ) ;
#409 = AXIS2_PLACEMENT_3D ( 'NONE', #149, #8, #62 ) ;
#410 = PRODUCT_DEFINITION_SHAPE ( 'NONE', 'NONE',  #694 ) ;
#411 = ADVANCED_FACE ( 'NONE', ( #697 ), #27, .F. ) ;
#412 = DIRECTION ( 'NONE',  ( -1.000000000000000000, -1.239088197126290570E-16, 0.000000000000000000 ) ) ;
#413 = UNCERTAINTY_MEASURE_WITH_UNIT (LENGTH_MEASURE( 1.000000000000000082E-05 ), #154, 'distance_accuracy_value', 'NONE');
#414 = EDGE_LOOP ( 'NONE', ( #118, #624 ) ) ;
#415 = CARTESIAN_POINT ( 'NONE',  ( -1.750000000000000000, 0.8000000000000000444, 0.000000000000000000 ) ) ;
#416 = DIRECTION ( 'NONE',  ( 0.000000000000000000, -1.000000000000000000, -1.224646799147353207E-16 ) ) ;
#417 = EDGE_CURVE ( 'NONE', #124, #78, #741, .T. ) ;
#418 = SURFACE_STYLE_USAGE ( .BOTH. , #151 ) ;
#419 = DIRECTION ( 'NONE',  ( -1.000000000000000000, -1.239088197126290570E-16, -0.000000000000000000 ) ) ;
#420 = AXIS2_PLACEMENT_3D ( 'NONE', #593, #119, #386 ) ;
#421 = LINE ( 'NONE', #568, #69 ) ;
#422 = VECTOR ( 'NONE', #496, 1000.000000000000000 ) ;
#423 = ORIENTED_EDGE ( 'NONE', *, *, #353, .T. ) ;
#424 =( NAMED_UNIT ( * ) PLANE_ANGLE_UNIT ( ) SI_UNIT ( $, .RADIAN. ) );
#425 = PLANE ( 'NONE',  #10 ) ;
#426 = AXIS2_PLACEMENT_3D ( 'NONE', #675, #406, #484 ) ;
#427 = CYLINDRICAL_SURFACE ( 'NONE', #261, 0.7500000000000004441 ) ;
#428 = COLOUR_RGB ( '',0.7529411764705882248, 0.000000000000000000, 0.000000000000000000 ) ;
#429 = SURFACE_STYLE_USAGE ( .BOTH. , #246 ) ;
#430 = DIRECTION ( 'NONE',  ( -1.239088197126290570E-16, 1.000000000000000000, 0.000000000000000000 ) ) ;
#431 = ADVANCED_FACE ( 'NONE', ( #714 ), #690, .T. ) ;
#432 = MANIFOLD_SOLID_BREP ( 'Split1[2]', #29 ) ;
#433 = ORIENTED_EDGE ( 'NONE', *, *, #2, .T. ) ;
#434 = DIRECTION ( 'NONE',  ( 9.035018104045862066E-17, -1.000000000000000000, 0.000000000000000000 ) ) ;
#435 = EDGE_LOOP ( 'NONE', ( #595, #587, #770, #169 ) ) ;
#436 = MANIFOLD_SOLID_BREP ( 'Split1[1]', #391 ) ;
#437 =( NAMED_UNIT ( * ) PLANE_ANGLE_UNIT ( ) SI_UNIT ( $, .RADIAN. ) );
#438 = VERTEX_POINT ( 'NONE', #292 ) ;
#439 = PLANE ( 'NONE',  #134 ) ;
#440 = AXIS2_PLACEMENT_3D ( 'NONE', #53, #390, #856 ) ;
#441 = ORIENTED_EDGE ( 'NONE', *, *, #164, .T. ) ;
#442 = EDGE_LOOP ( 'NONE', ( #5, #718, #297, #70 ) ) ;
#443 = EDGE_LOOP ( 'NONE', ( #209, #89 ) ) ;
#444 = CARTESIAN_POINT ( 'NONE',  ( -1.514999999999999902, 1.150000000000000577, 4.286263797015742142E-17 ) ) ;
#445 = EDGE_LOOP ( 'NONE', ( #552, #515, #269, #505 ) ) ;
#446 = CIRCLE ( 'NONE', #681, 0.4500000000000000111 ) ;
#447 = ADVANCED_FACE ( 'NONE', ( #175 ), #113, .T. ) ;
#448 = AXIS2_PLACEMENT_3D ( 'NONE', #398, #400, #670 ) ;
#449 = ORIENTED_EDGE ( 'NONE', *, *, #596, .F. ) ;
#450 = CARTESIAN_POINT ( 'NONE',  ( 1.515000000000000346, 1.150000000000000799, 4.286263797015741525E-17 ) ) ;
#451 = ORIENTED_EDGE ( 'NONE', *, *, #384, .T. ) ;
#452 = CARTESIAN_POINT ( 'NONE',  ( -1.200000000000000178, 0.8000000000000001554, 0.000000000000000000 ) ) ;
#453 = EDGE_CURVE ( 'NONE', #101, #364, #696, .T. ) ;
#454 = VERTEX_POINT ( 'NONE', #230 ) ;
#455 = FACE_OUTER_BOUND ( 'NONE', #162, .T. ) ;
#456 = VERTEX_POINT ( 'NONE', #721 ) ;
#457 = UNCERTAINTY_MEASURE_WITH_UNIT (LENGTH_MEASURE( 1.000000000000000082E-05 ), #92, 'distance_accuracy_value', 'NONE');
#458 =( NAMED_UNIT ( * ) SI_UNIT ( $, .STERADIAN. ) SOLID_ANGLE_UNIT ( ) );
#459 = CARTESIAN_POINT ( 'NONE',  ( 1.750000000000000444, 1.533764250549736197, 8.986020407644904038E-17 ) ) ;
#460 = CLOSED_SHELL ( 'NONE', ( #202, #467, #753, #785 ) ) ;
#461 = DIRECTION ( 'NONE',  ( -1.000000000000000000, -1.239088197126290570E-16, -0.000000000000000000 ) ) ;
#462 = CARTESIAN_POINT ( 'NONE',  ( -1.750000000000000000, 0.1999999999999995393, 0.000000000000000000 ) ) ;
#463 = CARTESIAN_POINT ( 'NONE',  ( -0.3500000000000000888, 1.400000000000000577, 7.347880794884126392E-17 ) ) ;
#464 = COLOUR_RGB ( '',0.7921568627450980005, 0.8196078431372548767, 0.9333333333333333481 ) ;
#465 = FILL_AREA_STYLE_COLOUR ( '', #477 ) ;
#466 =( GEOMETRIC_REPRESENTATION_CONTEXT ( 3 ) GLOBAL_UNCERTAINTY_ASSIGNED_CONTEXT ( ( #457 ) ) GLOBAL_UNIT_ASSIGNED_CONTEXT ( ( #92, #586, #458 ) ) REPRESENTATION_CONTEXT ( 'NONE', 'WORKASPACE' ) );
#467 = ADVANCED_FACE ( 'NONE', ( #251 ), #523, .T. ) ;
#468 = CARTESIAN_POINT ( 'NONE',  ( -0.8500000000000001998, 0.8000000000000001554, 0.000000000000000000 ) ) ;
#469 = EDGE_LOOP ( 'NONE', ( #96, #834, #751, #238 ) ) ;
#470 = DIRECTION ( 'NONE',  ( 0.000000000000000000, -1.000000000000000000, -1.224646799147352961E-16 ) ) ;
#471 = CARTESIAN_POINT ( 'NONE',  ( -1.280000000000000249, 1.533764250549735975, 8.986020407644906503E-17 ) ) ;
#472 = DIRECTION ( 'NONE',  ( -1.000000000000000000, -1.239088197126290570E-16, -0.000000000000000000 ) ) ;
#473 = VERTEX_POINT ( 'NONE', #560 ) ;
#474 = CIRCLE ( 'NONE', #82, 0.2000000000000003164 ) ;
#475 = DIRECTION ( 'NONE',  ( -1.000000000000000000, -1.239088197126290570E-16, -0.000000000000000000 ) ) ;
#476 = CARTESIAN_POINT ( 'NONE',  ( 1.280000000000000471, 0.8000000000000003775, 0.000000000000000000 ) ) ;
#477 = COLOUR_RGB ( '',0.7921568627450980005, 0.8196078431372548767, 0.9333333333333333481 ) ;
#478 = STYLED_ITEM ( 'NONE', ( #825 ), #436 ) ;
#479 = LINE ( 'NONE', #614, #490 ) ;
#480 = DIRECTION ( 'NONE',  ( 0.000000000000000000, -1.000000000000000000, 0.000000000000000000 ) ) ;
#481 = ORIENTED_EDGE ( 'NONE', *, *, #379, .F. ) ;
#482 = DIRECTION ( 'NONE',  ( 0.000000000000000000, -1.000000000000000000, 0.000000000000000000 ) ) ;
#483 = LINE ( 'NONE', #223, #720 ) ;
#484 = DIRECTION ( 'NONE',  ( 1.000000000000000000, 0.000000000000000000, 0.000000000000000000 ) ) ;
#485 = CARTESIAN_POINT ( 'NONE',  ( -1.750000000000000000, 0.8000000000000000444, 0.000000000000000000 ) ) ;
#486 = FACE_OUTER_BOUND ( 'NONE', #239, .T. ) ;
#487 = AXIS2_PLACEMENT_3D ( 'NONE', #723, #248, #795 ) ;
#488 = ORIENTED_EDGE ( 'NONE', *, *, #324, .F. ) ;
#489 = CARTESIAN_POINT ( 'NONE',  ( -0.3500000000000000333, 0.8000000000000002665, 0.000000000000000000 ) ) ;
#490 = VECTOR ( 'NONE', #686, 1000.000000000000000 ) ;
#491 = ADVANCED_FACE ( 'NONE', ( #139 ), #210, .T. ) ;
#492 = CIRCLE ( 'NONE', #683, 0.3750000000000000555 ) ;
#493 = DIRECTION ( 'NONE',  ( -1.000000000000000000, -1.239088197126290570E-16, -0.000000000000000000 ) ) ;
#494 = DIRECTION ( 'NONE',  ( 1.239088197126290570E-16, -1.000000000000000000, 0.000000000000000000 ) ) ;
#495 = CARTESIAN_POINT ( 'NONE',  ( -1.200000000000000178, 0.4250000000000000999, 0.000000000000000000 ) ) ;
#496 = DIRECTION ( 'NONE',  ( -1.000000000000000000, -1.239088197126290570E-16, -0.000000000000000000 ) ) ;
#497 = EDGE_LOOP ( 'NONE', ( #797, #49, #243, #166 ) ) ;
#498 = DIRECTION ( 'NONE',  ( 1.239088197126290570E-16, -1.000000000000000000, 0.000000000000000000 ) ) ;
#499 = AXIS2_PLACEMENT_3D ( 'NONE', #535, #855, #734 ) ;
#500 = DIRECTION ( 'NONE',  ( 0.000000000000000000, -1.000000000000000000, 0.000000000000000000 ) ) ;
#501 = DIRECTION ( 'NONE',  ( 1.517445394471976285E-32, -1.224646799147353207E-16, 1.000000000000000000 ) ) ;
#502 = ORIENTED_EDGE ( 'NONE', *, *, #61, .T. ) ;
#503 = CARTESIAN_POINT ( 'NONE',  ( -1.750000000000000000, 0.8000000000000000444, 0.000000000000000000 ) ) ;
#504 = AXIS2_PLACEMENT_3D ( 'NONE', #93, #300, #25 ) ;
#505 = ORIENTED_EDGE ( 'NONE', *, *, #657, .F. ) ;
#506 = EDGE_LOOP ( 'NONE', ( #128, #616, #640, #94 ) ) ;
#507 = CARTESIAN_POINT ( 'NONE',  ( -0.8500000000000000888, 0.04999999999999969746, 0.000000000000000000 ) ) ;
#508 = DIRECTION ( 'NONE',  ( -1.000000000000000000, -1.239088197126290570E-16, -0.000000000000000000 ) ) ;
#509 = ORIENTED_EDGE ( 'NONE', *, *, #43, .F. ) ;
#510 = ORIENTED_EDGE ( 'NONE', *, *, #705, .T. ) ;
#511 = DIRECTION ( 'NONE',  ( 0.000000000000000000, -1.000000000000000000, 0.000000000000000000 ) ) ;
#512 = EDGE_LOOP ( 'NONE', ( #37, #509 ) ) ;
#513 = VECTOR ( 'NONE', #527, 1000.000000000000000 ) ;
#514 = CIRCLE ( 'NONE', #626, 0.6000000000000005329 ) ;
#515 = ORIENTED_EDGE ( 'NONE', *, *, #43, .T. ) ;
#516 = ORIENTED_EDGE ( 'NONE', *, *, #861, .F. ) ;
#517 = EDGE_CURVE ( 'NONE', #592, #244, #806, .T. ) ;
#518 = AXIS2_PLACEMENT_3D ( 'NONE', #566, #836, #360 ) ;
#519 = ORIENTED_EDGE ( 'NONE', *, *, #805, .T. ) ;
#520 = TOROIDAL_SURFACE ( 'NONE', #793, 0.5500000000000003775, 0.2000000000000001499 ) ;
#521 = DIRECTION ( 'NONE',  ( -1.000000000000000000, -1.239088197126290570E-16, -0.000000000000000000 ) ) ;
#522 = VERTEX_POINT ( 'NONE', #404 ) ;
#523 = PLANE ( 'NONE',  #366 ) ;
#524 = CARTESIAN_POINT ( 'NONE',  ( -0.3500000000000000333, 0.1999999999999997891, 0.000000000000000000 ) ) ;
#525 = UNCERTAINTY_MEASURE_WITH_UNIT (LENGTH_MEASURE( 1.000000000000000082E-05 ), #344, 'distance_accuracy_value', 'NONE');
#526 = DIRECTION ( 'NONE',  ( -1.000000000000000000, -1.239088197126290570E-16, -0.000000000000000000 ) ) ;
#527 = DIRECTION ( 'NONE',  ( -1.000000000000000000, -1.239088197126290570E-16, -0.000000000000000000 ) ) ;
#528 = ADVANCED_FACE ( 'NONE', ( #684 ), #622, .T. ) ;
#529 = DIRECTION ( 'NONE',  ( 0.000000000000000000, -1.000000000000000000, 0.000000000000000000 ) ) ;
#530 = DIRECTION ( 'NONE',  ( 0.000000000000000000, -1.000000000000000000, 0.000000000000000000 ) ) ;
#531 = EDGE_LOOP ( 'NONE', ( #371, #676, #105, #575 ) ) ;
#532 = VECTOR ( 'NONE', #699, 1000.000000000000000 ) ;
#533 = DIRECTION ( 'NONE',  ( 1.239088197126290570E-16, -1.000000000000000000, 0.000000000000000000 ) ) ;
#534 = AXIS2_PLACEMENT_3D ( 'NONE', #21, #150, #746 ) ;
#535 = CARTESIAN_POINT ( 'NONE',  ( 1.515000000000000346, 0.8000000000000003775, 0.000000000000000000 ) ) ;
#536 = CARTESIAN_POINT ( 'NONE',  ( -1.280000000000000027, 0.8000000000000001554, 0.000000000000000000 ) ) ;
#537 = DIRECTION ( 'NONE',  ( -1.000000000000000000, 0.000000000000000000, 0.000000000000000000 ) ) ;
#538 = APPLICATION_CONTEXT ( 'automotive_design' ) ;
#539 = EDGE_CURVE ( 'NONE', #573, #216, #219, .T. ) ;
#540 = CARTESIAN_POINT ( 'NONE',  ( -1.280000000000000027, 0.8000000000000001554, 0.000000000000000000 ) ) ;
#541 = EDGE_LOOP ( 'NONE', ( #11, #423 ) ) ;
#542 = CLOSED_SHELL ( 'NONE', ( #447, #572, #555, #639, #528, #758 ) ) ;
#543 = AXIS2_PLACEMENT_3D ( 'NONE', #15, #412, #498 ) ;
#544 = FACE_OUTER_BOUND ( 'NONE', #469, .T. ) ;
#545 = DIRECTION ( 'NONE',  ( 0.000000000000000000, -1.000000000000000000, 0.000000000000000000 ) ) ;
#546 = ORIENTED_EDGE ( 'NONE', *, *, #609, .F. ) ;
#547 = PRESENTATION_LAYER_ASSIGNMENT (  '', '', ( #73 ) ) ;
#548 = UNCERTAINTY_MEASURE_WITH_UNIT (LENGTH_MEASURE( 1.000000000000000082E-05 ), #40, 'distance_accuracy_value', 'NONE');
#549 = DIRECTION ( 'NONE',  ( 0.000000000000000000, 0.000000000000000000, -1.000000000000000000 ) ) ;
#550 = FACE_BOUND ( 'NONE', #155, .T. ) ;
#551 = ADVANCED_FACE ( 'NONE', ( #349 ), #745, .T. ) ;
#552 = ORIENTED_EDGE ( 'NONE', *, *, #304, .F. ) ;
#553 = DIRECTION ( 'NONE',  ( -1.000000000000000000, -1.239088197126290570E-16, -0.000000000000000000 ) ) ;
#554 = CARTESIAN_POINT ( 'NONE',  ( -1.280000000000000027, 0.06623574945026433625, 0.000000000000000000 ) ) ;
#555 = ADVANCED_FACE ( 'NONE', ( #618 ), #79, .F. ) ;
#556 = EDGE_LOOP ( 'NONE', ( #815, #170, #273, #546 ) ) ;
#557 = CARTESIAN_POINT ( 'NONE',  ( -1.750000000000000000, 1.175000000000000266, 4.592425496802576068E-17 ) ) ;
#558 = CIRCLE ( 'NONE', #584, 0.7500000000000005551 ) ;
#559 = CARTESIAN_POINT ( 'NONE',  ( -1.750000000000000000, 1.550000000000000488, 9.184850993605154600E-17 ) ) ;
#560 = CARTESIAN_POINT ( 'NONE',  ( -0.8500000000000003109, 1.400000000000000577, 7.347880794884123927E-17 ) ) ;
#561 = AXIS2_PLACEMENT_3D ( 'NONE', #653, #461, #106 ) ;
#562 = DIRECTION ( 'NONE',  ( 0.000000000000000000, -1.000000000000000000, 0.000000000000000000 ) ) ;
#563 = AXIS2_PLACEMENT_3D ( 'NONE', #408, #345, #12 ) ;
#564 = DIRECTION ( 'NONE',  ( 1.517445394471976285E-32, -1.224646799147353207E-16, 1.000000000000000000 ) ) ;
#565 = SURFACE_STYLE_FILL_AREA ( #846 ) ;
#566 = CARTESIAN_POINT ( 'NONE',  ( -1.000000000000000000, 0.2500000000000000000, 0.000000000000000000 ) ) ;
#567 = EDGE_CURVE ( 'NONE', #253, #101, #479, .T. ) ;
#568 = CARTESIAN_POINT ( 'NONE',  ( -1.750000000000000000, 0.1999999999999995393, 0.000000000000000000 ) ) ;
#569 = DIRECTION ( 'NONE',  ( -1.000000000000000000, -1.239088197126290570E-16, -0.000000000000000000 ) ) ;
#570 =( GEOMETRIC_REPRESENTATION_CONTEXT ( 3 ) GLOBAL_UNCERTAINTY_ASSIGNED_CONTEXT ( ( #138 ) ) GLOBAL_UNIT_ASSIGNED_CONTEXT ( ( #333, #602, #56 ) ) REPRESENTATION_CONTEXT ( 'NONE', 'WORKASPACE' ) );
#571 = DIRECTION ( 'NONE',  ( -1.000000000000000000, -1.239088197126290570E-16, -0.000000000000000000 ) ) ;
#572 = ADVANCED_FACE ( 'NONE', ( #673 ), #71, .F. ) ;
#573 = VERTEX_POINT ( 'NONE', #334 ) ;
#574 = SURFACE_STYLE_FILL_AREA ( #293 ) ;
#575 = ORIENTED_EDGE ( 'NONE', *, *, #417, .F. ) ;
#576 = DIRECTION ( 'NONE',  ( -1.000000000000000000, -1.239088197126290570E-16, -0.000000000000000000 ) ) ;
#577 = ORIENTED_EDGE ( 'NONE', *, *, #77, .T. ) ;
#578 = EDGE_CURVE ( 'NONE', #253, #357, #249, .T. ) ;
#579 = CARTESIAN_POINT ( 'NONE',  ( -1.514999999999999902, 0.8000000000000001554, 0.000000000000000000 ) ) ;
#580 = CARTESIAN_POINT ( 'NONE',  ( -0.3500000000000000333, 0.8000000000000002665, 0.000000000000000000 ) ) ;
#581 = VERTEX_POINT ( 'NONE', #748 ) ;
#582 = VERTEX_POINT ( 'NONE', #20 ) ;
#583 = EDGE_CURVE ( 'NONE', #646, #348, #319, .T. ) ;
#584 = AXIS2_PLACEMENT_3D ( 'NONE', #664, #181, #794 ) ;
#585 = AXIS2_PLACEMENT_3D ( 'NONE', #554, #24, #156 ) ;
#586 =( NAMED_UNIT ( * ) PLANE_ANGLE_UNIT ( ) SI_UNIT ( $, .RADIAN. ) );
#587 = ORIENTED_EDGE ( 'NONE', *, *, #596, .T. ) ;
#588 = ORIENTED_EDGE ( 'NONE', *, *, #2, .F. ) ;
#589 = DIRECTION ( 'NONE',  ( 1.807003620809172906E-16, -1.000000000000000000, 0.000000000000000000 ) ) ;
#590 = MECHANICAL_DESIGN_GEOMETRIC_PRESENTATION_REPRESENTATION (  '', ( #258 ), #189 ) ;
#591 = CIRCLE ( 'NONE', #341, 0.2000000000000000944 ) ;
#592 = VERTEX_POINT ( 'NONE', #144 ) ;
#593 = CARTESIAN_POINT ( 'NONE',  ( -0.3500000000000000333, 0.8000000000000002665, 0.000000000000000000 ) ) ;
#594 = DIRECTION ( 'NONE',  ( -1.000000000000000000, -1.239088197126290570E-16, -0.000000000000000000 ) ) ;
#595 = ORIENTED_EDGE ( 'NONE', *, *, #716, .F. ) ;
#596 = EDGE_CURVE ( 'NONE', #122, #402, #116, .T. ) ;
#597 = VERTEX_POINT ( 'NONE', #270 ) ;
#598 = FACE_OUTER_BOUND ( 'NONE', #512, .T. ) ;
#599 = CARTESIAN_POINT ( 'NONE',  ( -1.750000000000000000, 0.8000000000000000444, 0.000000000000000000 ) ) ;
#600 = ORIENTED_EDGE ( 'NONE', *, *, #129, .F. ) ;
#601 = CARTESIAN_POINT ( 'NONE',  ( -0.3499999999999999778, 0.1999999999999997613, 0.000000000000000000 ) ) ;
#602 =( NAMED_UNIT ( * ) PLANE_ANGLE_UNIT ( ) SI_UNIT ( $, .RADIAN. ) );
#603 = AXIS2_PLACEMENT_3D ( 'NONE', #194, #259, #589 ) ;
#604 = DIRECTION ( 'NONE',  ( -1.000000000000000000, -1.239088197126290570E-16, -0.000000000000000000 ) ) ;
#605 = MECHANICAL_DESIGN_GEOMETRIC_PRESENTATION_REPRESENTATION (  '', ( #478 ), #206 ) ;
#606 = VECTOR ( 'NONE', #493, 1000.000000000000000 ) ;
#607 = EDGE_CURVE ( 'NONE', #597, #592, #397, .T. ) ;
#608 = DIRECTION ( 'NONE',  ( 0.000000000000000000, -1.000000000000000000, 0.000000000000000000 ) ) ;
#609 = EDGE_CURVE ( 'NONE', #473, #735, #617, .T. ) ;
#610 = DIRECTION ( 'NONE',  ( 1.445602896647338424E-16, -1.000000000000000000, 0.000000000000000000 ) ) ;
#611 = CARTESIAN_POINT ( 'NONE',  ( -1.200000000000000178, 0.8000000000000001554, 0.000000000000000000 ) ) ;
#612 = MECHANICAL_DESIGN_GEOMETRIC_PRESENTATION_REPRESENTATION (  '', ( #245 ), #570 ) ;
#613 = AXIS2_PLACEMENT_3D ( 'NONE', #405, #680, #827 ) ;
#614 = CARTESIAN_POINT ( 'NONE',  ( -1.750000000000000000, 0.04999999999999958644, 0.000000000000000000 ) ) ;
#615 = LINE ( 'NONE', #559, #606 ) ;
#616 = ORIENTED_EDGE ( 'NONE', *, *, #716, .T. ) ;
#617 = CIRCLE ( 'NONE', #356, 0.6000000000000004219 ) ;
#618 = FACE_OUTER_BOUND ( 'NONE', #685, .T. ) ;
#619 = FACE_OUTER_BOUND ( 'NONE', #91, .T. ) ;
#620 = ADVANCED_FACE ( 'NONE', ( #544 ), #213, .T. ) ;
#621 = SHAPE_DEFINITION_REPRESENTATION ( #410, #687 ) ;
#622 = CYLINDRICAL_SURFACE ( 'NONE', #158, 0.7500000000000004441 ) ;
#623 = PLANE ( 'NONE',  #585 ) ;
#624 = ORIENTED_EDGE ( 'NONE', *, *, #153, .F. ) ;
#625 = DIRECTION ( 'NONE',  ( -1.000000000000000000, -1.239088197126290570E-16, -0.000000000000000000 ) ) ;
#626 = AXIS2_PLACEMENT_3D ( 'NONE', #351, #749, #143 ) ;
#627 = DIRECTION ( 'NONE',  ( -1.000000000000000000, -1.239088197126290570E-16, -0.000000000000000000 ) ) ;
#628 = AXIS2_PLACEMENT_3D ( 'NONE', #862, #521, #382 ) ;
#629 = LINE ( 'NONE', #354, #532 ) ;
#630 = EDGE_CURVE ( 'NONE', #232, #375, #279, .T. ) ;
#631 = AXIS2_PLACEMENT_3D ( 'NONE', #163, #225, #289 ) ;
#632 = ORIENTED_EDGE ( 'NONE', *, *, #517, .T. ) ;
#633 = CIRCLE ( 'NONE', #192, 0.7337642505497357082 ) ;
#634 = CARTESIAN_POINT ( 'NONE',  ( 1.080000000000000515, 0.2500000000000000000, 0.000000000000000000 ) ) ;
#635 = FACE_OUTER_BOUND ( 'NONE', #135, .T. ) ;
#636 = DIRECTION ( 'NONE',  ( 0.000000000000000000, -1.000000000000000000, 0.000000000000000000 ) ) ;
#637 = CARTESIAN_POINT ( 'NONE',  ( 1.280000000000000471, 0.8000000000000003775, 0.000000000000000000 ) ) ;
#638 = CARTESIAN_POINT ( 'NONE',  ( -1.000000000000000000, 1.550000000000000488, 9.184850993605154600E-17 ) ) ;
#639 = ADVANCED_FACE ( 'NONE', ( #204, #167 ), #425, .T. ) ;
#640 = ORIENTED_EDGE ( 'NONE', *, *, #77, .F. ) ;
#641 = DIRECTION ( 'NONE',  ( 1.239088197126290570E-16, -1.000000000000000000, 0.000000000000000000 ) ) ;
#642 = AXIS2_PLACEMENT_3D ( 'NONE', #579, #840, #830 ) ;
#643 = ORIENTED_EDGE ( 'NONE', *, *, #145, .F. ) ;
#644 = PRESENTATION_LAYER_ASSIGNMENT (  '', '', ( #478 ) ) ;
#645 = DIRECTION ( 'NONE',  ( 1.239088197126290570E-16, -1.000000000000000000, 0.000000000000000000 ) ) ;
#646 = VERTEX_POINT ( 'NONE', #507 ) ;
#647 = EDGE_CURVE ( 'NONE', #582, #581, #780, .T. ) ;
#648 = ORIENTED_EDGE ( 'NONE', *, *, #517, .F. ) ;
#649 = ORIENTED_EDGE ( 'NONE', *, *, #212, .T. ) ;
#650 = DIRECTION ( 'NONE',  ( 1.517445394471976285E-32, -1.224646799147353207E-16, 1.000000000000000000 ) ) ;
#651 = DIRECTION ( 'NONE',  ( -1.000000000000000000, -1.239088197126290570E-16, 0.000000000000000000 ) ) ;
#652 = ORIENTED_EDGE ( 'NONE', *, *, #182, .T. ) ;
#653 = CARTESIAN_POINT ( 'NONE',  ( 1.515000000000000346, 0.8000000000000003775, 0.000000000000000000 ) ) ;
#654 = CIRCLE ( 'NONE', #127, 0.6000000000000004219 ) ;
#655 = ORIENTED_EDGE ( 'NONE', *, *, #814, .T. ) ;
#656 = PLANE ( 'NONE',  #330 ) ;
#657 = EDGE_CURVE ( 'NONE', #364, #101, #667, .T. ) ;
#658 = DIRECTION ( 'NONE',  ( -1.239088197126290570E-16, 1.000000000000000000, 0.000000000000000000 ) ) ;
#659 = FACE_OUTER_BOUND ( 'NONE', #531, .T. ) ;
#660 = CARTESIAN_POINT ( 'NONE',  ( -0.8500000000000000888, 0.1999999999999997613, 0.000000000000000000 ) ) ;
#661 = ORIENTED_EDGE ( 'NONE', *, *, #630, .F. ) ;
#662 = SURFACE_STYLE_USAGE ( .BOTH. , #120 ) ;
#663 = FILL_AREA_STYLE_COLOUR ( '', #376 ) ;
#664 = CARTESIAN_POINT ( 'NONE',  ( 1.080000000000000515, 0.8000000000000003775, 0.000000000000000000 ) ) ;
#665 = SURFACE_STYLE_USAGE ( .BOTH. , #256 ) ;
#666 = AXIS2_PLACEMENT_3D ( 'NONE', #30, #240, #511 ) ;
#667 = CIRCLE ( 'NONE', #504, 0.7500000000000004441 ) ;
#668 = ADVANCED_FACE ( 'NONE', ( #771 ), #819, .T. ) ;
#669 = STYLED_ITEM ( 'NONE', ( #755 ), #432 ) ;
#670 = DIRECTION ( 'NONE',  ( 0.000000000000000000, -1.000000000000000000, 0.000000000000000000 ) ) ;
#671 = DIRECTION ( 'NONE',  ( -1.000000000000000000, -1.239088197126290570E-16, -0.000000000000000000 ) ) ;
#672 = ORIENTED_EDGE ( 'NONE', *, *, #609, .T. ) ;
#673 = FACE_OUTER_BOUND ( 'NONE', #109, .T. ) ;
#674 = DIRECTION ( 'NONE',  ( 0.000000000000000000, -1.000000000000000000, 0.000000000000000000 ) ) ;
#675 = CARTESIAN_POINT ( 'NONE',  ( 0.000000000000000000, 0.000000000000000000, 0.000000000000000000 ) ) ;
#676 = ORIENTED_EDGE ( 'NONE', *, *, #657, .T. ) ;
#677 = CIRCLE ( 'NONE', #298, 0.7337642505497358192 ) ;
#678 = DIRECTION ( 'NONE',  ( 0.000000000000000000, -1.000000000000000000, 0.000000000000000000 ) ) ;
#679 = EDGE_CURVE ( 'NONE', #244, #592, #173, .T. ) ;
#680 = DIRECTION ( 'NONE',  ( -1.000000000000000000, -1.239088197126290570E-16, -0.000000000000000000 ) ) ;
#681 = AXIS2_PLACEMENT_3D ( 'NONE', #450, #318, #470 ) ;
#682 = AXIS2_PLACEMENT_3D ( 'NONE', #75, #553, #678 ) ;
#683 = AXIS2_PLACEMENT_3D ( 'NONE', #237, #508, #636 ) ;
#684 = FACE_OUTER_BOUND ( 'NONE', #148, .T. ) ;
#685 = EDGE_LOOP ( 'NONE', ( #722, #868, #781, #655 ) ) ;
#686 = DIRECTION ( 'NONE',  ( -1.000000000000000000, -1.239088197126290570E-16, -0.000000000000000000 ) ) ;
#687 = ADVANCED_BREP_SHAPE_REPRESENTATION ( 'TZM5232B-GS08', ( #141, #436, #432, #725, #426 ), #302 ) ;
#688 = CARTESIAN_POINT ( 'NONE',  ( -1.200000000000000178, 1.175000000000000266, 4.592425496802575451E-17 ) ) ;
#689 = EDGE_CURVE ( 'NONE', #101, #78, #51, .T. ) ;
#690 = CYLINDRICAL_SURFACE ( 'NONE', #74, 0.3750000000000001110 ) ;
#691 = DIRECTION ( 'NONE',  ( 9.035018104045862066E-17, -1.000000000000000000, 0.000000000000000000 ) ) ;
#692 = CIRCLE ( 'NONE', #313, 0.7337642505497358192 ) ;
#693 = DIRECTION ( 'NONE',  ( 0.000000000000000000, 0.000000000000000000, -1.000000000000000000 ) ) ;
#694 = PRODUCT_DEFINITION ( 'UNKNOWN', '', #50, #186 ) ;
#695 = CARTESIAN_POINT ( 'NONE',  ( 1.080000000000000515, 1.350000000000000755, 6.735557395310447447E-17 ) ) ;
#696 = CIRCLE ( 'NONE', #303, 0.7500000000000004441 ) ;
#697 = FACE_OUTER_BOUND ( 'NONE', #414, .T. ) ;
#698 = EDGE_LOOP ( 'NONE', ( #839, #179 ) ) ;
#699 = DIRECTION ( 'NONE',  ( -1.000000000000000000, -1.239088197126290570E-16, -0.000000000000000000 ) ) ;
#700 = EDGE_CURVE ( 'NONE', #735, #473, #132, .T. ) ;
#701 = CARTESIAN_POINT ( 'NONE',  ( -0.3500000000000000333, 0.8000000000000002665, 0.000000000000000000 ) ) ;
#702 = ORIENTED_EDGE ( 'NONE', *, *, #379, .T. ) ;
#703 = DIRECTION ( 'NONE',  ( 0.000000000000000000, -1.000000000000000000, -1.224646799147353700E-16 ) ) ;
#704 = AXIS2_PLACEMENT_3D ( 'NONE', #599, #46, #727 ) ;
#705 = EDGE_CURVE ( 'NONE', #456, #254, #629, .T. ) ;
#706 = CARTESIAN_POINT ( 'NONE',  ( 1.280000000000000471, 0.06623574945026453054, 0.000000000000000000 ) ) ;
#707 = ORIENTED_EDGE ( 'NONE', *, *, #851, .T. ) ;
#708 = SURFACE_SIDE_STYLE ('',( #574 ) ) ;
#709 = CIRCLE ( 'NONE', #666, 0.7500000000000005551 ) ;
#710 = CIRCLE ( 'NONE', #534, 0.7337642505497357082 ) ;
#711 = ORIENTED_EDGE ( 'NONE', *, *, #329, .F. ) ;
#712 = VERTEX_POINT ( 'NONE', #495 ) ;
#713 = EDGE_LOOP ( 'NONE', ( #577, #768, #233, #312 ) ) ;
#714 = FACE_OUTER_BOUND ( 'NONE', #497, .T. ) ;
#715 = ORIENTED_EDGE ( 'NONE', *, *, #417, .T. ) ;
#716 = EDGE_CURVE ( 'NONE', #122, #28, #591, .T. ) ;
#717 = CARTESIAN_POINT ( 'NONE',  ( -0.8500000000000003109, 1.400000000000000577, 7.347880794884123927E-17 ) ) ;
#718 = ORIENTED_EDGE ( 'NONE', *, *, #304, .T. ) ;
#719 = CIRCLE ( 'NONE', #843, 0.5500000000000003775 ) ;
#720 = VECTOR ( 'NONE', #66, 1000.000000000000000 ) ;
#721 = CARTESIAN_POINT ( 'NONE',  ( 1.080000000000000515, 0.04999999999999980849, 0.000000000000000000 ) ) ;
#722 = ORIENTED_EDGE ( 'NONE', *, *, #64, .F. ) ;
#723 = CARTESIAN_POINT ( 'NONE',  ( 1.280000000000000471, 0.06623574945026453054, 0.000000000000000000 ) ) ;
#724 = DIRECTION ( 'NONE',  ( -1.000000000000000000, -1.239088197126290570E-16, -0.000000000000000000 ) ) ;
#725 = MANIFOLD_SOLID_BREP ( 'Split1[3]', #460 ) ;
#726 = AXIS2_PLACEMENT_3D ( 'NONE', #33, #84, #641 ) ;
#727 = DIRECTION ( 'NONE',  ( 0.000000000000000000, -1.000000000000000000, 0.000000000000000000 ) ) ;
#728 = FILL_AREA_STYLE ('',( #465 ) ) ;
#729 = ADVANCED_FACE ( 'NONE', ( #635 ), #407, .T. ) ;
#730 = DIRECTION ( 'NONE',  ( 0.000000000000000000, 0.000000000000000000, -1.000000000000000000 ) ) ;
#731 = DIRECTION ( 'NONE',  ( 1.445602896647338424E-16, -1.000000000000000000, 0.000000000000000000 ) ) ;
#732 = CARTESIAN_POINT ( 'NONE',  ( -0.8500000000000000888, 0.04999999999999971828, 0.000000000000000000 ) ) ;
#733 = EDGE_CURVE ( 'NONE', #28, #456, #709, .T. ) ;
#734 = DIRECTION ( 'NONE',  ( 1.239088197126290570E-16, -1.000000000000000000, 0.000000000000000000 ) ) ;
#735 = VERTEX_POINT ( 'NONE', #775 ) ;
#736 = ORIENTED_EDGE ( 'NONE', *, *, #733, .T. ) ;
#737 = DIRECTION ( 'NONE',  ( -1.000000000000000000, -1.239088197126290570E-16, -0.000000000000000000 ) ) ;
#738 = ORIENTED_EDGE ( 'NONE', *, *, #583, .T. ) ;
#739 = CARTESIAN_POINT ( 'NONE',  ( -0.8500000000000001998, 0.8000000000000001554, 0.000000000000000000 ) ) ;
#740 = DIRECTION ( 'NONE',  ( -1.239088197126290570E-16, 1.000000000000000000, 0.000000000000000000 ) ) ;
#741 = CIRCLE ( 'NONE', #306, 0.5500000000000001554 ) ;
#742 = DIRECTION ( 'NONE',  ( 1.445602896647338424E-16, -1.000000000000000000, 0.000000000000000000 ) ) ;
#743 = CARTESIAN_POINT ( 'NONE',  ( -1.514999999999999902, 0.4499999999999996780, 0.000000000000000000 ) ) ;
#744 = EDGE_CURVE ( 'NONE', #198, #454, #205, .T. ) ;
#745 = CYLINDRICAL_SURFACE ( 'NONE', #448, 0.7500000000000004441 ) ;
#746 = DIRECTION ( 'NONE',  ( 0.000000000000000000, -1.000000000000000000, 0.000000000000000000 ) ) ;
#747 = APPLICATION_PROTOCOL_DEFINITION ( 'draft international standard', 'automotive_design', 1998, #864 ) ;
#748 = CARTESIAN_POINT ( 'NONE',  ( -0.3499999999999999778, 0.1999999999999997613, 0.000000000000000000 ) ) ;
#749 = DIRECTION ( 'NONE',  ( -1.000000000000000000, -1.239088197126290570E-16, -0.000000000000000000 ) ) ;
#750 = COLOUR_RGB ( '',0.7921568627450980005, 0.8196078431372548767, 0.9333333333333333481 ) ;
#751 = ORIENTED_EDGE ( 'NONE', *, *, #700, .F. ) ;
#752 = DIRECTION ( 'NONE',  ( -1.000000000000000000, -1.239088197126290570E-16, -0.000000000000000000 ) ) ;
#753 = ADVANCED_FACE ( 'NONE', ( #823 ), #790, .T. ) ;
#754 = CARTESIAN_POINT ( 'NONE',  ( -0.8500000000000003109, 1.550000000000000488, 9.184850993605154600E-17 ) ) ;
#755 = PRESENTATION_STYLE_ASSIGNMENT (( #418 ) ) ;
#756 = FILL_AREA_STYLE_COLOUR ( '', #464 ) ;
#757 = CARTESIAN_POINT ( 'NONE',  ( -1.750000000000000000, 0.8000000000000000444, 0.000000000000000000 ) ) ;
#758 = ADVANCED_FACE ( 'NONE', ( #387, #326 ), #42, .T. ) ;
#759 = CIRCLE ( 'NONE', #111, 0.3750000000000000555 ) ;
#760 = AXIS2_PLACEMENT_3D ( 'NONE', #858, #63, #480 ) ;
#761 = VERTEX_POINT ( 'NONE', #660 ) ;
#762 = PLANE ( 'NONE',  #543 ) ;
#763 = ORIENTED_EDGE ( 'NONE', *, *, #136, .F. ) ;
#764 = DIRECTION ( 'NONE',  ( 0.000000000000000000, -1.000000000000000000, 0.000000000000000000 ) ) ;
#765 = PRESENTATION_LAYER_ASSIGNMENT (  '', '', ( #258 ) ) ;
#766 = DIRECTION ( 'NONE',  ( -1.000000000000000000, -1.239088197126290570E-16, -0.000000000000000000 ) ) ;
#767 = AXIS2_PLACEMENT_3D ( 'NONE', #288, #569, #829 ) ;
#768 = ORIENTED_EDGE ( 'NONE', *, *, #347, .T. ) ;
#769 = ORIENTED_EDGE ( 'NONE', *, *, #195, .F. ) ;
#770 = ORIENTED_EDGE ( 'NONE', *, *, #241, .T. ) ;
#771 = FACE_OUTER_BOUND ( 'NONE', #435, .T. ) ;
#772 = ORIENTED_EDGE ( 'NONE', *, *, #168, .T. ) ;
#773 = CARTESIAN_POINT ( 'NONE',  ( 1.280000000000000471, 0.2500000000000000000, 0.000000000000000000 ) ) ;
#774 = ORIENTED_EDGE ( 'NONE', *, *, #324, .T. ) ;
#775 = CARTESIAN_POINT ( 'NONE',  ( -0.8500000000000000888, 0.1999999999999997613, 0.000000000000000000 ) ) ;
#776 = VERTEX_POINT ( 'NONE', #601 ) ;
#777 = CIRCLE ( 'NONE', #16, 0.3750000000000000555 ) ;
#778 = EDGE_LOOP ( 'NONE', ( #661, #7, #649, #763 ) ) ;
#779 = CIRCLE ( 'NONE', #396, 0.7337642505497358192 ) ;
#780 = CIRCLE ( 'NONE', #22, 0.6000000000000005329 ) ;
#781 = ORIENTED_EDGE ( 'NONE', *, *, #129, .T. ) ;
#782 = ORIENTED_EDGE ( 'NONE', *, *, #679, .T. ) ;
#783 = CYLINDRICAL_SURFACE ( 'NONE', #86, 0.3750000000000001110 ) ;
#784 = DIRECTION ( 'NONE',  ( 1.000000000000000000, 1.239088197126290570E-16, 0.000000000000000000 ) ) ;
#785 = ADVANCED_FACE ( 'NONE', ( #455 ), #178, .T. ) ;
#786 = CARTESIAN_POINT ( 'NONE',  ( -1.750000000000000000, 1.400000000000000577, 7.347880794884125159E-17 ) ) ;
#787 = CARTESIAN_POINT ( 'NONE',  ( -1.000000000000000000, 0.8000000000000001554, 0.000000000000000000 ) ) ;
#788 = VERTEX_POINT ( 'NONE', #717 ) ;
#789 = CARTESIAN_POINT ( 'NONE',  ( -1.750000000000000000, 0.8000000000000000444, 0.000000000000000000 ) ) ;
#790 = TOROIDAL_SURFACE ( 'NONE', #561, 0.3500000000000004219, 0.4500000000000000111 ) ;
#791 = AXIS2_PLACEMENT_3D ( 'NONE', #816, #65, #130 ) ;
#792 = DIRECTION ( 'NONE',  ( -1.000000000000000000, -1.239088197126290570E-16, -0.000000000000000000 ) ) ;
#793 = AXIS2_PLACEMENT_3D ( 'NONE', #231, #838, #161 ) ;
#794 = DIRECTION ( 'NONE',  ( 0.000000000000000000, -1.000000000000000000, 0.000000000000000000 ) ) ;
#795 = DIRECTION ( 'NONE',  ( 1.239088197126290570E-16, -1.000000000000000000, 0.000000000000000000 ) ) ;
#796 = DIRECTION ( 'NONE',  ( -1.000000000000000000, 0.000000000000000000, 0.000000000000000000 ) ) ;
#797 = ORIENTED_EDGE ( 'NONE', *, *, #399, .T. ) ;
#798 = EDGE_LOOP ( 'NONE', ( #100, #860, #842, #171 ) ) ;
#799 = DIRECTION ( 'NONE',  ( -1.000000000000000000, -1.239088197126290570E-16, -0.000000000000000000 ) ) ;
#800 = CIRCLE ( 'NONE', #81, 0.7500000000000004441 ) ;
#801 = ORIENTED_EDGE ( 'NONE', *, *, #607, .F. ) ;
#802 = VECTOR ( 'NONE', #355, 1000.000000000000000 ) ;
#803 = CARTESIAN_POINT ( 'NONE',  ( -0.8500000000000001998, 0.8000000000000001554, 0.000000000000000000 ) ) ;
#804 = DIRECTION ( 'NONE',  ( 1.000000000000000000, 1.239088197126290570E-16, 0.000000000000000000 ) ) ;
#805 = EDGE_CURVE ( 'NONE', #254, #522, #131, .T. ) ;
#806 = CIRCLE ( 'NONE', #837, 0.7337642505497358192 ) ;
#807 = ORIENTED_EDGE ( 'NONE', *, *, #26, .T. ) ;
#808 = CARTESIAN_POINT ( 'NONE',  ( -0.8500000000000001998, 0.8000000000000001554, 0.000000000000000000 ) ) ;
#809 = DIRECTION ( 'NONE',  ( -1.000000000000000000, -1.239088197126290570E-16, -0.000000000000000000 ) ) ;
#810 =( NAMED_UNIT ( * ) PLANE_ANGLE_UNIT ( ) SI_UNIT ( $, .RADIAN. ) );
#811 = DIRECTION ( 'NONE',  ( 1.445602896647338424E-16, -1.000000000000000000, 0.000000000000000000 ) ) ;
#812 = DIRECTION ( 'NONE',  ( -1.000000000000000000, 0.000000000000000000, 0.000000000000000000 ) ) ;
#813 = AXIS2_PLACEMENT_3D ( 'NONE', #57, #252, #325 ) ;
#814 = EDGE_CURVE ( 'NONE', #761, #788, #818, .T. ) ;
#815 = ORIENTED_EDGE ( 'NONE', *, *, #98, .F. ) ;
#816 = CARTESIAN_POINT ( 'NONE',  ( -1.750000000000000000, 0.8000000000000000444, 0.000000000000000000 ) ) ;
#817 = CARTESIAN_POINT ( 'NONE',  ( -1.750000000000000000, 1.550000000000000488, 9.184850993605154600E-17 ) ) ;
#818 = CIRCLE ( 'NONE', #603, 0.6000000000000004219 ) ;
#819 = TOROIDAL_SURFACE ( 'NONE', #726, 0.5500000000000003775, 0.2000000000000001499 ) ;
#820 = DIRECTION ( 'NONE',  ( 0.000000000000000000, -1.000000000000000000, 0.000000000000000000 ) ) ;
#821 = CIRCLE ( 'NONE', #147, 0.6000000000000005329 ) ;
#822 = UNCERTAINTY_MEASURE_WITH_UNIT (LENGTH_MEASURE( 1.000000000000000082E-05 ), #236, 'distance_accuracy_value', 'NONE');
#823 = FACE_OUTER_BOUND ( 'NONE', #367, .T. ) ;
#824 = DIRECTION ( 'NONE',  ( 0.000000000000000000, -1.000000000000000000, 0.000000000000000000 ) ) ;
#825 = PRESENTATION_STYLE_ASSIGNMENT (( #429 ) ) ;
#826 = SURFACE_STYLE_USAGE ( .BOTH. , #708 ) ;
#827 = DIRECTION ( 'NONE',  ( 0.000000000000000000, -1.000000000000000000, 0.000000000000000000 ) ) ;
#828 = ORIENTED_EDGE ( 'NONE', *, *, #679, .F. ) ;
#829 = DIRECTION ( 'NONE',  ( 0.000000000000000000, -1.000000000000000000, 0.000000000000000000 ) ) ;
#830 = DIRECTION ( 'NONE',  ( 1.239088197126290570E-16, -1.000000000000000000, 0.000000000000000000 ) ) ;
#831 = AXIS2_PLACEMENT_3D ( 'NONE', #743, #730, #796 ) ;
#832 = CARTESIAN_POINT ( 'NONE',  ( -1.750000000000000000, 0.06623574945026421135, 0.000000000000000000 ) ) ;
#833 = ADVANCED_FACE ( 'NONE', ( #378 ), #783, .T. ) ;
#834 = ORIENTED_EDGE ( 'NONE', *, *, #98, .T. ) ;
#835 = EDGE_LOOP ( 'NONE', ( #451, #702 ) ) ;
#836 = DIRECTION ( 'NONE',  ( 0.000000000000000000, 0.000000000000000000, -1.000000000000000000 ) ) ;
#837 = AXIS2_PLACEMENT_3D ( 'NONE', #336, #142, #1 ) ;
#838 = DIRECTION ( 'NONE',  ( -1.000000000000000000, -1.239088197126290570E-16, -0.000000000000000000 ) ) ;
#839 = ORIENTED_EDGE ( 'NONE', *, *, #284, .F. ) ;
#840 = DIRECTION ( 'NONE',  ( -1.000000000000000000, -1.239088197126290570E-16, -0.000000000000000000 ) ) ;
#841 = ORIENTED_EDGE ( 'NONE', *, *, #583, .F. ) ;
#842 = ORIENTED_EDGE ( 'NONE', *, *, #196, .F. ) ;
#843 = AXIS2_PLACEMENT_3D ( 'NONE', #476, #327, #608 ) ;
#844 = ADVANCED_FACE ( 'NONE', ( #314, #115 ), #656, .T. ) ;
#845 = CIRCLE ( 'NONE', #377, 0.5500000000000001554 ) ;
#846 = FILL_AREA_STYLE ('',( #374 ) ) ;
#847 = ORIENTED_EDGE ( 'NONE', *, *, #195, .T. ) ;
#848 = ORIENTED_EDGE ( 'NONE', *, *, #18, .F. ) ;
#849 = ORIENTED_EDGE ( 'NONE', *, *, #607, .T. ) ;
#850 = AXIS2_PLACEMENT_3D ( 'NONE', #444, #650, #283 ) ;
#851 = EDGE_CURVE ( 'NONE', #32, #244, #446, .T. ) ;
#852 = DIRECTION ( 'NONE',  ( -1.000000000000000000, -1.239088197126290570E-16, -0.000000000000000000 ) ) ;
#853 = LINE ( 'NONE', #786, #513 ) ;
#854 =( NAMED_UNIT ( * ) SI_UNIT ( $, .STERADIAN. ) SOLID_ANGLE_UNIT ( ) );
#855 = DIRECTION ( 'NONE',  ( -1.000000000000000000, -1.239088197126290570E-16, -0.000000000000000000 ) ) ;
#856 = DIRECTION ( 'NONE',  ( 1.239088197126290570E-16, -1.000000000000000000, 0.000000000000000000 ) ) ;
#857 = EDGE_LOOP ( 'NONE', ( #643, #449 ) ) ;
#858 = CARTESIAN_POINT ( 'NONE',  ( -1.280000000000000249, 0.8000000000000001554, 0.000000000000000000 ) ) ;
#859 = CARTESIAN_POINT ( 'NONE',  ( -1.750000000000000000, 1.400000000000000577, 7.347880794884125159E-17 ) ) ;
#860 = ORIENTED_EDGE ( 'NONE', *, *, #290, .T. ) ;
#861 = EDGE_CURVE ( 'NONE', #597, #32, #779, .T. ) ;
#862 = CARTESIAN_POINT ( 'NONE',  ( -0.3500000000000000333, 0.8000000000000002665, 0.000000000000000000 ) ) ;
#863 = AXIS2_PLACEMENT_3D ( 'NONE', #732, #183, #110 ) ;
#864 = APPLICATION_CONTEXT ( 'automotive_design' ) ;
#865 = FACE_OUTER_BOUND ( 'NONE', #305, .T. ) ;
#866 = AXIS2_PLACEMENT_3D ( 'NONE', #580, #363, #434 ) ;
#867 = DIRECTION ( 'NONE',  ( -1.000000000000000000, -1.239088197126290570E-16, -0.000000000000000000 ) ) ;
#868 = ORIENTED_EDGE ( 'NONE', *, *, #384, .F. ) ;
#869 = CARTESIAN_POINT ( 'NONE',  ( -0.8500000000000000888, 0.04999999999999971828, 0.000000000000000000 ) ) ;
#870 = ORIENTED_EDGE ( 'NONE', *, *, #700, .T. ) ;
#871 = EDGE_LOOP ( 'NONE', ( #738, #433 ) ) ;
ENDSEC;
END-ISO-10303-21;
