ISO-10303-21;
HEADER;
FILE_DESCRIPTION (( 'STEP AP203' ),
    '1' );
FILE_NAME ('Heatsink_ALUM_ANOD_TO-220_V5220L.STEP',
    '2022-10-28T12:14:16',
    ( 'Windows User' ),
    ( '' ),
    'SwSTEP 2.0',
    'SolidWorks 2020',
    '' );
FILE_SCHEMA (( 'CONFIG_CONTROL_DESIGN' ));
ENDSEC;

DATA;
#1 = ORIENTED_EDGE ( 'NONE', *, *, #656, .F. ) ;
#2 = EDGE_CURVE ( 'NONE', #932, #929, #1033, .T. ) ;
#3 = DIRECTION ( 'NONE',  ( 1.364649134660147950E-14, 1.000000000000000000, -0.000000000000000000 ) ) ;
#4 = ORIENTED_EDGE ( 'NONE', *, *, #1123, .F. ) ;
#5 = FACE_OUTER_BOUND ( 'NONE', #788, .T. ) ;
#6 = ORIENTED_EDGE ( 'NONE', *, *, #1373, .F. ) ;
#7 = DIRECTION ( 'NONE',  ( -0.000000000000000000, -0.000000000000000000, -1.000000000000000000 ) ) ;
#8 = EDGE_CURVE ( 'NONE', #632, #695, #1232, .T. ) ;
#9 = FACE_OUTER_BOUND ( 'NONE', #1182, .T. ) ;
#10 = ORIENTED_EDGE ( 'NONE', *, *, #631, .F. ) ;
#11 = CARTESIAN_POINT ( 'NONE',  ( -14.99999999999999822, 1.499999999999984901, 15.00000000000000000 ) ) ;
#12 = LINE ( 'NONE', #119, #823 ) ;
#13 = APPROVAL_DATE_TIME ( #652, #316 ) ;
#14 = VECTOR ( 'NONE', #124, 1000.000000000000000 ) ;
#15 = PLANE ( 'NONE',  #1235 ) ;
#16 = ADVANCED_FACE ( 'NONE', ( #76 ), #282, .F. ) ;
#17 = ORIENTED_EDGE ( 'NONE', *, *, #1311, .T. ) ;
#18 = VECTOR ( 'NONE', #1005, 1000.000000000000000 ) ;
#19 = VECTOR ( 'NONE', #591, 1000.000000000000000 ) ;
#20 = EDGE_CURVE ( 'NONE', #607, #528, #60, .T. ) ;
#21 = DIRECTION ( 'NONE',  ( -1.000000000000000000, 0.000000000000000000, 0.000000000000000000 ) ) ;
#22 = CARTESIAN_POINT ( 'NONE',  ( -16.00000000000000000, -2.499999999999988898, 15.00000000000000000 ) ) ;
#23 = CARTESIAN_POINT ( 'NONE',  ( -14.99999999999999822, -1.499999999999986455, -15.00000000000000000 ) ) ;
#24 = EDGE_CURVE ( 'NONE', #528, #1021, #716, .T. ) ;
#25 = LINE ( 'NONE', #319, #1281 ) ;
#26 = COORDINATED_UNIVERSAL_TIME_OFFSET ( 1, 0, .AHEAD. ) ;
#27 = CARTESIAN_POINT ( 'NONE',  ( -15.00000000000000000, 7.499999999999942268, -15.00000000000000000 ) ) ;
#28 = DIRECTION ( 'NONE',  ( -0.000000000000000000, -0.000000000000000000, -1.000000000000000000 ) ) ;
#29 = ORIENTED_EDGE ( 'NONE', *, *, #367, .F. ) ;
#30 = EDGE_CURVE ( 'NONE', #964, #366, #817, .T. ) ;
#31 = CARTESIAN_POINT ( 'NONE',  ( -16.00000000000000355, 7.499999999999942268, -15.00000000000000000 ) ) ;
#32 = DIRECTION ( 'NONE',  ( 0.000000000000000000, -1.000000000000000000, 0.000000000000000000 ) ) ;
#33 = CARTESIAN_POINT ( 'NONE',  ( 14.99999999999999822, -1.499999999999984901, -15.00000000000000000 ) ) ;
#34 = AXIS2_PLACEMENT_3D ( 'NONE', #311, #101, #527 ) ;
#35 = VECTOR ( 'NONE', #170, 1000.000000000000000 ) ;
#36 = VECTOR ( 'NONE', #32, 1000.000000000000000 ) ;
#37 = ORIENTED_EDGE ( 'NONE', *, *, #753, .T. ) ;
#38 = AXIS2_PLACEMENT_3D ( 'NONE', #630, #304, #747 ) ;
#39 = DIRECTION ( 'NONE',  ( -0.000000000000000000, -0.000000000000000000, -1.000000000000000000 ) ) ;
#40 = CARTESIAN_POINT ( 'NONE',  ( -9.499999999927242200, 6.499999999999997335, -15.00000000000000000 ) ) ;
#41 = ORIENTED_EDGE ( 'NONE', *, *, #733, .F. ) ;
#42 = DATE_AND_TIME ( #240, #347 ) ;
#43 = DIRECTION ( 'NONE',  ( 1.000000000000000000, 0.000000000000000000, -0.000000000000000000 ) ) ;
#44 = EDGE_CURVE ( 'NONE', #267, #932, #902, .T. ) ;
#45 = CARTESIAN_POINT ( 'NONE',  ( -15.00000020682086976, 6.500000000000155431, -15.00000000000000000 ) ) ;
#46 = CARTESIAN_POINT ( 'NONE',  ( -9.499999999927242200, -3.500000000000024425, 15.00000000000000000 ) ) ;
#47 = CYLINDRICAL_SURFACE ( 'NONE', #1191, 1.000000000000004441 ) ;
#48 = CARTESIAN_POINT ( 'NONE',  ( -7.500000000000000000, 4.500000000000035527, 15.00000000000000000 ) ) ;
#49 = DIRECTION ( 'NONE',  ( 1.000000000000000000, 0.000000000000000000, 0.000000000000000000 ) ) ;
#50 = CARTESIAN_POINT ( 'NONE',  ( -15.00000000000000000, -7.499999999999942268, -15.00000000000000000 ) ) ;
#51 = ORIENTED_EDGE ( 'NONE', *, *, #130, .T. ) ;
#52 = LINE ( 'NONE', #802, #574 ) ;
#53 = VERTEX_POINT ( 'NONE', #1381 ) ;
#54 = CARTESIAN_POINT ( 'NONE',  ( 15.00000020682086976, 6.500000000000155431, 15.00000000000000000 ) ) ;
#55 = EDGE_CURVE ( 'NONE', #428, #1059, #1207, .T. ) ;
#56 = VERTEX_POINT ( 'NONE', #100 ) ;
#57 = CARTESIAN_POINT ( 'NONE',  ( -9.499999581961899864, 1.500000000000011546, 15.00000000000000000 ) ) ;
#58 = ORIENTED_EDGE ( 'NONE', *, *, #689, .T. ) ;
#59 = CARTESIAN_POINT ( 'NONE',  ( -14.99999999999999822, -1.499999999999986455, 15.00000000000000000 ) ) ;
#60 = LINE ( 'NONE', #483, #286 ) ;
#61 = CARTESIAN_POINT ( 'NONE',  ( 14.99999999999999822, -3.499999999999991118, 15.00000000000000000 ) ) ;
#62 = FACE_OUTER_BOUND ( 'NONE', #1136, .T. ) ;
#63 = EDGE_LOOP ( 'NONE', ( #37, #748, #158, #277 ) ) ;
#64 = LOCAL_TIME ( 14, 14, 16.00000000000000000, #663 ) ;
#65 = CARTESIAN_POINT ( 'NONE',  ( -15.00000000000000000, -7.499999999999942268, 15.00000000000000000 ) ) ;
#66 = EDGE_CURVE ( 'NONE', #105, #760, #202, .T. ) ;
#67 = CIRCLE ( 'NONE', #1003, 1.000000000000004441 ) ;
#68 = AXIS2_PLACEMENT_3D ( 'NONE', #993, #767, #331 ) ;
#69 = LINE ( 'NONE', #377, #437 ) ;
#70 = ORIENTED_EDGE ( 'NONE', *, *, #1175, .T. ) ;
#71 = ORIENTED_EDGE ( 'NONE', *, *, #243, .F. ) ;
#72 = CARTESIAN_POINT ( 'NONE',  ( -9.499999999927242200, -3.500000000000024425, -15.00000000000000000 ) ) ;
#73 = ORIENTED_EDGE ( 'NONE', *, *, #1384, .F. ) ;
#74 = CC_DESIGN_PERSON_AND_ORGANIZATION_ASSIGNMENT ( #125, #212, ( #176 ) ) ;
#75 = VERTEX_POINT ( 'NONE', #1387 ) ;
#76 = FACE_OUTER_BOUND ( 'NONE', #645, .T. ) ;
#77 = LINE ( 'NONE', #852, #290 ) ;
#78 = CARTESIAN_POINT ( 'NONE',  ( 14.99999999999999822, 1.499999999999986455, -15.00000000000000000 ) ) ;
#79 = ORIENTED_EDGE ( 'NONE', *, *, #709, .F. ) ;
#80 = ADVANCED_FACE ( 'NONE', ( #842 ), #1282, .F. ) ;
#81 = VERTEX_POINT ( 'NONE', #745 ) ;
#82 = CARTESIAN_POINT ( 'NONE',  ( 14.99999999999999822, 3.499999999999989786, 15.00000000000000000 ) ) ;
#83 = LINE ( 'NONE', #883, #806 ) ;
#84 = ORIENTED_EDGE ( 'NONE', *, *, #201, .F. ) ;
#85 = DIRECTION ( 'NONE',  ( -1.000000000000000000, -4.849340257442623366E-15, 0.000000000000000000 ) ) ;
#86 = CC_DESIGN_APPROVAL ( #316, ( #93 ) ) ;
#87 = VECTOR ( 'NONE', #1360, 1000.000000000000000 ) ;
#88 = ORIENTED_EDGE ( 'NONE', *, *, #1108, .F. ) ;
#89 = VECTOR ( 'NONE', #1050, 1000.000000000000000 ) ;
#90 = CIRCLE ( 'NONE', #490, 1.000000000000004441 ) ;
#91 = DIRECTION ( 'NONE',  ( 0.000000000000000000, 0.000000000000000000, -1.000000000000000000 ) ) ;
#92 = DIRECTION ( 'NONE',  ( 0.000000000000000000, -0.000000000000000000, 1.000000000000000000 ) ) ;
#93 = PRODUCT_DEFINITION ( 'UNKNOWN', '', #176, #819 ) ;
#94 = VERTEX_POINT ( 'NONE', #193 ) ;
#95 = ORIENTED_EDGE ( 'NONE', *, *, #8, .T. ) ;
#96 = DIRECTION ( 'NONE',  ( 0.000000000000000000, 1.000000000000000000, 0.000000000000000000 ) ) ;
#97 = EDGE_CURVE ( 'NONE', #138, #461, #1173, .T. ) ;
#98 = ORIENTED_EDGE ( 'NONE', *, *, #866, .F. ) ;
#99 = VERTEX_POINT ( 'NONE', #850 ) ;
#100 = CARTESIAN_POINT ( 'NONE',  ( 15.00000020682086976, 6.499999999999960032, -15.00000000000000000 ) ) ;
#101 = DIRECTION ( 'NONE',  ( 4.849340257442623366E-15, -1.000000000000000000, 0.000000000000000000 ) ) ;
#102 = VERTEX_POINT ( 'NONE', #1289 ) ;
#103 = DIRECTION ( 'NONE',  ( -0.000000000000000000, 1.000000000000000000, -0.000000000000000000 ) ) ;
#104 = EDGE_CURVE ( 'NONE', #995, #1242, #292, .T. ) ;
#105 = VERTEX_POINT ( 'NONE', #1179 ) ;
#106 = CIRCLE ( 'NONE', #1349, 1.000000000000004441 ) ;
#107 = DIRECTION ( 'NONE',  ( -0.000000000000000000, -1.000000000000000000, -0.000000000000000000 ) ) ;
#108 = PERSON_AND_ORGANIZATION_ROLE ( 'classification_officer' ) ;
#109 = VECTOR ( 'NONE', #593, 1000.000000000000000 ) ;
#110 = CARTESIAN_POINT ( 'NONE',  ( 7.500000000000000000, -8.500000000000040856, 15.00000000000000000 ) ) ;
#111 = VECTOR ( 'NONE', #235, 1000.000000000000000 ) ;
#112 = ORIENTED_EDGE ( 'NONE', *, *, #879, .F. ) ;
#113 = ORIENTED_EDGE ( 'NONE', *, *, #1069, .T. ) ;
#114 = ADVANCED_FACE ( 'NONE', ( #1267 ), #943, .F. ) ;
#115 = APPROVAL_ROLE ( '' ) ;
#116 = PLANE ( 'NONE',  #1210 ) ;
#117 = ORIENTED_EDGE ( 'NONE', *, *, #333, .F. ) ;
#118 = ADVANCED_FACE ( 'NONE', ( #838 ), #1317, .F. ) ;
#119 = CARTESIAN_POINT ( 'NONE',  ( -7.500000000000000000, -8.500000000000040856, 15.00000000000000000 ) ) ;
#120 = PERSON_AND_ORGANIZATION ( #627, #1162 ) ;
#121 = ADVANCED_FACE ( 'NONE', ( #1202 ), #544, .T. ) ;
#122 = PLANE ( 'NONE',  #330 ) ;
#123 = ORIENTED_EDGE ( 'NONE', *, *, #104, .T. ) ;
#124 = DIRECTION ( 'NONE',  ( 1.000000000000000000, 0.000000000000000000, 0.000000000000000000 ) ) ;
#125 = PERSON_AND_ORGANIZATION ( #627, #1162 ) ;
#126 = AXIS2_PLACEMENT_3D ( 'NONE', #683, #1110, #705 ) ;
#127 = DIRECTION ( 'NONE',  ( -0.000000000000000000, -0.000000000000000000, -1.000000000000000000 ) ) ;
#128 = DIRECTION ( 'NONE',  ( 1.000000000000000000, -1.364649134660147792E-14, 0.000000000000000000 ) ) ;
#129 = CIRCLE ( 'NONE', #915, 1.000000000000002665 ) ;
#130 = EDGE_CURVE ( 'NONE', #760, #1362, #860, .T. ) ;
#131 = AXIS2_PLACEMENT_3D ( 'NONE', #971, #28, #220 ) ;
#132 = CARTESIAN_POINT ( 'NONE',  ( 9.499999999927242200, 6.499999999999997335, 15.00000000000000000 ) ) ;
#133 = DIRECTION ( 'NONE',  ( 6.308085367104944732E-15, -1.000000000000000000, 0.000000000000000000 ) ) ;
#134 = DATE_TIME_ROLE ( 'creation_date' ) ;
#135 = CARTESIAN_POINT ( 'NONE',  ( -7.500000000000000000, -8.500000000000040856, -15.00000000000000000 ) ) ;
#136 = DIRECTION ( 'NONE',  ( 0.000000000000000000, 0.000000000000000000, 1.000000000000000000 ) ) ;
#137 = EDGE_CURVE ( 'NONE', #1242, #1378, #227, .T. ) ;
#138 = VERTEX_POINT ( 'NONE', #431 ) ;
#139 = CARTESIAN_POINT ( 'NONE',  ( -14.99999999999999822, 3.499999999999991118, 15.00000000000000000 ) ) ;
#140 = CARTESIAN_POINT ( 'NONE',  ( -14.99999999876309076, 8.500000000000142109, -15.00000000000000000 ) ) ;
#141 = CARTESIAN_POINT ( 'NONE',  ( 14.99999999876309076, 8.500000000000142109, 15.00000000000000000 ) ) ;
#142 = CARTESIAN_POINT ( 'NONE',  ( 0.000000000000000000, 4.500000000000035527, 0.000000000000000000 ) ) ;
#143 = LINE ( 'NONE', #54, #19 ) ;
#144 = EDGE_LOOP ( 'NONE', ( #916, #1367, #275, #113 ) ) ;
#145 = EDGE_CURVE ( 'NONE', #204, #1155, #1194, .T. ) ;
#146 = LINE ( 'NONE', #570, #18 ) ;
#147 = ORIENTED_EDGE ( 'NONE', *, *, #1069, .F. ) ;
#148 = FACE_OUTER_BOUND ( 'NONE', #859, .T. ) ;
#149 = CARTESIAN_POINT ( 'NONE',  ( 9.499999581961899864, 1.500000000000011546, 15.00000000000000000 ) ) ;
#150 = CARTESIAN_POINT ( 'NONE',  ( -7.500000000000000000, 4.500000000000035527, -15.00000000000000000 ) ) ;
#151 = CIRCLE ( 'NONE', #572, 1.000000000000002665 ) ;
#152 = VECTOR ( 'NONE', #481, 1000.000000000000000 ) ;
#153 = ORIENTED_EDGE ( 'NONE', *, *, #310, .F. ) ;
#154 = AXIS2_PLACEMENT_3D ( 'NONE', #500, #96, #92 ) ;
#155 = LINE ( 'NONE', #587, #287 ) ;
#156 = VERTEX_POINT ( 'NONE', #230 ) ;
#157 = CARTESIAN_POINT ( 'NONE',  ( -15.00000000000000000, 7.499999999999942268, -15.00000000000000000 ) ) ;
#158 = ORIENTED_EDGE ( 'NONE', *, *, #412, .F. ) ;
#159 = FACE_OUTER_BOUND ( 'NONE', #628, .T. ) ;
#160 = DIRECTION ( 'NONE',  ( 0.000000000000000000, 0.000000000000000000, 1.000000000000000000 ) ) ;
#161 = ORIENTED_EDGE ( 'NONE', *, *, #1278, .F. ) ;
#162 = DIRECTION ( 'NONE',  ( -0.000000000000000000, -0.000000000000000000, -1.000000000000000000 ) ) ;
#163 = ORIENTED_EDGE ( 'NONE', *, *, #727, .F. ) ;
#164 = DIRECTION ( 'NONE',  ( 0.000000000000000000, 0.000000000000000000, 1.000000000000000000 ) ) ;
#165 = ORIENTED_EDGE ( 'NONE', *, *, #351, .F. ) ;
#166 = DIRECTION ( 'NONE',  ( 6.308085367104944732E-15, 1.000000000000000000, -0.000000000000000000 ) ) ;
#167 = CARTESIAN_POINT ( 'NONE',  ( -15.00000000000000000, 7.499999999999942268, 15.00000000000000000 ) ) ;
#168 = EDGE_CURVE ( 'NONE', #995, #191, #239, .T. ) ;
#169 = EDGE_LOOP ( 'NONE', ( #933, #950, #246, #313 ) ) ;
#170 = DIRECTION ( 'NONE',  ( 0.000000000000000000, -1.000000000000000000, 0.000000000000000000 ) ) ;
#171 = VERTEX_POINT ( 'NONE', #990 ) ;
#172 = ORIENTED_EDGE ( 'NONE', *, *, #920, .F. ) ;
#173 = DIRECTION ( 'NONE',  ( -0.000000000000000000, -0.000000000000000000, -1.000000000000000000 ) ) ;
#174 = ORIENTED_EDGE ( 'NONE', *, *, #866, .T. ) ;
#175 = EDGE_CURVE ( 'NONE', #676, #392, #776, .T. ) ;
#176 = PRODUCT_DEFINITION_FORMATION_WITH_SPECIFIED_SOURCE ( 'ANY', '', #885, .NOT_KNOWN. ) ;
#177 = CARTESIAN_POINT ( 'NONE',  ( 9.499999999927242200, -3.500000000000024425, 15.00000000000000000 ) ) ;
#178 = AXIS2_PLACEMENT_3D ( 'NONE', #619, #408, #91 ) ;
#179 = VECTOR ( 'NONE', #1219, 1000.000000000000000 ) ;
#180 = VECTOR ( 'NONE', #1361, 1000.000000000000000 ) ;
#181 = DIRECTION ( 'NONE',  ( -1.000000000000000000, 0.000000000000000000, 0.000000000000000000 ) ) ;
#182 = ORIENTED_EDGE ( 'NONE', *, *, #927, .T. ) ;
#183 = LINE ( 'NONE', #203, #1206 ) ;
#184 = ORIENTED_EDGE ( 'NONE', *, *, #1198, .T. ) ;
#185 = EDGE_CURVE ( 'NONE', #610, #248, #12, .T. ) ;
#186 = ORIENTED_EDGE ( 'NONE', *, *, #404, .F. ) ;
#187 = CARTESIAN_POINT ( 'NONE',  ( 0.000000000000000000, 34.50000000000002842, 0.000000000000000000 ) ) ;
#188 = CARTESIAN_POINT ( 'NONE',  ( -16.00000000000000000, -2.499999999999988898, -15.00000000000000000 ) ) ;
#189 = ORIENTED_EDGE ( 'NONE', *, *, #517, .F. ) ;
#190 = DIRECTION ( 'NONE',  ( 1.000000000000000000, 0.000000000000000000, 0.000000000000000000 ) ) ;
#191 = VERTEX_POINT ( 'NONE', #670 ) ;
#192 = EDGE_CURVE ( 'NONE', #1258, #688, #25, .T. ) ;
#193 = CARTESIAN_POINT ( 'NONE',  ( 15.00000020682086976, 6.499999999999960032, 15.00000000000000000 ) ) ;
#194 = DIRECTION ( 'NONE',  ( -0.000000000000000000, -0.000000000000000000, -1.000000000000000000 ) ) ;
#195 = VERTEX_POINT ( 'NONE', #31 ) ;
#196 = VECTOR ( 'NONE', #402, 1000.000000000000000 ) ;
#197 = AXIS2_PLACEMENT_3D ( 'NONE', #1239, #1133, #1044 ) ;
#198 = ORIENTED_EDGE ( 'NONE', *, *, #761, .F. ) ;
#199 = AXIS2_PLACEMENT_3D ( 'NONE', #407, #837, #302 ) ;
#200 = CIRCLE ( 'NONE', #983, 1.000000000000002665 ) ;
#201 = EDGE_CURVE ( 'NONE', #102, #215, #1345, .T. ) ;
#202 = LINE ( 'NONE', #1273, #530 ) ;
#203 = CARTESIAN_POINT ( 'NONE',  ( 9.499999999927242200, -6.499999999999997335, 15.00000000000000000 ) ) ;
#204 = VERTEX_POINT ( 'NONE', #1090 ) ;
#205 = DIRECTION ( 'NONE',  ( 0.000000000000000000, 0.000000000000000000, -1.000000000000000000 ) ) ;
#206 = ORIENTED_EDGE ( 'NONE', *, *, #1214, .F. ) ;
#207 = CARTESIAN_POINT ( 'NONE',  ( -9.499999999927242200, 6.499999999999997335, 15.00000000000000000 ) ) ;
#208 = ORIENTED_EDGE ( 'NONE', *, *, #792, .T. ) ;
#209 = ADVANCED_FACE ( 'NONE', ( #439 ), #224, .T. ) ;
#210 = CARTESIAN_POINT ( 'NONE',  ( 0.000000000000000000, 8.500000000000142109, -1.600000000000000089 ) ) ;
#211 = ORIENTED_EDGE ( 'NONE', *, *, #937, .T. ) ;
#212 = PERSON_AND_ORGANIZATION_ROLE ( 'creator' ) ;
#213 = VERTEX_POINT ( 'NONE', #1211 ) ;
#214 = APPROVAL ( #1024, 'UNSPECIFIED' ) ;
#215 = VERTEX_POINT ( 'NONE', #657 ) ;
#216 = VECTOR ( 'NONE', #1342, 1000.000000000000000 ) ;
#217 = CIRCLE ( 'NONE', #1284, 1.000000000000004441 ) ;
#218 = APPLICATION_PROTOCOL_DEFINITION ( 'international standard', 'config_control_design', 1994, #288 ) ;
#219 = AXIS2_PLACEMENT_3D ( 'NONE', #935, #1274, #393 ) ;
#220 = DIRECTION ( 'NONE',  ( -1.000000000000000000, 0.000000000000000000, 0.000000000000000000 ) ) ;
#221 = ORIENTED_EDGE ( 'NONE', *, *, #223, .T. ) ;
#222 = EDGE_CURVE ( 'NONE', #138, #858, #1104, .T. ) ;
#223 = EDGE_CURVE ( 'NONE', #691, #768, #984, .T. ) ;
#224 = CYLINDRICAL_SURFACE ( 'NONE', #845, 1.000000000000004441 ) ;
#225 = DIRECTION ( 'NONE',  ( 0.000000000000000000, -1.000000000000000000, 0.000000000000000000 ) ) ;
#226 = ORIENTED_EDGE ( 'NONE', *, *, #1181, .F. ) ;
#227 = LINE ( 'NONE', #449, #486 ) ;
#228 = EDGE_CURVE ( 'NONE', #94, #691, #106, .T. ) ;
#229 = CARTESIAN_POINT ( 'NONE',  ( -14.99999999999999822, -2.499999999999988898, 15.00000000000000000 ) ) ;
#230 = CARTESIAN_POINT ( 'NONE',  ( 14.99999999876309076, -8.499999999999946709, -15.00000000000000000 ) ) ;
#231 = CC_DESIGN_SECURITY_CLASSIFICATION ( #597, ( #176 ) ) ;
#232 = EDGE_CURVE ( 'NONE', #248, #995, #772, .T. ) ;
#233 = DIRECTION ( 'NONE',  ( 1.000000000000000000, 2.885948946927879338E-14, 0.000000000000000000 ) ) ;
#234 = AXIS2_PLACEMENT_3D ( 'NONE', #1312, #339, #181 ) ;
#235 = DIRECTION ( 'NONE',  ( -0.000000000000000000, -0.000000000000000000, -1.000000000000000000 ) ) ;
#236 = VECTOR ( 'NONE', #789, 1000.000000000000000 ) ;
#237 = AXIS2_PLACEMENT_3D ( 'NONE', #380, #812, #422 ) ;
#238 = EDGE_LOOP ( 'NONE', ( #184, #98, #726, #542 ) ) ;
#239 = LINE ( 'NONE', #874, #623 ) ;
#240 = CALENDAR_DATE ( 2022, 28, 10 ) ;
#241 = CARTESIAN_POINT ( 'NONE',  ( -15.00000020682086976, 6.500000000000155431, 15.00000000000000000 ) ) ;
#242 = CARTESIAN_POINT ( 'NONE',  ( 15.00000000000000000, -7.499999999999942268, 15.00000000000000000 ) ) ;
#243 = EDGE_CURVE ( 'NONE', #99, #1265, #1368, .T. ) ;
#244 = DIRECTION ( 'NONE',  ( 0.000000000000000000, 0.000000000000000000, 1.000000000000000000 ) ) ;
#245 = DIRECTION ( 'NONE',  ( -1.000000000000000000, -2.885948946927879338E-14, -0.000000000000000000 ) ) ;
#246 = ORIENTED_EDGE ( 'NONE', *, *, #563, .T. ) ;
#247 = CARTESIAN_POINT ( 'NONE',  ( -9.499999581961899864, 1.500000000000011546, 15.00000000000000000 ) ) ;
#248 = VERTEX_POINT ( 'NONE', #360 ) ;
#249 = FACE_OUTER_BOUND ( 'NONE', #836, .T. ) ;
#250 = DIRECTION ( 'NONE',  ( 0.000000000000000000, 0.000000000000000000, 1.000000000000000000 ) ) ;
#251 = ORIENTED_EDGE ( 'NONE', *, *, #851, .T. ) ;
#252 = DIRECTION ( 'NONE',  ( -1.000000000000000000, 0.000000000000000000, 0.000000000000000000 ) ) ;
#253 = FACE_OUTER_BOUND ( 'NONE', #1245, .T. ) ;
#254 = VERTEX_POINT ( 'NONE', #814 ) ;
#255 = COORDINATED_UNIVERSAL_TIME_OFFSET ( 1, 0, .AHEAD. ) ;
#256 = CARTESIAN_POINT ( 'NONE',  ( -14.99999999999999822, 2.499999999999988898, 15.00000000000000000 ) ) ;
#257 = ORIENTED_EDGE ( 'NONE', *, *, #728, .F. ) ;
#258 = CYLINDRICAL_SURFACE ( 'NONE', #667, 1.000000000000002665 ) ;
#259 = CIRCLE ( 'NONE', #1055, 1.000000000000004441 ) ;
#260 = VECTOR ( 'NONE', #474, 1000.000000000000000 ) ;
#261 = ORIENTED_EDGE ( 'NONE', *, *, #232, .T. ) ;
#262 = ADVANCED_FACE ( 'NONE', ( #1142 ), #594, .T. ) ;
#263 = DIRECTION ( 'NONE',  ( 1.000000000000000000, -6.308085367104944732E-15, 0.000000000000000000 ) ) ;
#264 = VERTEX_POINT ( 'NONE', #905 ) ;
#265 = EDGE_CURVE ( 'NONE', #632, #195, #1030, .T. ) ;
#266 = DIRECTION ( 'NONE',  ( 0.000000000000000000, -1.000000000000000000, 0.000000000000000000 ) ) ;
#267 = VERTEX_POINT ( 'NONE', #921 ) ;
#268 = DIRECTION ( 'NONE',  ( -1.000000000000000000, 0.000000000000000000, 0.000000000000000000 ) ) ;
#269 = PLANE ( 'NONE',  #868 ) ;
#270 = EDGE_LOOP ( 'NONE', ( #531, #323, #871, #799 ) ) ;
#271 = LINE ( 'NONE', #177, #109 ) ;
#272 = DIRECTION ( 'NONE',  ( -1.000000000000000000, 0.000000000000000000, 0.000000000000000000 ) ) ;
#273 = ORIENTED_EDGE ( 'NONE', *, *, #1318, .T. ) ;
#274 = DATE_TIME_ROLE ( 'classification_date' ) ;
#275 = ORIENTED_EDGE ( 'NONE', *, *, #1006, .F. ) ;
#276 = FACE_OUTER_BOUND ( 'NONE', #385, .T. ) ;
#277 = ORIENTED_EDGE ( 'NONE', *, *, #376, .T. ) ;
#278 = CARTESIAN_POINT ( 'NONE',  ( 9.499999999927242200, 6.499999999999997335, 15.00000000000000000 ) ) ;
#279 = ORIENTED_EDGE ( 'NONE', *, *, #411, .T. ) ;
#280 = CARTESIAN_POINT ( 'NONE',  ( 9.499999999927242200, -3.500000000000024425, 15.00000000000000000 ) ) ;
#281 = DIRECTION ( 'NONE',  ( 0.000000000000000000, 0.000000000000000000, 1.000000000000000000 ) ) ;
#282 = PLANE ( 'NONE',  #914 ) ;
#283 = CARTESIAN_POINT ( 'NONE',  ( 9.499999581961899864, 1.500000000000011546, -15.00000000000000000 ) ) ;
#284 = EDGE_CURVE ( 'NONE', #1331, #720, #151, .T. ) ;
#285 = ORIENTED_EDGE ( 'NONE', *, *, #228, .F. ) ;
#286 = VECTOR ( 'NONE', #1035, 1000.000000000000000 ) ;
#287 = VECTOR ( 'NONE', #606, 1000.000000000000000 ) ;
#288 = APPLICATION_CONTEXT ( 'configuration controlled 3d designs of mechanical parts and assemblies' ) ;
#289 = VECTOR ( 'NONE', #1241, 1000.000000000000000 ) ;
#290 = VECTOR ( 'NONE', #621, 1000.000000000000000 ) ;
#291 = EDGE_LOOP ( 'NONE', ( #638, #700, #1171, #1363 ) ) ;
#292 = LINE ( 'NONE', #314, #1144 ) ;
#293 = CARTESIAN_POINT ( 'NONE',  ( 9.499999581961899864, -1.500000000000011546, 15.00000000000000000 ) ) ;
#294 = ORIENTED_EDGE ( 'NONE', *, *, #649, .F. ) ;
#295 = ADVANCED_FACE ( 'NONE', ( #713 ), #1120, .F. ) ;
#296 = ORIENTED_EDGE ( 'NONE', *, *, #1103, .F. ) ;
#297 = CARTESIAN_POINT ( 'NONE',  ( -16.00000000000000355, 7.499999999999942268, 15.00000000000000000 ) ) ;
#298 = CARTESIAN_POINT ( 'NONE',  ( 7.500000000000000000, 4.500000000000035527, -15.00000000000000000 ) ) ;
#299 = VERTEX_POINT ( 'NONE', #278 ) ;
#300 = EDGE_CURVE ( 'NONE', #865, #1362, #155, .T. ) ;
#301 = ORIENTED_EDGE ( 'NONE', *, *, #546, .T. ) ;
#302 = DIRECTION ( 'NONE',  ( -1.000000000000000000, 0.000000000000000000, 0.000000000000000000 ) ) ;
#303 = LINE ( 'NONE', #1152, #529 ) ;
#304 = DIRECTION ( 'NONE',  ( 0.000000000000000000, -1.000000000000000000, 0.000000000000000000 ) ) ;
#305 = ORIENTED_EDGE ( 'NONE', *, *, #540, .T. ) ;
#306 = VECTOR ( 'NONE', #724, 1000.000000000000000 ) ;
#307 = ORIENTED_EDGE ( 'NONE', *, *, #338, .F. ) ;
#308 = VECTOR ( 'NONE', #324, 1000.000000000000000 ) ;
#309 = VECTOR ( 'NONE', #501, 1000.000000000000000 ) ;
#310 = EDGE_CURVE ( 'NONE', #691, #732, #579, .T. ) ;
#311 = CARTESIAN_POINT ( 'NONE',  ( 14.99999999999999822, -1.499999999999984901, 15.00000000000000000 ) ) ;
#312 = ORIENTED_EDGE ( 'NONE', *, *, #856, .F. ) ;
#313 = ORIENTED_EDGE ( 'NONE', *, *, #426, .F. ) ;
#314 = CARTESIAN_POINT ( 'NONE',  ( 7.500000000000000000, 4.500000000000035527, 15.00000000000000000 ) ) ;
#315 = APPROVAL_STATUS ( 'not_yet_approved' ) ;
#316 = APPROVAL ( #545, 'UNSPECIFIED' ) ;
#317 = ORIENTED_EDGE ( 'NONE', *, *, #879, .T. ) ;
#318 = ORIENTED_EDGE ( 'NONE', *, *, #97, .T. ) ;
#319 = CARTESIAN_POINT ( 'NONE',  ( 9.499999581961899864, 1.500000000000011546, 15.00000000000000000 ) ) ;
#320 = DIRECTION ( 'NONE',  ( -0.000000000000000000, -0.000000000000000000, -1.000000000000000000 ) ) ;
#321 = DIRECTION ( 'NONE',  ( 0.000000000000000000, 0.000000000000000000, 1.000000000000000000 ) ) ;
#322 = EDGE_CURVE ( 'NONE', #1362, #428, #259, .T. ) ;
#323 = ORIENTED_EDGE ( 'NONE', *, *, #448, .F. ) ;
#324 = DIRECTION ( 'NONE',  ( 0.000000000000000000, -1.000000000000000000, 0.000000000000000000 ) ) ;
#325 = APPROVAL_PERSON_ORGANIZATION ( #1200, #816, #115 ) ;
#326 = VECTOR ( 'NONE', #997, 1000.000000000000000 ) ;
#327 = AXIS2_PLACEMENT_3D ( 'NONE', #27, #1008, #43 ) ;
#328 = DIRECTION ( 'NONE',  ( 0.000000000000000000, 1.000000000000000000, 0.000000000000000000 ) ) ;
#329 = LINE ( 'NONE', #559, #954 ) ;
#330 = AXIS2_PLACEMENT_3D ( 'NONE', #342, #547, #1295 ) ;
#331 = DIRECTION ( 'NONE',  ( 1.000000000000000000, 3.548297749348261168E-16, 0.000000000000000000 ) ) ;
#332 = ORIENTED_EDGE ( 'NONE', *, *, #376, .F. ) ;
#333 = EDGE_CURVE ( 'NONE', #1063, #1331, #456, .T. ) ;
#334 = DIRECTION ( 'NONE',  ( -0.000000000000000000, -0.000000000000000000, -1.000000000000000000 ) ) ;
#335 = DIRECTION ( 'NONE',  ( -1.000000000000000000, 0.000000000000000000, 0.000000000000000000 ) ) ;
#336 = COORDINATED_UNIVERSAL_TIME_OFFSET ( 1, 0, .AHEAD. ) ;
#337 = CARTESIAN_POINT ( 'NONE',  ( -9.499999999927242200, -6.499999999999997335, 15.00000000000000000 ) ) ;
#338 = EDGE_CURVE ( 'NONE', #366, #660, #1223, .T. ) ;
#339 = DIRECTION ( 'NONE',  ( 0.000000000000000000, 0.000000000000000000, 1.000000000000000000 ) ) ;
#340 = CARTESIAN_POINT ( 'NONE',  ( 7.500000000000000000, -8.500000000000040856, -15.00000000000000000 ) ) ;
#341 = CARTESIAN_POINT ( 'NONE',  ( 9.499999999927242200, -6.499999999999997335, -15.00000000000000000 ) ) ;
#342 = CARTESIAN_POINT ( 'NONE',  ( 14.99999999876309076, 8.500000000000142109, 15.00000000000000000 ) ) ;
#343 = PLANE ( 'NONE',  #740 ) ;
#344 = LINE ( 'NONE', #562, #1279 ) ;
#345 = ORIENTED_EDGE ( 'NONE', *, *, #30, .F. ) ;
#346 = DIRECTION ( 'NONE',  ( -0.000000000000000000, -1.000000000000000000, -0.000000000000000000 ) ) ;
#347 = LOCAL_TIME ( 14, 14, 16.00000000000000000, #255 ) ;
#348 = DATE_AND_TIME ( #692, #1141 ) ;
#349 = DIRECTION ( 'NONE',  ( -0.000000000000000000, -0.000000000000000000, -1.000000000000000000 ) ) ;
#350 = VECTOR ( 'NONE', #401, 1000.000000000000000 ) ;
#351 = EDGE_CURVE ( 'NONE', #610, #922, #892, .T. ) ;
#352 = CARTESIAN_POINT ( 'NONE',  ( -14.99999999999999822, 3.499999999999991118, -15.00000000000000000 ) ) ;
#353 = CARTESIAN_POINT ( 'NONE',  ( 14.99999999999999822, 3.499999999999989786, -15.00000000000000000 ) ) ;
#354 = ORIENTED_EDGE ( 'NONE', *, *, #20, .T. ) ;
#355 = DIRECTION ( 'NONE',  ( -6.308085367104944732E-15, -1.000000000000000000, 0.000000000000000000 ) ) ;
#356 = ORIENTED_EDGE ( 'NONE', *, *, #520, .T. ) ;
#357 = CARTESIAN_POINT ( 'NONE',  ( -15.00000020682086976, -6.500000000000155431, 15.00000000000000000 ) ) ;
#358 = PLANE ( 'NONE',  #1371 ) ;
#359 = ORIENTED_EDGE ( 'NONE', *, *, #540, .F. ) ;
#360 = CARTESIAN_POINT ( 'NONE',  ( -7.500000000000000000, 4.500000000000035527, 15.00000000000000000 ) ) ;
#361 = ORIENTED_EDGE ( 'NONE', *, *, #1064, .F. ) ;
#362 = DIRECTION ( 'NONE',  ( -1.000000000000000000, 6.308085367104944732E-15, -0.000000000000000000 ) ) ;
#363 = DIRECTION ( 'NONE',  ( -0.000000000000000000, 1.000000000000000000, -0.000000000000000000 ) ) ;
#364 = DIRECTION ( 'NONE',  ( -0.000000000000000000, -0.000000000000000000, -1.000000000000000000 ) ) ;
#365 = ADVANCED_FACE ( 'NONE', ( #253 ), #800, .F. ) ;
#366 = VERTEX_POINT ( 'NONE', #40 ) ;
#367 = EDGE_CURVE ( 'NONE', #732, #813, #384, .T. ) ;
#368 = DIRECTION ( 'NONE',  ( -1.000000000000000000, 0.000000000000000000, 0.000000000000000000 ) ) ;
#369 = ORIENTED_EDGE ( 'NONE', *, *, #284, .T. ) ;
#370 = LINE ( 'NONE', #1025, #260 ) ;
#371 = ORIENTED_EDGE ( 'NONE', *, *, #1271, .T. ) ;
#372 = FACE_OUTER_BOUND ( 'NONE', #291, .T. ) ;
#373 = VECTOR ( 'NONE', #991, 1000.000000000000000 ) ;
#374 = AXIS2_PLACEMENT_3D ( 'NONE', #974, #1199, #1185 ) ;
#375 = AXIS2_PLACEMENT_3D ( 'NONE', #994, #1172, #447 ) ;
#376 = EDGE_CURVE ( 'NONE', #215, #254, #698, .T. ) ;
#377 = CARTESIAN_POINT ( 'NONE',  ( -15.00000020682086976, -6.500000000000155431, 15.00000000000000000 ) ) ;
#378 = VERTEX_POINT ( 'NONE', #912 ) ;
#379 = ORIENTED_EDGE ( 'NONE', *, *, #699, .T. ) ;
#380 = CARTESIAN_POINT ( 'NONE',  ( 9.499999999927242200, -3.500000000000024425, 15.00000000000000000 ) ) ;
#381 = ORIENTED_EDGE ( 'NONE', *, *, #404, .T. ) ;
#382 = FACE_OUTER_BOUND ( 'NONE', #844, .T. ) ;
#383 = EDGE_CURVE ( 'NONE', #736, #865, #69, .T. ) ;
#384 = LINE ( 'NONE', #1022, #511 ) ;
#385 = EDGE_LOOP ( 'NONE', ( #70, #811, #714, #755 ) ) ;
#386 = LINE ( 'NONE', #280, #959 ) ;
#387 = EDGE_LOOP ( 'NONE', ( #640, #1031, #1160, #123 ) ) ;
#388 = FACE_OUTER_BOUND ( 'NONE', #526, .T. ) ;
#389 = DIRECTION ( 'NONE',  ( 1.000000000000000000, 0.000000000000000000, 0.000000000000000000 ) ) ;
#390 = ORIENTED_EDGE ( 'NONE', *, *, #910, .F. ) ;
#391 = VERTEX_POINT ( 'NONE', #808 ) ;
#392 = VERTEX_POINT ( 'NONE', #1244 ) ;
#393 = DIRECTION ( 'NONE',  ( 1.000000000000000000, 0.000000000000000000, 0.000000000000000000 ) ) ;
#394 = EDGE_CURVE ( 'NONE', #571, #430, #981, .T. ) ;
#395 = ORIENTED_EDGE ( 'NONE', *, *, #771, .T. ) ;
#396 = AXIS2_PLACEMENT_3D ( 'NONE', #1307, #133, #1078 ) ;
#397 = VECTOR ( 'NONE', #424, 1000.000000000000000 ) ;
#398 = VECTOR ( 'NONE', #320, 1000.000000000000000 ) ;
#399 = ORIENTED_EDGE ( 'NONE', *, *, #448, .T. ) ;
#400 = FACE_OUTER_BOUND ( 'NONE', #1237, .T. ) ;
#401 = DIRECTION ( 'NONE',  ( -1.000000000000000000, -3.548297749348260675E-16, -0.000000000000000000 ) ) ;
#402 = DIRECTION ( 'NONE',  ( -0.000000000000000000, -0.000000000000000000, -1.000000000000000000 ) ) ;
#403 = ORIENTED_EDGE ( 'NONE', *, *, #1103, .T. ) ;
#404 = EDGE_CURVE ( 'NONE', #378, #736, #146, .T. ) ;
#405 = DIRECTION ( 'NONE',  ( -1.000000000000000000, 2.885948946927879338E-14, 0.000000000000000000 ) ) ;
#406 = ORIENTED_EDGE ( 'NONE', *, *, #689, .F. ) ;
#407 = CARTESIAN_POINT ( 'NONE',  ( -15.00000000000000000, 7.499999999999942268, 15.00000000000000000 ) ) ;
#408 = DIRECTION ( 'NONE',  ( 1.000000000000000000, 0.000000000000000000, 0.000000000000000000 ) ) ;
#409 = PLANE ( 'NONE',  #1071 ) ;
#410 = ORIENTED_EDGE ( 'NONE', *, *, #1016, .F. ) ;
#411 = EDGE_CURVE ( 'NONE', #75, #53, #1314, .T. ) ;
#412 = EDGE_CURVE ( 'NONE', #215, #138, #1017, .T. ) ;
#413 = ORIENTED_EDGE ( 'NONE', *, *, #145, .T. ) ;
#414 = DIRECTION ( 'NONE',  ( -0.000000000000000000, 0.000000000000000000, -1.000000000000000000 ) ) ;
#415 = ORIENTED_EDGE ( 'NONE', *, *, #1318, .F. ) ;
#416 = AXIS2_PLACEMENT_3D ( 'NONE', #590, #1365, #1026 ) ;
#417 = ORIENTED_EDGE ( 'NONE', *, *, #1384, .T. ) ;
#418 = VECTOR ( 'NONE', #1203, 1000.000000000000000 ) ;
#419 = EDGE_CURVE ( 'NONE', #191, #1378, #565, .T. ) ;
#420 = VECTOR ( 'NONE', #1027, 1000.000000000000000 ) ;
#421 = CARTESIAN_POINT ( 'NONE',  ( -14.99999999999999822, -1.499999999999984901, 15.00000000000000000 ) ) ;
#422 = DIRECTION ( 'NONE',  ( -1.000000000000000000, -6.308085367104944732E-15, 0.000000000000000000 ) ) ;
#423 = EDGE_LOOP ( 'NONE', ( #1272, #635, #1129, #443 ) ) ;
#424 = DIRECTION ( 'NONE',  ( -0.000000000000000000, -0.000000000000000000, -1.000000000000000000 ) ) ;
#425 = ORIENTED_EDGE ( 'NONE', *, *, #1092, .T. ) ;
#426 = EDGE_CURVE ( 'NONE', #695, #964, #466, .T. ) ;
#427 = CYLINDRICAL_SURFACE ( 'NONE', #131, 1.000000000000002665 ) ;
#428 = VERTEX_POINT ( 'NONE', #1130 ) ;
#429 = PLANE ( 'NONE',  #513 ) ;
#430 = VERTEX_POINT ( 'NONE', #701 ) ;
#431 = CARTESIAN_POINT ( 'NONE',  ( -9.499999581961899864, -1.499999999999982903, 15.00000000000000000 ) ) ;
#432 = CALENDAR_DATE ( 2022, 28, 10 ) ;
#433 = CARTESIAN_POINT ( 'NONE',  ( -9.499999999927242200, 6.499999999999997335, 15.00000000000000000 ) ) ;
#434 = ORIENTED_EDGE ( 'NONE', *, *, #24, .F. ) ;
#435 = EDGE_CURVE ( 'NONE', #102, #929, #52, .T. ) ;
#436 = DIRECTION ( 'NONE',  ( -4.849340257442623366E-15, 1.000000000000000000, 0.000000000000000000 ) ) ;
#437 = VECTOR ( 'NONE', #245, 1000.000000000000000 ) ;
#438 = AXIS2_PLACEMENT_3D ( 'NONE', #1259, #1251, #596 ) ;
#439 = FACE_OUTER_BOUND ( 'NONE', #169, .T. ) ;
#440 = DIRECTION ( 'NONE',  ( -1.000000000000000000, -3.548297749348260675E-16, -0.000000000000000000 ) ) ;
#441 = VECTOR ( 'NONE', #1315, 1000.000000000000000 ) ;
#442 = CARTESIAN_POINT ( 'NONE',  ( -15.00000020682086976, 6.500000000000155431, 15.00000000000000000 ) ) ;
#443 = ORIENTED_EDGE ( 'NONE', *, *, #733, .T. ) ;
#444 = EDGE_CURVE ( 'NONE', #378, #105, #370, .T. ) ;
#445 = CARTESIAN_POINT ( 'NONE',  ( 15.00000000000000000, -7.499999999999942268, -15.00000000000000000 ) ) ;
#446 = DIRECTION ( 'NONE',  ( -0.000000000000000000, -0.000000000000000000, -1.000000000000000000 ) ) ;
#447 = DIRECTION ( 'NONE',  ( -1.000000000000000000, 0.000000000000000000, 0.000000000000000000 ) ) ;
#448 = EDGE_CURVE ( 'NONE', #213, #267, #669, .T. ) ;
#449 = CARTESIAN_POINT ( 'NONE',  ( 7.500000000000000000, -8.500000000000040856, -15.00000000000000000 ) ) ;
#450 = LINE ( 'NONE', #884, #1073 ) ;
#451 = CARTESIAN_POINT ( 'NONE',  ( -15.00000020682086976, 6.500000000000155431, -15.00000000000000000 ) ) ;
#452 = EDGE_LOOP ( 'NONE', ( #707, #828, #294, #834 ) ) ;
#453 = CARTESIAN_POINT ( 'NONE',  ( -9.499999999927242200, 6.499999999999997335, -15.00000000000000000 ) ) ;
#454 = CC_DESIGN_PERSON_AND_ORGANIZATION_ASSIGNMENT ( #643, #108, ( #597 ) ) ;
#455 = AXIS2_PLACEMENT_3D ( 'NONE', #516, #194, #944 ) ;
#456 = CIRCLE ( 'NONE', #1257, 1.000000000000002665 ) ;
#457 = CARTESIAN_POINT ( 'NONE',  ( 14.99999999999999822, 1.499999999999984901, -15.00000000000000000 ) ) ;
#458 = LINE ( 'NONE', #72, #1390 ) ;
#459 = CIRCLE ( 'NONE', #982, 1.000000000000004441 ) ;
#460 = DIRECTION ( 'NONE',  ( 0.000000000000000000, 1.000000000000000000, 0.000000000000000000 ) ) ;
#461 = VERTEX_POINT ( 'NONE', #59 ) ;
#462 = DIRECTION ( 'NONE',  ( 0.000000000000000000, 0.000000000000000000, 1.000000000000000000 ) ) ;
#463 = ORIENTED_EDGE ( 'NONE', *, *, #1085, .F. ) ;
#464 = COORDINATED_UNIVERSAL_TIME_OFFSET ( 1, 0, .AHEAD. ) ;
#465 = EDGE_CURVE ( 'NONE', #919, #849, #999, .T. ) ;
#466 = LINE ( 'NONE', #241, #236 ) ;
#467 = DIRECTION ( 'NONE',  ( 1.000000000000000000, -2.885948946927879338E-14, 0.000000000000000000 ) ) ;
#468 = CARTESIAN_POINT ( 'NONE',  ( 15.00000000000000000, 7.499999999999942268, -15.00000000000000000 ) ) ;
#469 = DIRECTION ( 'NONE',  ( 1.000000000000000000, 0.000000000000000000, -0.000000000000000000 ) ) ;
#470 = ADVANCED_FACE ( 'NONE', ( #992 ), #1328, .F. ) ;
#471 = CARTESIAN_POINT ( 'NONE',  ( 15.00000020682086976, 6.499999999999960032, 15.00000000000000000 ) ) ;
#472 = CARTESIAN_POINT ( 'NONE',  ( 14.99999999876309076, 8.500000000000142109, 15.00000000000000000 ) ) ;
#473 = VERTEX_POINT ( 'NONE', #341 ) ;
#474 = DIRECTION ( 'NONE',  ( -0.000000000000000000, -0.000000000000000000, -1.000000000000000000 ) ) ;
#475 = ORIENTED_EDGE ( 'NONE', *, *, #1149, .T. ) ;
#476 = PLANE ( 'NONE',  #1325 ) ;
#477 = LINE ( 'NONE', #48, #289 ) ;
#478 = EDGE_CURVE ( 'NONE', #660, #1081, #778, .T. ) ;
#479 = DIRECTION ( 'NONE',  ( -1.000000000000000000, 0.000000000000000000, 0.000000000000000000 ) ) ;
#480 = ORIENTED_EDGE ( 'NONE', *, *, #1092, .F. ) ;
#481 = DIRECTION ( 'NONE',  ( 1.000000000000000000, -4.849340257442623366E-15, -0.000000000000000000 ) ) ;
#482 = AXIS2_PLACEMENT_3D ( 'NONE', #1115, #1125, #1107 ) ;
#483 = CARTESIAN_POINT ( 'NONE',  ( 9.499999999927242200, 3.500000000000024425, -15.00000000000000000 ) ) ;
#484 = PLANE ( 'NONE',  #237 ) ;
#485 = APPROVAL_PERSON_ORGANIZATION ( #1112, #214, #1334 ) ;
#486 = VECTOR ( 'NONE', #346, 1000.000000000000000 ) ;
#487 = CARTESIAN_POINT ( 'NONE',  ( 9.499999999927242200, -3.500000000000024425, -15.00000000000000000 ) ) ;
#488 = CARTESIAN_POINT ( 'NONE',  ( -9.499999999927242200, -6.499999999999997335, 15.00000000000000000 ) ) ;
#489 = EDGE_LOOP ( 'NONE', ( #4, #706, #924, #1357 ) ) ;
#490 = AXIS2_PLACEMENT_3D ( 'NONE', #967, #160, #389 ) ;
#491 = EDGE_CURVE ( 'NONE', #1059, #922, #1100, .T. ) ;
#492 = CARTESIAN_POINT ( 'NONE',  ( -9.499999581961899864, 1.500000000000011546, 15.00000000000000000 ) ) ;
#493 = ORIENTED_EDGE ( 'NONE', *, *, #223, .F. ) ;
#494 = DIRECTION ( 'NONE',  ( -1.000000000000000000, 0.000000000000000000, 0.000000000000000000 ) ) ;
#495 = CARTESIAN_POINT ( 'NONE',  ( -9.499999999927242200, -3.500000000000024425, 15.00000000000000000 ) ) ;
#496 = ORIENTED_EDGE ( 'NONE', *, *, #856, .T. ) ;
#497 = ORIENTED_EDGE ( 'NONE', *, *, #951, .T. ) ;
#498 = EDGE_CURVE ( 'NONE', #461, #81, #781, .T. ) ;
#499 = ORIENTED_EDGE ( 'NONE', *, *, #351, .T. ) ;
#500 = CARTESIAN_POINT ( 'NONE',  ( -7.500000000000000000, 4.500000000000035527, 15.00000000000000000 ) ) ;
#501 = DIRECTION ( 'NONE',  ( -0.000000000000000000, -0.000000000000000000, -1.000000000000000000 ) ) ;
#502 = ORIENTED_EDGE ( 'NONE', *, *, #24, .T. ) ;
#503 = DIRECTION ( 'NONE',  ( 0.000000000000000000, -1.000000000000000000, 0.000000000000000000 ) ) ;
#504 = DIRECTION ( 'NONE',  ( -1.000000000000000000, 0.000000000000000000, 0.000000000000000000 ) ) ;
#505 = ORIENTED_EDGE ( 'NONE', *, *, #968, .F. ) ;
#506 = ADVANCED_FACE ( 'NONE', ( #148 ), #573, .F. ) ;
#507 = DIRECTION ( 'NONE',  ( 0.000000000000000000, 0.000000000000000000, -1.000000000000000000 ) ) ;
#508 = DIRECTION ( 'NONE',  ( -1.000000000000000000, 2.885948946927879338E-14, 0.000000000000000000 ) ) ;
#509 = ORIENTED_EDGE ( 'NONE', *, *, #864, .F. ) ;
#510 = AXIS2_PLACEMENT_3D ( 'NONE', #535, #758, #1186 ) ;
#511 = VECTOR ( 'NONE', #272, 1000.000000000000000 ) ;
#512 = CYLINDRICAL_SURFACE ( 'NONE', #625, 1.000000000000004441 ) ;
#513 = AXIS2_PLACEMENT_3D ( 'NONE', #11, #436, #578 ) ;
#514 = ORIENTED_EDGE ( 'NONE', *, *, #175, .F. ) ;
#515 = FACE_OUTER_BOUND ( 'NONE', #1218, .T. ) ;
#516 = CARTESIAN_POINT ( 'NONE',  ( -15.00000000000000000, -7.499999999999942268, 15.00000000000000000 ) ) ;
#517 = EDGE_CURVE ( 'NONE', #571, #1262, #450, .T. ) ;
#518 = CARTESIAN_POINT ( 'NONE',  ( -9.499999999927242200, -6.499999999999997335, 15.00000000000000000 ) ) ;
#519 = ORIENTED_EDGE ( 'NONE', *, *, #1375, .F. ) ;
#520 = EDGE_CURVE ( 'NONE', #171, #660, #1335, .T. ) ;
#521 = FACE_OUTER_BOUND ( 'NONE', #489, .T. ) ;
#522 = ORIENTED_EDGE ( 'NONE', *, *, #310, .T. ) ;
#523 = DIRECTION ( 'NONE',  ( 0.000000000000000000, 1.000000000000000000, 0.000000000000000000 ) ) ;
#524 = UNCERTAINTY_MEASURE_WITH_UNIT (LENGTH_MEASURE( 1.000000000000000082E-05 ), #777, 'distance_accuracy_value', 'NONE');
#525 = ORIENTED_EDGE ( 'NONE', *, *, #130, .F. ) ;
#526 = EDGE_LOOP ( 'NONE', ( #945, #898, #88, #182 ) ) ;
#527 = DIRECTION ( 'NONE',  ( 1.000000000000000000, 4.849340257442623366E-15, 0.000000000000000000 ) ) ;
#528 = VERTEX_POINT ( 'NONE', #1212 ) ;
#529 = VECTOR ( 'NONE', #833, 1000.000000000000000 ) ;
#530 = VECTOR ( 'NONE', #107, 1000.000000000000000 ) ;
#531 = ORIENTED_EDGE ( 'NONE', *, *, #44, .F. ) ;
#532 = AXIS2_PLACEMENT_3D ( 'NONE', #142, #797, #1226 ) ;
#533 = VECTOR ( 'NONE', #1000, 1000.000000000000000 ) ;
#534 = DIRECTION ( 'NONE',  ( 0.000000000000000000, 0.000000000000000000, 1.000000000000000000 ) ) ;
#535 = CARTESIAN_POINT ( 'NONE',  ( 0.000000000000000000, 0.000000000000000000, 0.000000000000000000 ) ) ;
#536 = CARTESIAN_POINT ( 'NONE',  ( 7.500000000000000000, 4.500000000000035527, 15.00000000000000000 ) ) ;
#537 = ORIENTED_EDGE ( 'NONE', *, *, #656, .T. ) ;
#538 = EDGE_LOOP ( 'NONE', ( #939, #165, #6, #752 ) ) ;
#539 = DIRECTION ( 'NONE',  ( -0.000000000000000000, 1.000000000000000000, -0.000000000000000000 ) ) ;
#540 = EDGE_CURVE ( 'NONE', #1265, #264, #907, .T. ) ;
#541 = CARTESIAN_POINT ( 'NONE',  ( -14.99999999999999822, 1.499999999999984901, -15.00000000000000000 ) ) ;
#542 = ORIENTED_EDGE ( 'NONE', *, *, #920, .T. ) ;
#543 = LINE ( 'NONE', #1209, #308 ) ;
#544 = CYLINDRICAL_SURFACE ( 'NONE', #374, 1.000000000000002665 ) ;
#545 = APPROVAL_STATUS ( 'not_yet_approved' ) ;
#546 = EDGE_CURVE ( 'NONE', #391, #1262, #1034, .T. ) ;
#547 = DIRECTION ( 'NONE',  ( 0.000000000000000000, -1.000000000000000000, 0.000000000000000000 ) ) ;
#548 = ORIENTED_EDGE ( 'NONE', *, *, #517, .T. ) ;
#549 = LOCAL_TIME ( 14, 14, 16.00000000000000000, #26 ) ;
#550 = AXIS2_PLACEMENT_3D ( 'NONE', #357, #1113, #233 ) ;
#551 = DIRECTION ( 'NONE',  ( 1.000000000000000000, 4.849340257442623366E-15, 0.000000000000000000 ) ) ;
#552 = PERSON_AND_ORGANIZATION ( #627, #1162 ) ;
#553 = VECTOR ( 'NONE', #1080, 1000.000000000000000 ) ;
#554 = FACE_OUTER_BOUND ( 'NONE', #1046, .T. ) ;
#555 = DIRECTION ( 'NONE',  ( 1.000000000000000000, 0.000000000000000000, 0.000000000000000000 ) ) ;
#556 = EDGE_CURVE ( 'NONE', #267, #102, #1350, .T. ) ;
#557 = CYLINDRICAL_SURFACE ( 'NONE', #826, 1.000000000000002665 ) ;
#558 = CARTESIAN_POINT ( 'NONE',  ( -9.499999581961899864, -1.499999999999982903, 15.00000000000000000 ) ) ;
#559 = CARTESIAN_POINT ( 'NONE',  ( -7.500000000000000000, -8.500000000000040856, 15.00000000000000000 ) ) ;
#560 = DIRECTION ( 'NONE',  ( 0.000000000000000000, 0.000000000000000000, 1.000000000000000000 ) ) ;
#561 = LINE ( 'NONE', #786, #111 ) ;
#562 = CARTESIAN_POINT ( 'NONE',  ( -14.99999999999999822, -1.499999999999986455, 15.00000000000000000 ) ) ;
#563 = EDGE_CURVE ( 'NONE', #195, #964, #459, .T. ) ;
#564 = DIRECTION ( 'NONE',  ( -1.000000000000000000, 0.000000000000000000, 0.000000000000000000 ) ) ;
#565 = LINE ( 'NONE', #685, #1145 ) ;
#566 = CARTESIAN_POINT ( 'NONE',  ( -16.00000000000000355, -7.499999999999942268, 15.00000000000000000 ) ) ;
#567 = DIRECTION ( 'NONE',  ( 1.000000000000000000, 0.000000000000000000, 0.000000000000000000 ) ) ;
#568 = CARTESIAN_POINT ( 'NONE',  ( -15.00000020682086976, 6.500000000000155431, 15.00000000000000000 ) ) ;
#569 = ADVANCED_FACE ( 'NONE', ( #382 ), #712, .F. ) ;
#570 = CARTESIAN_POINT ( 'NONE',  ( -9.499999999927242200, -6.499999999999997335, 15.00000000000000000 ) ) ;
#571 = VERTEX_POINT ( 'NONE', #210 ) ;
#572 = AXIS2_PLACEMENT_3D ( 'NONE', #690, #462, #1249 ) ;
#573 = PLANE ( 'NONE',  #327 ) ;
#574 = VECTOR ( 'NONE', #581, 1000.000000000000000 ) ;
#575 = ORIENTED_EDGE ( 'NONE', *, *, #383, .T. ) ;
#576 = LINE ( 'NONE', #1010, #180 ) ;
#577 = AXIS2_PLACEMENT_3D ( 'NONE', #207, #636, #414 ) ;
#578 = DIRECTION ( 'NONE',  ( -1.000000000000000000, -4.849340257442623366E-15, 0.000000000000000000 ) ) ;
#579 = LINE ( 'NONE', #472, #889 ) ;
#580 = EDGE_LOOP ( 'NONE', ( #502, #603, #1007, #251 ) ) ;
#581 = DIRECTION ( 'NONE',  ( -0.000000000000000000, -0.000000000000000000, -1.000000000000000000 ) ) ;
#582 = ADVANCED_FACE ( 'NONE', ( #5 ), #429, .F. ) ;
#583 = VERTEX_POINT ( 'NONE', #487 ) ;
#584 = DIRECTION ( 'NONE',  ( -1.000000000000000000, 6.308085367104944732E-15, 0.000000000000000000 ) ) ;
#585 = CARTESIAN_POINT ( 'NONE',  ( -7.500000000000000000, 4.500000000000035527, -15.00000000000000000 ) ) ;
#586 = DIRECTION ( 'NONE',  ( -0.000000000000000000, -0.000000000000000000, -1.000000000000000000 ) ) ;
#587 = CARTESIAN_POINT ( 'NONE',  ( -15.00000020682086976, -6.499999999999960032, 15.00000000000000000 ) ) ;
#588 = ORIENTED_EDGE ( 'NONE', *, *, #753, .F. ) ;
#589 = CARTESIAN_POINT ( 'NONE',  ( -14.99999999999999822, 2.499999999999988898, 15.00000000000000000 ) ) ;
#590 = CARTESIAN_POINT ( 'NONE',  ( -15.00000000000000000, 7.499999999999942268, 15.00000000000000000 ) ) ;
#591 = DIRECTION ( 'NONE',  ( 1.000000000000000000, 2.885948946927879338E-14, -0.000000000000000000 ) ) ;
#592 = LINE ( 'NONE', #820, #309 ) ;
#593 = DIRECTION ( 'NONE',  ( 1.000000000000000000, 6.308085367104944732E-15, 0.000000000000000000 ) ) ;
#594 = CYLINDRICAL_SURFACE ( 'NONE', #1163, 1.000000000000004441 ) ;
#595 = ORIENTED_EDGE ( 'NONE', *, *, #465, .F. ) ;
#596 = DIRECTION ( 'NONE',  ( 0.000000000000000000, 0.000000000000000000, 1.000000000000000000 ) ) ;
#597 = SECURITY_CLASSIFICATION ( '', '', #751 ) ;
#598 = DIRECTION ( 'NONE',  ( 0.000000000000000000, 0.000000000000000000, 1.000000000000000000 ) ) ;
#599 = LINE ( 'NONE', #790, #722 ) ;
#600 = VECTOR ( 'NONE', #21, 1000.000000000000000 ) ;
#601 = FACE_OUTER_BOUND ( 'NONE', #804, .T. ) ;
#602 = VECTOR ( 'NONE', #1386, 1000.000000000000000 ) ;
#603 = ORIENTED_EDGE ( 'NONE', *, *, #927, .F. ) ;
#604 = VECTOR ( 'NONE', #1337, 1000.000000000000000 ) ;
#605 = EDGE_CURVE ( 'NONE', #1081, #932, #694, .T. ) ;
#606 = DIRECTION ( 'NONE',  ( -0.000000000000000000, -0.000000000000000000, -1.000000000000000000 ) ) ;
#607 = VERTEX_POINT ( 'NONE', #353 ) ;
#608 = ORIENTED_EDGE ( 'NONE', *, *, #617, .T. ) ;
#609 = DIRECTION ( 'NONE',  ( -0.000000000000000000, -0.000000000000000000, -1.000000000000000000 ) ) ;
#610 = VERTEX_POINT ( 'NONE', #897 ) ;
#611 = ADVANCED_FACE ( 'NONE', ( #62 ), #47, .T. ) ;
#612 = EDGE_LOOP ( 'NONE', ( #1277, #198, #878, #356 ) ) ;
#613 = CYLINDRICAL_SURFACE ( 'NONE', #455, 1.000000000000004441 ) ;
#614 = CARTESIAN_POINT ( 'NONE',  ( -15.00000020682086976, -6.499999999999960032, 15.00000000000000000 ) ) ;
#615 = VERTEX_POINT ( 'NONE', #585 ) ;
#616 = CARTESIAN_POINT ( 'NONE',  ( 14.99999999876309076, 8.500000000000142109, 15.00000000000000000 ) ) ;
#617 = EDGE_CURVE ( 'NONE', #99, #849, #923, .T. ) ;
#618 = ORIENTED_EDGE ( 'NONE', *, *, #1306, .T. ) ;
#619 = CARTESIAN_POINT ( 'NONE',  ( 7.500000000000000000, -8.500000000000040856, 15.00000000000000000 ) ) ;
#620 = ADVANCED_FACE ( 'NONE', ( #400 ), #1364, .F. ) ;
#621 = DIRECTION ( 'NONE',  ( -1.000000000000000000, -4.849340257442623366E-15, 0.000000000000000000 ) ) ;
#622 = ORIENTED_EDGE ( 'NONE', *, *, #1263, .F. ) ;
#623 = VECTOR ( 'NONE', #969, 1000.000000000000000 ) ;
#624 = LINE ( 'NONE', #1169, #719 ) ;
#625 = AXIS2_PLACEMENT_3D ( 'NONE', #829, #1158, #846 ) ;
#626 = VECTOR ( 'NONE', #1228, 1000.000000000000000 ) ;
#627 = PERSON ( 'UNSPECIFIED', 'UNSPECIFIED', 'UNSPECIFIED', ('UNSPECIFIED'), ('UNSPECIFIED'), ('UNSPECIFIED') ) ;
#628 = EDGE_LOOP ( 'NONE', ( #317, #463, #71, #608 ) ) ;
#629 = CARTESIAN_POINT ( 'NONE',  ( 15.00000020682086976, -6.500000000000155431, 15.00000000000000000 ) ) ;
#630 = CARTESIAN_POINT ( 'NONE',  ( 0.000000000000000000, 8.500000000000142109, 0.000000000000000000 ) ) ;
#631 = EDGE_CURVE ( 'NONE', #1248, #941, #67, .T. ) ;
#632 = VERTEX_POINT ( 'NONE', #297 ) ;
#633 = CARTESIAN_POINT ( 'NONE',  ( 14.99999999876309076, -8.499999999999946709, 15.00000000000000000 ) ) ;
#634 = CARTESIAN_POINT ( 'NONE',  ( 14.99999999999999822, -1.499999999999984901, 15.00000000000000000 ) ) ;
#635 = ORIENTED_EDGE ( 'NONE', *, *, #104, .F. ) ;
#636 = DIRECTION ( 'NONE',  ( 1.000000000000000000, 0.000000000000000000, -0.000000000000000000 ) ) ;
#637 = ADVANCED_FACE ( 'NONE', ( #515 ), #942, .T. ) ;
#638 = ORIENTED_EDGE ( 'NONE', *, *, #465, .T. ) ;
#639 = CARTESIAN_POINT ( 'NONE',  ( -15.00000020682086976, 6.500000000000155431, 15.00000000000000000 ) ) ;
#640 = ORIENTED_EDGE ( 'NONE', *, *, #137, .T. ) ;
#641 = CARTESIAN_POINT ( 'NONE',  ( 15.00000020682086976, -6.500000000000155431, 15.00000000000000000 ) ) ;
#642 = DIRECTION ( 'NONE',  ( 0.000000000000000000, -1.000000000000000000, 0.000000000000000000 ) ) ;
#643 = PERSON_AND_ORGANIZATION ( #627, #1162 ) ;
#644 = CARTESIAN_POINT ( 'NONE',  ( -9.499999581961899864, -1.499999999999982903, -15.00000000000000000 ) ) ;
#645 = EDGE_LOOP ( 'NONE', ( #403, #972, #977, #17 ) ) ;
#646 = CARTESIAN_POINT ( 'NONE',  ( 9.499999999927242200, -6.499999999999997335, -15.00000000000000000 ) ) ;
#647 = VECTOR ( 'NONE', #1298, 1000.000000000000000 ) ;
#648 = VECTOR ( 'NONE', #503, 1000.000000000000000 ) ;
#649 = EDGE_CURVE ( 'NONE', #676, #75, #734, .T. ) ;
#650 = ORIENTED_EDGE ( 'NONE', *, *, #556, .T. ) ;
#651 = CIRCLE ( 'NONE', #219, 1.000000000000004441 ) ;
#652 = DATE_AND_TIME ( #432, #549 ) ;
#653 = CARTESIAN_POINT ( 'NONE',  ( -14.99999999876309076, -8.500000000000142109, -15.00000000000000000 ) ) ;
#654 = ORIENTED_EDGE ( 'NONE', *, *, #825, .T. ) ;
#655 = CARTESIAN_POINT ( 'NONE',  ( 9.499999581961899864, -1.500000000000011546, -15.00000000000000000 ) ) ;
#656 = EDGE_CURVE ( 'NONE', #1262, #391, #1233, .T. ) ;
#657 = CARTESIAN_POINT ( 'NONE',  ( -9.499999581961899864, 1.500000000000011546, 15.00000000000000000 ) ) ;
#658 = DIRECTION ( 'NONE',  ( 1.000000000000000000, 1.364649134660147792E-14, -0.000000000000000000 ) ) ;
#659 = PLANE ( 'NONE',  #68 ) ;
#660 = VERTEX_POINT ( 'NONE', #742 ) ;
#661 = EDGE_CURVE ( 'NONE', #204, #1258, #1170, .T. ) ;
#662 = CARTESIAN_POINT ( 'NONE',  ( -7.500000000000000000, 4.500000000000035527, 15.00000000000000000 ) ) ;
#663 = COORDINATED_UNIVERSAL_TIME_OFFSET ( 1, 0, .AHEAD. ) ;
#664 = ADVANCED_FACE ( 'NONE', ( #521 ), #512, .T. ) ;
#665 = LINE ( 'NONE', #541, #553 ) ;
#666 = MANIFOLD_SOLID_BREP ( 'Cortar-Extruir1', #956 ) ;
#667 = AXIS2_PLACEMENT_3D ( 'NONE', #1247, #173, #1036 ) ;
#668 = VECTOR ( 'NONE', #551, 1000.000000000000000 ) ;
#669 = CIRCLE ( 'NONE', #958, 1.000000000000002665 ) ;
#670 = CARTESIAN_POINT ( 'NONE',  ( 7.500000000000000000, -8.500000000000040856, 15.00000000000000000 ) ) ;
#671 = APPLICATION_PROTOCOL_DEFINITION ( 'international standard', 'config_control_design', 1994, #886 ) ;
#672 = VECTOR ( 'NONE', #225, 1000.000000000000000 ) ;
#673 = CARTESIAN_POINT ( 'NONE',  ( -9.499999999927242200, 3.500000000000024425, -15.00000000000000000 ) ) ;
#674 = DIRECTION ( 'NONE',  ( 1.000000000000000000, 0.000000000000000000, 0.000000000000000000 ) ) ;
#675 = EDGE_CURVE ( 'NONE', #264, #299, #624, .T. ) ;
#676 = VERTEX_POINT ( 'NONE', #1068 ) ;
#677 = LINE ( 'NONE', #139, #1097 ) ;
#678 = DIRECTION ( 'NONE',  ( 0.000000000000000000, 0.000000000000000000, 1.000000000000000000 ) ) ;
#679 = DIRECTION ( 'NONE',  ( -0.000000000000000000, -0.000000000000000000, -1.000000000000000000 ) ) ;
#680 = CARTESIAN_POINT ( 'NONE',  ( -14.99999999999999822, -2.499999999999988898, 15.00000000000000000 ) ) ;
#681 = LINE ( 'NONE', #870, #1058 ) ;
#682 = EDGE_CURVE ( 'NONE', #815, #156, #1264, .T. ) ;
#683 = CARTESIAN_POINT ( 'NONE',  ( 0.000000000000000000, 8.500000000000142109, 0.000000000000000000 ) ) ;
#684 = ORIENTED_EDGE ( 'NONE', *, *, #895, .T. ) ;
#685 = CARTESIAN_POINT ( 'NONE',  ( 7.500000000000000000, -8.500000000000040856, 15.00000000000000000 ) ) ;
#686 = CARTESIAN_POINT ( 'NONE',  ( 9.499999999927242200, 6.499999999999997335, -15.00000000000000000 ) ) ;
#687 = LINE ( 'NONE', #150, #918 ) ;
#688 = VERTEX_POINT ( 'NONE', #940 ) ;
#689 = EDGE_CURVE ( 'NONE', #1336, #1155, #803, .T. ) ;
#690 = CARTESIAN_POINT ( 'NONE',  ( -14.99999999999999822, -2.499999999999988898, -15.00000000000000000 ) ) ;
#691 = VERTEX_POINT ( 'NONE', #616 ) ;
#692 = CALENDAR_DATE ( 2022, 28, 10 ) ;
#693 = DIRECTION ( 'NONE',  ( 0.000000000000000000, 0.000000000000000000, 1.000000000000000000 ) ) ;
#694 = CIRCLE ( 'NONE', #1074, 1.000000000000002665 ) ;
#695 = VERTEX_POINT ( 'NONE', #639 ) ;
#696 = CARTESIAN_POINT ( 'NONE',  ( 14.99999999999999822, 1.499999999999984901, 15.00000000000000000 ) ) ;
#697 = VECTOR ( 'NONE', #1302, 1000.000000000000000 ) ;
#698 = LINE ( 'NONE', #57, #1301 ) ;
#699 = EDGE_CURVE ( 'NONE', #430, #391, #957, .T. ) ;
#700 = ORIENTED_EDGE ( 'NONE', *, *, #617, .F. ) ;
#701 = CARTESIAN_POINT ( 'NONE',  ( 1.959434878635765230E-16, 8.500000000000142109, 1.600000000000000089 ) ) ;
#702 = VERTEX_POINT ( 'NONE', #655 ) ;
#703 = DIRECTION ( 'NONE',  ( 0.000000000000000000, 0.000000000000000000, 1.000000000000000000 ) ) ;
#704 = ORIENTED_EDGE ( 'NONE', *, *, #1006, .T. ) ;
#705 = DIRECTION ( 'NONE',  ( 0.000000000000000000, 0.000000000000000000, -1.000000000000000000 ) ) ;
#706 = ORIENTED_EDGE ( 'NONE', *, *, #792, .F. ) ;
#707 = ORIENTED_EDGE ( 'NONE', *, *, #1278, .T. ) ;
#708 = DIRECTION ( 'NONE',  ( 1.000000000000000000, -6.308085367104944732E-15, -0.000000000000000000 ) ) ;
#709 = EDGE_CURVE ( 'NONE', #1111, #720, #1292, .T. ) ;
#710 = DIRECTION ( 'NONE',  ( 1.000000000000000000, 0.000000000000000000, 0.000000000000000000 ) ) ;
#711 = EDGE_LOOP ( 'NONE', ( #1, #928 ) ) ;
#712 = PLANE ( 'NONE',  #1208 ) ;
#713 = FACE_OUTER_BOUND ( 'NONE', #63, .T. ) ;
#714 = ORIENTED_EDGE ( 'NONE', *, *, #1149, .F. ) ;
#715 = DIRECTION ( 'NONE',  ( -1.000000000000000000, 0.000000000000000000, 0.000000000000000000 ) ) ;
#716 = LINE ( 'NONE', #686, #87 ) ;
#717 = PLANE ( 'NONE',  #154 ) ;
#718 = VECTOR ( 'NONE', #7, 1000.000000000000000 ) ;
#719 = VECTOR ( 'NONE', #103, 1000.000000000000000 ) ;
#720 = VERTEX_POINT ( 'NONE', #979 ) ;
#721 = ADVANCED_FACE ( 'NONE', ( #872 ), #343, .F. ) ;
#722 = VECTOR ( 'NONE', #896, 1000.000000000000000 ) ;
#723 = ORIENTED_EDGE ( 'NONE', *, *, #201, .T. ) ;
#724 = DIRECTION ( 'NONE',  ( -0.000000000000000000, -0.000000000000000000, -1.000000000000000000 ) ) ;
#725 = CARTESIAN_POINT ( 'NONE',  ( -7.500000000000000000, -8.500000000000040856, -15.00000000000000000 ) ) ;
#726 = ORIENTED_EDGE ( 'NONE', *, *, #784, .F. ) ;
#727 = EDGE_CURVE ( 'NONE', #473, #583, #1183, .T. ) ;
#728 = EDGE_CURVE ( 'NONE', #1224, #204, #129, .T. ) ;
#729 = EDGE_LOOP ( 'NONE', ( #1014, #496 ) ) ;
#730 = FACE_BOUND ( 'NONE', #711, .T. ) ;
#731 = ORIENTED_EDGE ( 'NONE', *, *, #825, .F. ) ;
#732 = VERTEX_POINT ( 'NONE', #1230 ) ;
#733 = EDGE_CURVE ( 'NONE', #248, #615, #477, .T. ) ;
#734 = LINE ( 'NONE', #641, #602 ) ;
#735 = DIRECTION ( 'NONE',  ( 1.000000000000000000, -4.849340257442623366E-15, -0.000000000000000000 ) ) ;
#736 = VERTEX_POINT ( 'NONE', #488 ) ;
#737 = CC_DESIGN_APPROVAL ( #214, ( #597 ) ) ;
#738 = AXIS2_PLACEMENT_3D ( 'NONE', #1061, #534, #1051 ) ;
#739 = CARTESIAN_POINT ( 'NONE',  ( -16.00000000000000000, 2.499999999999988898, -15.00000000000000000 ) ) ;
#740 = AXIS2_PLACEMENT_3D ( 'NONE', #973, #754, #987 ) ;
#741 = CIRCLE ( 'NONE', #1094, 1.000000000000004441 ) ;
#742 = CARTESIAN_POINT ( 'NONE',  ( -9.499999999927242200, 3.500000000000024425, -15.00000000000000000 ) ) ;
#743 = ORIENTED_EDGE ( 'NONE', *, *, #300, .F. ) ;
#744 = ADVANCED_FACE ( 'NONE', ( #601 ), #557, .T. ) ;
#745 = CARTESIAN_POINT ( 'NONE',  ( -16.00000000000000000, -2.499999999999988898, 15.00000000000000000 ) ) ;
#746 = DIRECTION ( 'NONE',  ( 0.000000000000000000, 0.000000000000000000, -1.000000000000000000 ) ) ;
#747 = DIRECTION ( 'NONE',  ( 0.000000000000000000, 0.000000000000000000, -1.000000000000000000 ) ) ;
#748 = ORIENTED_EDGE ( 'NONE', *, *, #222, .F. ) ;
#749 = CARTESIAN_POINT ( 'NONE',  ( 14.99999999999999822, -2.499999999999988898, -15.00000000000000000 ) ) ;
#750 = ORIENTED_EDGE ( 'NONE', *, *, #435, .T. ) ;
#751 = SECURITY_CLASSIFICATION_LEVEL ( 'unclassified' ) ;
#752 = ORIENTED_EDGE ( 'NONE', *, *, #1016, .T. ) ;
#753 = EDGE_CURVE ( 'NONE', #254, #858, #543, .T. ) ;
#754 = DIRECTION ( 'NONE',  ( -1.364649134660147950E-14, 1.000000000000000000, 0.000000000000000000 ) ) ;
#755 = ORIENTED_EDGE ( 'NONE', *, *, #709, .T. ) ;
#756 = CARTESIAN_POINT ( 'NONE',  ( 14.99999999876309076, -8.499999999999946709, 15.00000000000000000 ) ) ;
#757 = DIRECTION ( 'NONE',  ( -0.000000000000000000, -0.000000000000000000, -1.000000000000000000 ) ) ;
#758 = DIRECTION ( 'NONE',  ( 0.000000000000000000, 0.000000000000000000, 1.000000000000000000 ) ) ;
#759 = DIRECTION ( 'NONE',  ( -1.000000000000000000, 0.000000000000000000, 0.000000000000000000 ) ) ;
#760 = VERTEX_POINT ( 'NONE', #1083 ) ;
#761 = EDGE_CURVE ( 'NONE', #213, #1081, #677, .T. ) ;
#762 = AXIS2_PLACEMENT_3D ( 'NONE', #1236, #355, #263 ) ;
#763 = VECTOR ( 'NONE', #460, 1000.000000000000000 ) ;
#764 = AXIS2_PLACEMENT_3D ( 'NONE', #46, #166, #584 ) ;
#765 = CARTESIAN_POINT ( 'NONE',  ( 14.99999999999999822, -1.499999999999984901, 15.00000000000000000 ) ) ;
#766 = LINE ( 'NONE', #22, #373 ) ;
#767 = DIRECTION ( 'NONE',  ( 3.548297749348261168E-16, -1.000000000000000000, 0.000000000000000000 ) ) ;
#768 = VERTEX_POINT ( 'NONE', #1076 ) ;
#769 = ADVANCED_FACE ( 'NONE', ( #1324 ), #965, .T. ) ;
#770 = DIRECTION ( 'NONE',  ( -0.000000000000000000, -0.000000000000000000, -1.000000000000000000 ) ) ;
#771 = EDGE_CURVE ( 'NONE', #94, #56, #1041, .T. ) ;
#772 = LINE ( 'NONE', #662, #14 ) ;
#773 = DATE_AND_TIME ( #1079, #1348 ) ;
#774 = DIRECTION ( 'NONE',  ( 1.000000000000000000, 0.000000000000000000, 0.000000000000000000 ) ) ;
#775 = DIRECTION ( 'NONE',  ( -1.000000000000000000, 0.000000000000000000, 0.000000000000000000 ) ) ;
#776 = LINE ( 'NONE', #782, #1321 ) ;
#777 =( LENGTH_UNIT ( ) NAMED_UNIT ( * ) SI_UNIT ( .MILLI., .METRE. ) );
#778 = LINE ( 'NONE', #673, #418 ) ;
#779 = LINE ( 'NONE', #903, #626 ) ;
#780 = ORIENTED_EDGE ( 'NONE', *, *, #383, .F. ) ;
#781 = CIRCLE ( 'NONE', #936, 1.000000000000002665 ) ;
#782 = CARTESIAN_POINT ( 'NONE',  ( 15.00000020682086976, -6.500000000000155431, 15.00000000000000000 ) ) ;
#783 = VECTOR ( 'NONE', #446, 1000.000000000000000 ) ;
#784 = EDGE_CURVE ( 'NONE', #53, #1224, #271, .T. ) ;
#785 = DIRECTION ( 'NONE',  ( -1.000000000000000000, 0.000000000000000000, 0.000000000000000000 ) ) ;
#786 = CARTESIAN_POINT ( 'NONE',  ( 9.499999581961899864, 1.500000000000011546, 15.00000000000000000 ) ) ;
#787 = DIRECTION ( 'NONE',  ( -0.000000000000000000, 0.000000000000000000, -1.000000000000000000 ) ) ;
#788 = EDGE_LOOP ( 'NONE', ( #1023, #332, #84, #750 ) ) ;
#789 = DIRECTION ( 'NONE',  ( -0.000000000000000000, -0.000000000000000000, -1.000000000000000000 ) ) ;
#790 = CARTESIAN_POINT ( 'NONE',  ( 7.500000000000000000, -8.500000000000040856, -15.00000000000000000 ) ) ;
#791 = ORIENTED_EDGE ( 'NONE', *, *, #498, .F. ) ;
#792 = EDGE_CURVE ( 'NONE', #865, #1248, #217, .T. ) ;
#793 = DIRECTION ( 'NONE',  ( 0.000000000000000000, -1.000000000000000000, 0.000000000000000000 ) ) ;
#794 = DIRECTION ( 'NONE',  ( 1.000000000000000000, 0.000000000000000000, -0.000000000000000000 ) ) ;
#795 = ORIENTED_EDGE ( 'NONE', *, *, #44, .T. ) ;
#796 = DIRECTION ( 'NONE',  ( -0.000000000000000000, -0.000000000000000000, -1.000000000000000000 ) ) ;
#797 = DIRECTION ( 'NONE',  ( 0.000000000000000000, -1.000000000000000000, 0.000000000000000000 ) ) ;
#798 = DIRECTION ( 'NONE',  ( -1.000000000000000000, 4.849340257442623366E-15, 0.000000000000000000 ) ) ;
#799 = ORIENTED_EDGE ( 'NONE', *, *, #605, .T. ) ;
#800 = PLANE ( 'NONE',  #762 ) ;
#801 = ORIENTED_EDGE ( 'NONE', *, *, #605, .F. ) ;
#802 = CARTESIAN_POINT ( 'NONE',  ( -14.99999999999999822, 1.499999999999984901, 15.00000000000000000 ) ) ;
#803 = CIRCLE ( 'NONE', #1370, 1.000000000000002665 ) ;
#804 = EDGE_LOOP ( 'NONE', ( #1143, #1333, #369, #79 ) ) ;
#805 = DIRECTION ( 'NONE',  ( -1.000000000000000000, 0.000000000000000000, 0.000000000000000000 ) ) ;
#806 = VECTOR ( 'NONE', #1087, 1000.000000000000000 ) ;
#807 = ORIENTED_EDGE ( 'NONE', *, *, #498, .T. ) ;
#808 = CARTESIAN_POINT ( 'NONE',  ( 1.959434878635765230E-16, 4.500000000000035527, 1.600000000000000089 ) ) ;
#809 = ORIENTED_EDGE ( 'NONE', *, *, #66, .F. ) ;
#810 = ADVANCED_FACE ( 'NONE', ( #1151 ), #1161, .F. ) ;
#811 = ORIENTED_EDGE ( 'NONE', *, *, #444, .F. ) ;
#812 = DIRECTION ( 'NONE',  ( -6.308085367104944732E-15, 1.000000000000000000, 0.000000000000000000 ) ) ;
#813 = VERTEX_POINT ( 'NONE', #140 ) ;
#814 = CARTESIAN_POINT ( 'NONE',  ( -9.499999581961899864, 1.500000000000011546, -15.00000000000000000 ) ) ;
#815 = VERTEX_POINT ( 'NONE', #756 ) ;
#816 = APPROVAL ( #315, 'UNSPECIFIED' ) ;
#817 = LINE ( 'NONE', #45, #934 ) ;
#818 = CARTESIAN_POINT ( 'NONE',  ( -14.99999999999999822, -3.499999999999989786, 15.00000000000000000 ) ) ;
#819 = DESIGN_CONTEXT ( 'detailed design', #288, 'design' ) ;
#820 = CARTESIAN_POINT ( 'NONE',  ( 9.499999999927242200, 3.500000000000024425, 15.00000000000000000 ) ) ;
#821 = EDGE_LOOP ( 'NONE', ( #1150, #1343, #1053, #413 ) ) ;
#822 = ORIENTED_EDGE ( 'NONE', *, *, #1214, .T. ) ;
#823 = VECTOR ( 'NONE', #328, 1000.000000000000000 ) ;
#824 = CARTESIAN_POINT ( 'NONE',  ( 9.499999581961899864, -1.500000000000011546, 15.00000000000000000 ) ) ;
#825 = EDGE_CURVE ( 'NONE', #813, #195, #90, .T. ) ;
#826 = AXIS2_PLACEMENT_3D ( 'NONE', #873, #334, #775 ) ;
#827 = VECTOR ( 'NONE', #363, 1000.000000000000000 ) ;
#828 = ORIENTED_EDGE ( 'NONE', *, *, #1306, .F. ) ;
#829 = CARTESIAN_POINT ( 'NONE',  ( -15.00000000000000000, -7.499999999999942268, 15.00000000000000000 ) ) ;
#830 = ORIENTED_EDGE ( 'NONE', *, *, #851, .F. ) ;
#831 = LINE ( 'NONE', #1131, #1147 ) ;
#832 = DIRECTION ( 'NONE',  ( -0.000000000000000000, -0.000000000000000000, -1.000000000000000000 ) ) ;
#833 = DIRECTION ( 'NONE',  ( -1.000000000000000000, -6.308085367104944732E-15, 0.000000000000000000 ) ) ;
#834 = ORIENTED_EDGE ( 'NONE', *, *, #175, .T. ) ;
#835 = ADVANCED_FACE ( 'NONE', ( #931 ), #269, .T. ) ;
#836 = EDGE_LOOP ( 'NONE', ( #273, #41, #1316, #499 ) ) ;
#837 = DIRECTION ( 'NONE',  ( -0.000000000000000000, -0.000000000000000000, -1.000000000000000000 ) ) ;
#838 = FACE_OUTER_BOUND ( 'NONE', #612, .T. ) ;
#839 = LINE ( 'NONE', #1261, #1305 ) ;
#840 = ORIENTED_EDGE ( 'NONE', *, *, #419, .T. ) ;
#841 = EDGE_LOOP ( 'NONE', ( #417, #390, #913, #1322 ) ) ;
#842 = FACE_OUTER_BOUND ( 'NONE', #1077, .T. ) ;
#843 = FACE_OUTER_BOUND ( 'NONE', #423, .T. ) ;
#844 = EDGE_LOOP ( 'NONE', ( #908, #147, #1048, #1127 ) ) ;
#845 = AXIS2_PLACEMENT_3D ( 'NONE', #855, #757, #564 ) ;
#846 = DIRECTION ( 'NONE',  ( -1.000000000000000000, 0.000000000000000000, 0.000000000000000000 ) ) ;
#847 = AXIS2_PLACEMENT_3D ( 'NONE', #1109, #39, #252 ) ;
#848 = CIRCLE ( 'NONE', #1192, 1.000000000000004441 ) ;
#849 = VERTEX_POINT ( 'NONE', #78 ) ;
#850 = CARTESIAN_POINT ( 'NONE',  ( 14.99999999999999822, 1.499999999999986455, 15.00000000000000000 ) ) ;
#851 = EDGE_CURVE ( 'NONE', #264, #528, #592, .T. ) ;
#852 = CARTESIAN_POINT ( 'NONE',  ( 14.99999999999999822, -1.499999999999984901, -15.00000000000000000 ) ) ;
#853 = ORIENTED_EDGE ( 'NONE', *, *, #1175, .F. ) ;
#854 = ORIENTED_EDGE ( 'NONE', *, *, #910, .T. ) ;
#855 = CARTESIAN_POINT ( 'NONE',  ( -15.00000000000000000, 7.499999999999942268, 15.00000000000000000 ) ) ;
#856 = EDGE_CURVE ( 'NONE', #430, #571, #1285, .T. ) ;
#857 = DIRECTION ( 'NONE',  ( -1.000000000000000000, 1.364649134660147950E-14, 0.000000000000000000 ) ) ;
#858 = VERTEX_POINT ( 'NONE', #644 ) ;
#859 = EDGE_LOOP ( 'NONE', ( #731, #29, #206, #1383, #434, #955, #112, #595, #296, #622, #406, #1291, #163, #161, #1287, #226, #1121, #966, #415, #1391, #947, #1184, #525, #809, #853, #960, #117, #73, #588, #361, #1293, #801, #1070, #307, #345, #1255 ) ) ;
#860 = LINE ( 'NONE', #1099, #326 ) ;
#861 = PERSON_AND_ORGANIZATION ( #627, #1162 ) ;
#862 = DIRECTION ( 'NONE',  ( 0.000000000000000000, 0.000000000000000000, 1.000000000000000000 ) ) ;
#863 = CARTESIAN_POINT ( 'NONE',  ( 7.500000000000000000, -8.500000000000040856, 15.00000000000000000 ) ) ;
#864 = EDGE_CURVE ( 'NONE', #736, #760, #1294, .T. ) ;
#865 = VERTEX_POINT ( 'NONE', #614 ) ;
#866 = EDGE_CURVE ( 'NONE', #1224, #1336, #83, .T. ) ;
#867 = AXIS2_PLACEMENT_3D ( 'NONE', #1216, #793, #205 ) ;
#868 = AXIS2_PLACEMENT_3D ( 'NONE', #167, #1011, #469 ) ;
#869 = DIRECTION ( 'NONE',  ( 0.000000000000000000, 0.000000000000000000, 1.000000000000000000 ) ) ;
#870 = CARTESIAN_POINT ( 'NONE',  ( -14.99999999876309076, -8.500000000000142109, 15.00000000000000000 ) ) ;
#871 = ORIENTED_EDGE ( 'NONE', *, *, #761, .T. ) ;
#872 = FACE_OUTER_BOUND ( 'NONE', #538, .T. ) ;
#873 = CARTESIAN_POINT ( 'NONE',  ( -14.99999999999999822, -2.499999999999988898, 15.00000000000000000 ) ) ;
#874 = CARTESIAN_POINT ( 'NONE',  ( 7.500000000000000000, -8.500000000000040856, 15.00000000000000000 ) ) ;
#875 =( NAMED_UNIT ( * ) PLANE_ANGLE_UNIT ( ) SI_UNIT ( $, .RADIAN. ) );
#876 = CARTESIAN_POINT ( 'NONE',  ( 14.99999999999999822, 3.499999999999989786, 15.00000000000000000 ) ) ;
#877 = DIRECTION ( 'NONE',  ( -0.000000000000000000, -0.000000000000000000, -1.000000000000000000 ) ) ;
#878 = ORIENTED_EDGE ( 'NONE', *, *, #1327, .F. ) ;
#879 = EDGE_CURVE ( 'NONE', #849, #607, #200, .T. ) ;
#880 = DIRECTION ( 'NONE',  ( -1.000000000000000000, 0.000000000000000000, 0.000000000000000000 ) ) ;
#881 = CARTESIAN_POINT ( 'NONE',  ( -14.99999999999999822, 1.499999999999984901, 15.00000000000000000 ) ) ;
#882 = PERSON_AND_ORGANIZATION ( #627, #1162 ) ;
#883 = CARTESIAN_POINT ( 'NONE',  ( 14.99999999999999822, -3.499999999999991118, 15.00000000000000000 ) ) ;
#884 = CARTESIAN_POINT ( 'NONE',  ( 0.000000000000000000, 34.50000000000002842, -1.600000000000000089 ) ) ;
#885 = PRODUCT ( 'Heatsink_ALUM_ANOD_TO-220_V5220L', 'Heatsink_ALUM_ANOD_TO-220_V5220L', '', ( #1308 ) ) ;
#886 = APPLICATION_CONTEXT ( 'configuration controlled 3d designs of mechanical parts and assemblies' ) ;
#887 = LINE ( 'NONE', #976, #783 ) ;
#888 = ORIENTED_EDGE ( 'NONE', *, *, #1373, .T. ) ;
#889 = VECTOR ( 'NONE', #1013, 1000.000000000000000 ) ;
#890 = AXIS2_PLACEMENT_3D ( 'NONE', #492, #794, #787 ) ;
#891 = VECTOR ( 'NONE', #362, 1000.000000000000000 ) ;
#892 = LINE ( 'NONE', #1326, #216 ) ;
#893 = AXIS2_PLACEMENT_3D ( 'NONE', #468, #909, #805 ) ;
#894 = DIRECTION ( 'NONE',  ( 1.000000000000000000, 0.000000000000000000, 0.000000000000000000 ) ) ;
#895 = EDGE_CURVE ( 'NONE', #156, #392, #848, .T. ) ;
#896 = DIRECTION ( 'NONE',  ( 1.000000000000000000, -1.364649134660147792E-14, 0.000000000000000000 ) ) ;
#897 = CARTESIAN_POINT ( 'NONE',  ( -7.500000000000000000, -8.500000000000040856, 15.00000000000000000 ) ) ;
#898 = ORIENTED_EDGE ( 'NONE', *, *, #771, .F. ) ;
#899 = DIRECTION ( 'NONE',  ( 0.000000000000000000, 0.000000000000000000, 1.000000000000000000 ) ) ;
#900 = VERTEX_POINT ( 'NONE', #989 ) ;
#901 = DIRECTION ( 'NONE',  ( 0.000000000000000000, 1.000000000000000000, 0.000000000000000000 ) ) ;
#902 = LINE ( 'NONE', #948, #306 ) ;
#903 = CARTESIAN_POINT ( 'NONE',  ( -14.99999999876309076, 8.500000000000142109, 15.00000000000000000 ) ) ;
#904 = ORIENTED_EDGE ( 'NONE', *, *, #168, .T. ) ;
#905 = CARTESIAN_POINT ( 'NONE',  ( 9.499999999927242200, 3.500000000000024425, 15.00000000000000000 ) ) ;
#906 = EDGE_LOOP ( 'NONE', ( #371, #95, #211, #704, #1067, #399, #650, #723, #1252, #318, #807, #926, #475, #381, #575, #208, #1043, #888, #1376, #261, #904, #497, #1153, #1089, #279, #1001, #1231, #1038, #1197, #1303, #1385, #305, #1250, #1227, #1060, #221 ) ) ;
#907 = LINE ( 'NONE', #1105, #891 ) ;
#908 = ORIENTED_EDGE ( 'NONE', *, *, #30, .T. ) ;
#909 = DIRECTION ( 'NONE',  ( 0.000000000000000000, 0.000000000000000000, 1.000000000000000000 ) ) ;
#910 = EDGE_CURVE ( 'NONE', #461, #1063, #344, .T. ) ;
#911 = ADVANCED_FACE ( 'NONE', ( #1338 ), #1229, .T. ) ;
#912 = CARTESIAN_POINT ( 'NONE',  ( -9.499999999927242200, -3.500000000000024425, 15.00000000000000000 ) ) ;
#913 = ORIENTED_EDGE ( 'NONE', *, *, #97, .F. ) ;
#914 = AXIS2_PLACEMENT_3D ( 'NONE', #149, #494, #598 ) ;
#915 = AXIS2_PLACEMENT_3D ( 'NONE', #1215, #250, #710 ) ;
#916 = ORIENTED_EDGE ( 'NONE', *, *, #338, .T. ) ;
#917 = PLANE ( 'NONE',  #764 ) ;
#918 = VECTOR ( 'NONE', #1346, 1000.000000000000000 ) ;
#919 = VERTEX_POINT ( 'NONE', #1015 ) ;
#920 = EDGE_CURVE ( 'NONE', #53, #583, #386, .T. ) ;
#921 = CARTESIAN_POINT ( 'NONE',  ( -16.00000000000000000, 2.499999999999988898, 15.00000000000000000 ) ) ;
#922 = VERTEX_POINT ( 'NONE', #1225 ) ;
#923 = LINE ( 'NONE', #1280, #89 ) ;
#924 = ORIENTED_EDGE ( 'NONE', *, *, #300, .T. ) ;
#925 = DIRECTION ( 'NONE',  ( 4.849340257442623366E-15, 1.000000000000000000, -0.000000000000000000 ) ) ;
#926 = ORIENTED_EDGE ( 'NONE', *, *, #1049, .T. ) ;
#927 = EDGE_CURVE ( 'NONE', #299, #1021, #831, .T. ) ;
#928 = ORIENTED_EDGE ( 'NONE', *, *, #546, .F. ) ;
#929 = VERTEX_POINT ( 'NONE', #1106 ) ;
#930 = CARTESIAN_POINT ( 'NONE',  ( -16.00000000000000355, -7.499999999999942268, 15.00000000000000000 ) ) ;
#931 = FACE_OUTER_BOUND ( 'NONE', #906, .T. ) ;
#932 = VERTEX_POINT ( 'NONE', #739 ) ;
#933 = ORIENTED_EDGE ( 'NONE', *, *, #8, .F. ) ;
#934 = VECTOR ( 'NONE', #467, 1000.000000000000000 ) ;
#935 = CARTESIAN_POINT ( 'NONE',  ( -15.00000000000000000, 7.499999999999942268, 15.00000000000000000 ) ) ;
#936 = AXIS2_PLACEMENT_3D ( 'NONE', #680, #560, #785 ) ;
#937 = EDGE_CURVE ( 'NONE', #695, #900, #1189, .T. ) ;
#938 = AXIS2_PLACEMENT_3D ( 'NONE', #229, #321, #759 ) ;
#939 = ORIENTED_EDGE ( 'NONE', *, *, #491, .T. ) ;
#940 = CARTESIAN_POINT ( 'NONE',  ( 9.499999581961899864, 1.500000000000011546, 15.00000000000000000 ) ) ;
#941 = VERTEX_POINT ( 'NONE', #1213 ) ;
#942 = CYLINDRICAL_SURFACE ( 'NONE', #199, 1.000000000000004441 ) ;
#943 = PLANE ( 'NONE',  #178 ) ;
#944 = DIRECTION ( 'NONE',  ( -1.000000000000000000, 0.000000000000000000, 0.000000000000000000 ) ) ;
#945 = ORIENTED_EDGE ( 'NONE', *, *, #1221, .T. ) ;
#946 = ADVANCED_FACE ( 'NONE', ( #1205 ), #659, .F. ) ;
#947 = ORIENTED_EDGE ( 'NONE', *, *, #55, .F. ) ;
#948 = CARTESIAN_POINT ( 'NONE',  ( -16.00000000000000000, 2.499999999999988898, 15.00000000000000000 ) ) ;
#949 = LINE ( 'NONE', #1290, #1037 ) ;
#950 = ORIENTED_EDGE ( 'NONE', *, *, #265, .T. ) ;
#951 = EDGE_CURVE ( 'NONE', #191, #815, #1088, .T. ) ;
#952 = ORIENTED_EDGE ( 'NONE', *, *, #1123, .T. ) ;
#953 = PLANE ( 'NONE',  #34 ) ;
#954 = VECTOR ( 'NONE', #658, 1000.000000000000000 ) ;
#955 = ORIENTED_EDGE ( 'NONE', *, *, #20, .F. ) ;
#956 = CLOSED_SHELL ( 'NONE', ( #1254, #1341, #744, #988, #209, #637, #569, #1288, #118, #769, #582, #295, #946, #121, #1159, #1075, #470, #664, #721, #1164, #1297, #114, #1020, #611, #1347, #620, #1234, #911, #1358, #16, #1204, #1139, #365, #810, #1117, #262, #1040, #835, #506, #80 ) ) ;
#957 = LINE ( 'NONE', #1047, #648 ) ;
#958 = AXIS2_PLACEMENT_3D ( 'NONE', #589, #164, #894 ) ;
#959 = VECTOR ( 'NONE', #796, 1000.000000000000000 ) ;
#960 = ORIENTED_EDGE ( 'NONE', *, *, #284, .F. ) ;
#961 = CC_DESIGN_PERSON_AND_ORGANIZATION_ASSIGNMENT ( #882, #1086, ( #885 ) ) ;
#962 = PERSON_AND_ORGANIZATION_ROLE ( 'creator' ) ;
#963 = FACE_OUTER_BOUND ( 'NONE', #1140, .T. ) ;
#964 = VERTEX_POINT ( 'NONE', #451 ) ;
#965 = CYLINDRICAL_SURFACE ( 'NONE', #847, 1.000000000000002665 ) ;
#966 = ORIENTED_EDGE ( 'NONE', *, *, #1193, .F. ) ;
#967 = CARTESIAN_POINT ( 'NONE',  ( -15.00000000000000000, 7.499999999999942268, -15.00000000000000000 ) ) ;
#968 = EDGE_CURVE ( 'NONE', #815, #676, #741, .T. ) ;
#969 = DIRECTION ( 'NONE',  ( -0.000000000000000000, -1.000000000000000000, -0.000000000000000000 ) ) ;
#970 = DATE_AND_TIME ( #1091, #64 ) ;
#971 = CARTESIAN_POINT ( 'NONE',  ( -14.99999999999999822, 2.499999999999988898, 15.00000000000000000 ) ) ;
#972 = ORIENTED_EDGE ( 'NONE', *, *, #996, .F. ) ;
#973 = CARTESIAN_POINT ( 'NONE',  ( -7.500000000000000000, -8.500000000000040856, 15.00000000000000000 ) ) ;
#974 = CARTESIAN_POINT ( 'NONE',  ( -14.99999999999999822, -2.499999999999988898, 15.00000000000000000 ) ) ;
#975 = APPROVAL_ROLE ( '' ) ;
#976 = CARTESIAN_POINT ( 'NONE',  ( -9.499999999927242200, 6.499999999999997335, 15.00000000000000000 ) ) ;
#977 = ORIENTED_EDGE ( 'NONE', *, *, #192, .F. ) ;
#978 = CC_DESIGN_DATE_AND_TIME_ASSIGNMENT ( #42, #274, ( #597 ) ) ;
#979 = CARTESIAN_POINT ( 'NONE',  ( -14.99999999999999822, -3.499999999999989786, -15.00000000000000000 ) ) ;
#980 =( GEOMETRIC_REPRESENTATION_CONTEXT ( 3 ) GLOBAL_UNCERTAINTY_ASSIGNED_CONTEXT ( ( #524 ) ) GLOBAL_UNIT_ASSIGNED_CONTEXT ( ( #777, #875, #1313 ) ) REPRESENTATION_CONTEXT ( 'NONE', 'WORKASPACE' ) );
#981 = CIRCLE ( 'NONE', #126, 1.600000000000000089 ) ;
#982 = AXIS2_PLACEMENT_3D ( 'NONE', #157, #244, #49 ) ;
#983 = AXIS2_PLACEMENT_3D ( 'NONE', #998, #862, #504 ) ;
#984 = LINE ( 'NONE', #141, #600 ) ;
#985 = PERSON_AND_ORGANIZATION_ROLE ( 'design_supplier' ) ;
#986 = FACE_BOUND ( 'NONE', #729, .T. ) ;
#987 = DIRECTION ( 'NONE',  ( -1.000000000000000000, -1.364649134660147950E-14, 0.000000000000000000 ) ) ;
#988 = ADVANCED_FACE ( 'NONE', ( #554 ), #427, .T. ) ;
#989 = CARTESIAN_POINT ( 'NONE',  ( -9.499999999927242200, 6.499999999999997335, 15.00000000000000000 ) ) ;
#990 = CARTESIAN_POINT ( 'NONE',  ( -9.499999999927242200, 3.500000000000024425, 15.00000000000000000 ) ) ;
#991 = DIRECTION ( 'NONE',  ( -0.000000000000000000, -0.000000000000000000, -1.000000000000000000 ) ) ;
#992 = FACE_OUTER_BOUND ( 'NONE', #1380, .T. ) ;
#993 = CARTESIAN_POINT ( 'NONE',  ( -14.99999999999999822, -1.499999999999984901, 15.00000000000000000 ) ) ;
#994 = CARTESIAN_POINT ( 'NONE',  ( 14.99999999999999822, -2.499999999999988898, 15.00000000000000000 ) ) ;
#995 = VERTEX_POINT ( 'NONE', #536 ) ;
#996 = EDGE_CURVE ( 'NONE', #688, #919, #561, .T. ) ;
#997 = DIRECTION ( 'NONE',  ( -1.000000000000000000, -2.885948946927879338E-14, -0.000000000000000000 ) ) ;
#998 = CARTESIAN_POINT ( 'NONE',  ( 14.99999999999999822, 2.499999999999988898, -15.00000000000000000 ) ) ;
#999 = LINE ( 'NONE', #457, #152 ) ;
#1000 = DIRECTION ( 'NONE',  ( 1.000000000000000000, -6.308085367104944732E-15, -0.000000000000000000 ) ) ;
#1001 = ORIENTED_EDGE ( 'NONE', *, *, #784, .T. ) ;
#1002 = AXIS2_PLACEMENT_3D ( 'NONE', #187, #642, #507 ) ;
#1003 = AXIS2_PLACEMENT_3D ( 'NONE', #1359, #281, #1266 ) ;
#1004 = CIRCLE ( 'NONE', #938, 1.000000000000002665 ) ;
#1005 = DIRECTION ( 'NONE',  ( -0.000000000000000000, -1.000000000000000000, -0.000000000000000000 ) ) ;
#1006 = EDGE_CURVE ( 'NONE', #900, #171, #1196, .T. ) ;
#1007 = ORIENTED_EDGE ( 'NONE', *, *, #675, .F. ) ;
#1008 = DIRECTION ( 'NONE',  ( 0.000000000000000000, 0.000000000000000000, 1.000000000000000000 ) ) ;
#1009 = EDGE_LOOP ( 'NONE', ( #519, #791, #854, #1310 ) ) ;
#1010 = CARTESIAN_POINT ( 'NONE',  ( 9.499999999927242200, -3.500000000000024425, -15.00000000000000000 ) ) ;
#1011 = DIRECTION ( 'NONE',  ( 0.000000000000000000, 0.000000000000000000, 1.000000000000000000 ) ) ;
#1012 = DIRECTION ( 'NONE',  ( 0.000000000000000000, 0.000000000000000000, 1.000000000000000000 ) ) ;
#1013 = DIRECTION ( 'NONE',  ( -0.000000000000000000, -0.000000000000000000, -1.000000000000000000 ) ) ;
#1014 = ORIENTED_EDGE ( 'NONE', *, *, #394, .T. ) ;
#1015 = CARTESIAN_POINT ( 'NONE',  ( 9.499999581961899864, 1.500000000000011546, -15.00000000000000000 ) ) ;
#1016 = EDGE_CURVE ( 'NONE', #941, #1059, #681, .T. ) ;
#1017 = LINE ( 'NONE', #247, #36 ) ;
#1018 = ORIENTED_EDGE ( 'NONE', *, *, #699, .F. ) ;
#1019 = CARTESIAN_POINT ( 'NONE',  ( -7.500000000000000000, -8.500000000000040856, 15.00000000000000000 ) ) ;
#1020 = ADVANCED_FACE ( 'NONE', ( #963 ), #116, .F. ) ;
#1021 = VERTEX_POINT ( 'NONE', #1101 ) ;
#1022 = CARTESIAN_POINT ( 'NONE',  ( 14.99999999876309076, 8.500000000000142109, -15.00000000000000000 ) ) ;
#1023 = ORIENTED_EDGE ( 'NONE', *, *, #1064, .T. ) ;
#1024 = APPROVAL_STATUS ( 'not_yet_approved' ) ;
#1025 = CARTESIAN_POINT ( 'NONE',  ( -9.499999999927242200, -3.500000000000024425, 15.00000000000000000 ) ) ;
#1026 = DIRECTION ( 'NONE',  ( 1.000000000000000000, 0.000000000000000000, 0.000000000000000000 ) ) ;
#1027 = DIRECTION ( 'NONE',  ( 1.000000000000000000, 2.885948946927879338E-14, -0.000000000000000000 ) ) ;
#1028 = CC_DESIGN_PERSON_AND_ORGANIZATION_ASSIGNMENT ( #861, #962, ( #93 ) ) ;
#1029 = DIRECTION ( 'NONE',  ( 0.000000000000000000, 0.000000000000000000, 1.000000000000000000 ) ) ;
#1030 = LINE ( 'NONE', #1356, #1188 ) ;
#1031 = ORIENTED_EDGE ( 'NONE', *, *, #419, .F. ) ;
#1032 = SHAPE_DEFINITION_REPRESENTATION ( #1102, #1270 ) ;
#1033 = CIRCLE ( 'NONE', #197, 1.000000000000002665 ) ;
#1034 = CIRCLE ( 'NONE', #532, 1.600000000000000089 ) ;
#1035 = DIRECTION ( 'NONE',  ( -1.000000000000000000, 6.308085367104944732E-15, -0.000000000000000000 ) ) ;
#1036 = DIRECTION ( 'NONE',  ( -1.000000000000000000, 0.000000000000000000, 0.000000000000000000 ) ) ;
#1037 = VECTOR ( 'NONE', #735, 1000.000000000000000 ) ;
#1038 = ORIENTED_EDGE ( 'NONE', *, *, #661, .T. ) ;
#1039 = DIRECTION ( 'NONE',  ( 2.885948946927879338E-14, 1.000000000000000000, -0.000000000000000000 ) ) ;
#1040 = ADVANCED_FACE ( 'NONE', ( #986, #9 ), #122, .F. ) ;
#1041 = LINE ( 'NONE', #471, #1323 ) ;
#1042 = DIRECTION ( 'NONE',  ( -1.000000000000000000, 0.000000000000000000, 0.000000000000000000 ) ) ;
#1043 = ORIENTED_EDGE ( 'NONE', *, *, #631, .T. ) ;
#1044 = DIRECTION ( 'NONE',  ( 1.000000000000000000, 0.000000000000000000, 0.000000000000000000 ) ) ;
#1045 = LINE ( 'NONE', #293, #196 ) ;
#1046 = EDGE_LOOP ( 'NONE', ( #1355, #795, #1178, #1116 ) ) ;
#1047 = CARTESIAN_POINT ( 'NONE',  ( 1.959434878635765230E-16, 34.50000000000002842, 1.600000000000000089 ) ) ;
#1048 = ORIENTED_EDGE ( 'NONE', *, *, #937, .F. ) ;
#1049 = EDGE_CURVE ( 'NONE', #81, #1111, #1004, .T. ) ;
#1050 = DIRECTION ( 'NONE',  ( -0.000000000000000000, -0.000000000000000000, -1.000000000000000000 ) ) ;
#1051 = DIRECTION ( 'NONE',  ( -1.000000000000000000, 0.000000000000000000, 0.000000000000000000 ) ) ;
#1052 = LINE ( 'NONE', #725, #1187 ) ;
#1053 = ORIENTED_EDGE ( 'NONE', *, *, #661, .F. ) ;
#1054 = ORIENTED_EDGE ( 'NONE', *, *, #1085, .T. ) ;
#1055 = AXIS2_PLACEMENT_3D ( 'NONE', #50, #899, #368 ) ;
#1056 = CARTESIAN_POINT ( 'NONE',  ( 0.000000000000000000, 34.50000000000002842, 0.000000000000000000 ) ) ;
#1057 = VECTOR ( 'NONE', #349, 1000.000000000000000 ) ;
#1058 = VECTOR ( 'NONE', #1320, 1000.000000000000000 ) ;
#1059 = VERTEX_POINT ( 'NONE', #653 ) ;
#1060 = ORIENTED_EDGE ( 'NONE', *, *, #228, .T. ) ;
#1061 = CARTESIAN_POINT ( 'NONE',  ( -15.00000000000000000, -7.499999999999942268, -15.00000000000000000 ) ) ;
#1062 = DIRECTION ( 'NONE',  ( -2.885948946927879338E-14, -1.000000000000000000, 0.000000000000000000 ) ) ;
#1063 = VERTEX_POINT ( 'NONE', #23 ) ;
#1064 = EDGE_CURVE ( 'NONE', #929, #254, #665, .T. ) ;
#1065 = ORIENTED_EDGE ( 'NONE', *, *, #444, .T. ) ;
#1066 = FACE_OUTER_BOUND ( 'NONE', #1352, .T. ) ;
#1067 = ORIENTED_EDGE ( 'NONE', *, *, #1327, .T. ) ;
#1068 = CARTESIAN_POINT ( 'NONE',  ( 15.00000020682086976, -6.500000000000155431, 15.00000000000000000 ) ) ;
#1069 = EDGE_CURVE ( 'NONE', #900, #366, #887, .T. ) ;
#1070 = ORIENTED_EDGE ( 'NONE', *, *, #478, .F. ) ;
#1071 = AXIS2_PLACEMENT_3D ( 'NONE', #629, #1062, #1382 ) ;
#1072 = EDGE_LOOP ( 'NONE', ( #822, #153, #285, #395 ) ) ;
#1073 = VECTOR ( 'NONE', #266, 1000.000000000000000 ) ;
#1074 = AXIS2_PLACEMENT_3D ( 'NONE', #1126, #1012, #567 ) ;
#1075 = ADVANCED_FACE ( 'NONE', ( #1309 ), #15, .F. ) ;
#1076 = CARTESIAN_POINT ( 'NONE',  ( -14.99999999876309076, 8.500000000000142109, 15.00000000000000000 ) ) ;
#1077 = EDGE_LOOP ( 'NONE', ( #1018, #1190, #548, #537 ) ) ;
#1078 = DIRECTION ( 'NONE',  ( 1.000000000000000000, 6.308085367104944732E-15, 0.000000000000000000 ) ) ;
#1079 = CALENDAR_DATE ( 2022, 28, 10 ) ;
#1080 = DIRECTION ( 'NONE',  ( 1.000000000000000000, 4.849340257442623366E-15, 0.000000000000000000 ) ) ;
#1081 = VERTEX_POINT ( 'NONE', #352 ) ;
#1082 = CARTESIAN_POINT ( 'NONE',  ( -14.99999999999999822, -3.499999999999989786, 15.00000000000000000 ) ) ;
#1083 = CARTESIAN_POINT ( 'NONE',  ( -9.499999999927242200, -6.499999999999997335, -15.00000000000000000 ) ) ;
#1084 = CARTESIAN_POINT ( 'NONE',  ( 15.00000000000000000, 7.499999999999942268, 15.00000000000000000 ) ) ;
#1085 = EDGE_CURVE ( 'NONE', #1265, #607, #1093, .T. ) ;
#1086 = PERSON_AND_ORGANIZATION_ROLE ( 'design_owner' ) ;
#1087 = DIRECTION ( 'NONE',  ( -0.000000000000000000, -0.000000000000000000, -1.000000000000000000 ) ) ;
#1088 = LINE ( 'NONE', #863, #1119 ) ;
#1089 = ORIENTED_EDGE ( 'NONE', *, *, #649, .T. ) ;
#1090 = CARTESIAN_POINT ( 'NONE',  ( 14.99999999999999822, -1.499999999999984901, 15.00000000000000000 ) ) ;
#1091 = CALENDAR_DATE ( 2022, 28, 10 ) ;
#1092 = EDGE_CURVE ( 'NONE', #768, #813, #779, .T. ) ;
#1093 = LINE ( 'NONE', #876, #441 ) ;
#1094 = AXIS2_PLACEMENT_3D ( 'NONE', #242, #136, #674 ) ;
#1095 = DIRECTION ( 'NONE',  ( 0.000000000000000000, 0.000000000000000000, 1.000000000000000000 ) ) ;
#1096 = APPROVAL_PERSON_ORGANIZATION ( #120, #316, #975 ) ;
#1097 = VECTOR ( 'NONE', #770, 1000.000000000000000 ) ;
#1098 = CIRCLE ( 'NONE', #893, 1.000000000000004441 ) ;
#1099 = CARTESIAN_POINT ( 'NONE',  ( -15.00000020682086976, -6.500000000000155431, -15.00000000000000000 ) ) ;
#1100 = LINE ( 'NONE', #135, #179 ) ;
#1101 = CARTESIAN_POINT ( 'NONE',  ( 9.499999999927242200, 6.499999999999997335, -15.00000000000000000 ) ) ;
#1102 = PRODUCT_DEFINITION_SHAPE ( 'NONE', 'NONE',  #93 ) ;
#1103 = EDGE_CURVE ( 'NONE', #702, #919, #1329, .T. ) ;
#1104 = LINE ( 'NONE', #558, #718 ) ;
#1105 = CARTESIAN_POINT ( 'NONE',  ( 9.499999999927242200, 3.500000000000024425, 15.00000000000000000 ) ) ;
#1106 = CARTESIAN_POINT ( 'NONE',  ( -14.99999999999999822, 1.499999999999984901, -15.00000000000000000 ) ) ;
#1107 = DIRECTION ( 'NONE',  ( -1.000000000000000000, -2.885948946927879338E-14, 0.000000000000000000 ) ) ;
#1108 = EDGE_CURVE ( 'NONE', #299, #94, #143, .T. ) ;
#1109 = CARTESIAN_POINT ( 'NONE',  ( -14.99999999999999822, 2.499999999999988898, 15.00000000000000000 ) ) ;
#1110 = DIRECTION ( 'NONE',  ( 0.000000000000000000, -1.000000000000000000, 0.000000000000000000 ) ) ;
#1111 = VERTEX_POINT ( 'NONE', #818 ) ;
#1112 = PERSON_AND_ORGANIZATION ( #627, #1162 ) ;
#1113 = DIRECTION ( 'NONE',  ( 2.885948946927879338E-14, -1.000000000000000000, 0.000000000000000000 ) ) ;
#1114 = ORIENTED_EDGE ( 'NONE', *, *, #411, .F. ) ;
#1115 = CARTESIAN_POINT ( 'NONE',  ( 15.00000020682086976, 6.500000000000155431, 15.00000000000000000 ) ) ;
#1116 = ORIENTED_EDGE ( 'NONE', *, *, #435, .F. ) ;
#1117 = ADVANCED_FACE ( 'NONE', ( #388 ), #1253, .F. ) ;
#1118 = AXIS2_PLACEMENT_3D ( 'NONE', #256, #693, #1124 ) ;
#1119 = VECTOR ( 'NONE', #128, 1000.000000000000000 ) ;
#1120 = PLANE ( 'NONE',  #890 ) ;
#1121 = ORIENTED_EDGE ( 'NONE', *, *, #137, .F. ) ;
#1122 = APPROVAL_DATE_TIME ( #348, #214 ) ;
#1123 = EDGE_CURVE ( 'NONE', #1248, #428, #1134, .T. ) ;
#1124 = DIRECTION ( 'NONE',  ( 1.000000000000000000, 0.000000000000000000, 0.000000000000000000 ) ) ;
#1125 = DIRECTION ( 'NONE',  ( -2.885948946927879338E-14, 1.000000000000000000, 0.000000000000000000 ) ) ;
#1126 = CARTESIAN_POINT ( 'NONE',  ( -14.99999999999999822, 2.499999999999988898, -15.00000000000000000 ) ) ;
#1127 = ORIENTED_EDGE ( 'NONE', *, *, #426, .T. ) ;
#1128 = CARTESIAN_POINT ( 'NONE',  ( 15.00000000000000000, 7.499999999999942268, 15.00000000000000000 ) ) ;
#1129 = ORIENTED_EDGE ( 'NONE', *, *, #232, .F. ) ;
#1130 = CARTESIAN_POINT ( 'NONE',  ( -16.00000000000000355, -7.499999999999942268, -15.00000000000000000 ) ) ;
#1131 = CARTESIAN_POINT ( 'NONE',  ( 9.499999999927242200, 6.499999999999997335, 15.00000000000000000 ) ) ;
#1132 = CC_DESIGN_PERSON_AND_ORGANIZATION_ASSIGNMENT ( #552, #985, ( #176 ) ) ;
#1133 = DIRECTION ( 'NONE',  ( 0.000000000000000000, 0.000000000000000000, 1.000000000000000000 ) ) ;
#1134 = LINE ( 'NONE', #566, #604 ) ;
#1135 = DIRECTION ( 'NONE',  ( -0.000000000000000000, -0.000000000000000000, -1.000000000000000000 ) ) ;
#1136 = EDGE_LOOP ( 'NONE', ( #684, #514, #505, #1137 ) ) ;
#1137 = ORIENTED_EDGE ( 'NONE', *, *, #682, .T. ) ;
#1138 = FACE_OUTER_BOUND ( 'NONE', #238, .T. ) ;
#1139 = ADVANCED_FACE ( 'NONE', ( #159 ), #258, .T. ) ;
#1140 = EDGE_LOOP ( 'NONE', ( #1275, #1269, #1168, #840 ) ) ;
#1141 = LOCAL_TIME ( 14, 14, 16.00000000000000000, #464 ) ;
#1142 = FACE_OUTER_BOUND ( 'NONE', #1072, .T. ) ;
#1143 = ORIENTED_EDGE ( 'NONE', *, *, #1049, .F. ) ;
#1144 = VECTOR ( 'NONE', #832, 1000.000000000000000 ) ;
#1145 = VECTOR ( 'NONE', #1344, 1000.000000000000000 ) ;
#1146 = FACE_OUTER_BOUND ( 'NONE', #144, .T. ) ;
#1147 = VECTOR ( 'NONE', #127, 1000.000000000000000 ) ;
#1148 = ORIENTED_EDGE ( 'NONE', *, *, #367, .T. ) ;
#1149 = EDGE_CURVE ( 'NONE', #1111, #378, #1220, .T. ) ;
#1150 = ORIENTED_EDGE ( 'NONE', *, *, #1263, .T. ) ;
#1151 = FACE_OUTER_BOUND ( 'NONE', #580, .T. ) ;
#1152 = CARTESIAN_POINT ( 'NONE',  ( -9.499999999927242200, 3.500000000000024425, 15.00000000000000000 ) ) ;
#1153 = ORIENTED_EDGE ( 'NONE', *, *, #968, .T. ) ;
#1154 = PRODUCT_RELATED_PRODUCT_CATEGORY ( 'detail', '', ( #885 ) ) ;
#1155 = VERTEX_POINT ( 'NONE', #33 ) ;
#1156 = CARTESIAN_POINT ( 'NONE',  ( 14.99999999999999822, -3.499999999999991118, -15.00000000000000000 ) ) ;
#1157 = ORIENTED_EDGE ( 'NONE', *, *, #1271, .F. ) ;
#1158 = DIRECTION ( 'NONE',  ( -0.000000000000000000, -0.000000000000000000, -1.000000000000000000 ) ) ;
#1159 = ADVANCED_FACE ( 'NONE', ( #276 ), #917, .F. ) ;
#1160 = ORIENTED_EDGE ( 'NONE', *, *, #168, .F. ) ;
#1161 = PLANE ( 'NONE',  #1167 ) ;
#1162 = ORGANIZATION ( 'UNSPECIFIED', 'UNSPECIFIED', '' ) ;
#1163 = AXIS2_PLACEMENT_3D ( 'NONE', #1128, #162, #479 ) ;
#1164 = ADVANCED_FACE ( 'NONE', ( #249 ), #358, .F. ) ;
#1165 = PLANE ( 'NONE',  #577 ) ;
#1166 = VECTOR ( 'NONE', #877, 1000.000000000000000 ) ;
#1167 = AXIS2_PLACEMENT_3D ( 'NONE', #132, #880, #678 ) ;
#1168 = ORIENTED_EDGE ( 'NONE', *, *, #951, .F. ) ;
#1169 = CARTESIAN_POINT ( 'NONE',  ( 9.499999999927242200, 6.499999999999997335, 15.00000000000000000 ) ) ;
#1170 = LINE ( 'NONE', #634, #1389 ) ;
#1171 = ORIENTED_EDGE ( 'NONE', *, *, #1243, .F. ) ;
#1172 = DIRECTION ( 'NONE',  ( -0.000000000000000000, -0.000000000000000000, -1.000000000000000000 ) ) ;
#1173 = LINE ( 'NONE', #421, #350 ) ;
#1174 = FACE_OUTER_BOUND ( 'NONE', #1286, .T. ) ;
#1175 = EDGE_CURVE ( 'NONE', #720, #105, #458, .T. ) ;
#1176 = ORIENTED_EDGE ( 'NONE', *, *, #66, .T. ) ;
#1177 = DIRECTION ( 'NONE',  ( 0.000000000000000000, 0.000000000000000000, 1.000000000000000000 ) ) ;
#1178 = ORIENTED_EDGE ( 'NONE', *, *, #2, .T. ) ;
#1179 = CARTESIAN_POINT ( 'NONE',  ( -9.499999999927242200, -3.500000000000024425, -15.00000000000000000 ) ) ;
#1180 = LINE ( 'NONE', #1195, #1256 ) ;
#1181 = EDGE_CURVE ( 'NONE', #1378, #156, #599, .T. ) ;
#1182 = EDGE_LOOP ( 'NONE', ( #1148, #480, #493, #522 ) ) ;
#1183 = LINE ( 'NONE', #646, #763 ) ;
#1184 = ORIENTED_EDGE ( 'NONE', *, *, #322, .F. ) ;
#1185 = DIRECTION ( 'NONE',  ( -1.000000000000000000, 0.000000000000000000, 0.000000000000000000 ) ) ;
#1186 = DIRECTION ( 'NONE',  ( 1.000000000000000000, 0.000000000000000000, 0.000000000000000000 ) ) ;
#1187 = VECTOR ( 'NONE', #523, 1000.000000000000000 ) ;
#1188 = VECTOR ( 'NONE', #1135, 1000.000000000000000 ) ;
#1189 = LINE ( 'NONE', #442, #697 ) ;
#1190 = ORIENTED_EDGE ( 'NONE', *, *, #394, .F. ) ;
#1191 = AXIS2_PLACEMENT_3D ( 'NONE', #1339, #364, #1330 ) ;
#1192 = AXIS2_PLACEMENT_3D ( 'NONE', #445, #1095, #555 ) ;
#1193 = EDGE_CURVE ( 'NONE', #615, #1242, #687, .T. ) ;
#1194 = LINE ( 'NONE', #765, #647 ) ;
#1195 = CARTESIAN_POINT ( 'NONE',  ( -14.99999999999999822, -1.499999999999984901, -15.00000000000000000 ) ) ;
#1196 = LINE ( 'NONE', #433, #672 ) ;
#1197 = ORIENTED_EDGE ( 'NONE', *, *, #192, .T. ) ;
#1198 = EDGE_CURVE ( 'NONE', #583, #1336, #576, .T. ) ;
#1199 = DIRECTION ( 'NONE',  ( -0.000000000000000000, -0.000000000000000000, -1.000000000000000000 ) ) ;
#1200 = PERSON_AND_ORGANIZATION ( #627, #1162 ) ;
#1201 = DIRECTION ( 'NONE',  ( 0.000000000000000000, 0.000000000000000000, -1.000000000000000000 ) ) ;
#1202 = FACE_OUTER_BOUND ( 'NONE', #1009, .T. ) ;
#1203 = DIRECTION ( 'NONE',  ( -1.000000000000000000, -6.308085367104944732E-15, 0.000000000000000000 ) ) ;
#1204 = ADVANCED_FACE ( 'NONE', ( #372 ), #476, .F. ) ;
#1205 = FACE_OUTER_BOUND ( 'NONE', #841, .T. ) ;
#1206 = VECTOR ( 'NONE', #609, 1000.000000000000000 ) ;
#1207 = CIRCLE ( 'NONE', #738, 1.000000000000004441 ) ;
#1208 = AXIS2_PLACEMENT_3D ( 'NONE', #568, #1039, #405 ) ;
#1209 = CARTESIAN_POINT ( 'NONE',  ( -9.499999581961899864, 1.500000000000011546, -15.00000000000000000 ) ) ;
#1210 = AXIS2_PLACEMENT_3D ( 'NONE', #110, #3, #857 ) ;
#1211 = CARTESIAN_POINT ( 'NONE',  ( -14.99999999999999822, 3.499999999999991118, 15.00000000000000000 ) ) ;
#1212 = CARTESIAN_POINT ( 'NONE',  ( 9.499999999927242200, 3.500000000000024425, -15.00000000000000000 ) ) ;
#1213 = CARTESIAN_POINT ( 'NONE',  ( -14.99999999876309076, -8.500000000000142109, 15.00000000000000000 ) ) ;
#1214 = EDGE_CURVE ( 'NONE', #56, #732, #1098, .T. ) ;
#1215 = CARTESIAN_POINT ( 'NONE',  ( 14.99999999999999822, -2.499999999999988898, 15.00000000000000000 ) ) ;
#1216 = CARTESIAN_POINT ( 'NONE',  ( 0.000000000000000000, 4.500000000000035527, 0.000000000000000000 ) ) ;
#1217 = DIRECTION ( 'NONE',  ( 0.000000000000000000, 0.000000000000000000, 1.000000000000000000 ) ) ;
#1218 = EDGE_LOOP ( 'NONE', ( #1296, #1157, #425, #654 ) ) ;
#1219 = DIRECTION ( 'NONE',  ( 1.000000000000000000, 1.364649134660147792E-14, -0.000000000000000000 ) ) ;
#1220 = LINE ( 'NONE', #495, #533 ) ;
#1221 = EDGE_CURVE ( 'NONE', #1021, #56, #1354, .T. ) ;
#1222 = ORIENTED_EDGE ( 'NONE', *, *, #145, .F. ) ;
#1223 = LINE ( 'NONE', #453, #35 ) ;
#1224 = VERTEX_POINT ( 'NONE', #61 ) ;
#1225 = CARTESIAN_POINT ( 'NONE',  ( -7.500000000000000000, -8.500000000000040856, -15.00000000000000000 ) ) ;
#1226 = DIRECTION ( 'NONE',  ( 0.000000000000000000, 0.000000000000000000, -1.000000000000000000 ) ) ;
#1227 = ORIENTED_EDGE ( 'NONE', *, *, #1108, .T. ) ;
#1228 = DIRECTION ( 'NONE',  ( -0.000000000000000000, -0.000000000000000000, -1.000000000000000000 ) ) ;
#1229 = CYLINDRICAL_SURFACE ( 'NONE', #375, 1.000000000000002665 ) ;
#1230 = CARTESIAN_POINT ( 'NONE',  ( 14.99999999876309076, 8.500000000000142109, -15.00000000000000000 ) ) ;
#1231 = ORIENTED_EDGE ( 'NONE', *, *, #728, .T. ) ;
#1232 = CIRCLE ( 'NONE', #416, 1.000000000000004441 ) ;
#1233 = CIRCLE ( 'NONE', #867, 1.600000000000000089 ) ;
#1234 = ADVANCED_FACE ( 'NONE', ( #1138 ), #484, .F. ) ;
#1235 = AXIS2_PLACEMENT_3D ( 'NONE', #337, #774, #1201 ) ;
#1236 = CARTESIAN_POINT ( 'NONE',  ( 9.499999999927242200, 3.500000000000024425, 15.00000000000000000 ) ) ;
#1237 = EDGE_LOOP ( 'NONE', ( #1353, #172, #1114, #618 ) ) ;
#1238 = CARTESIAN_POINT ( 'NONE',  ( 9.499999999927242200, -6.499999999999997335, 15.00000000000000000 ) ) ;
#1239 = CARTESIAN_POINT ( 'NONE',  ( -14.99999999999999822, 2.499999999999988898, -15.00000000000000000 ) ) ;
#1240 = CARTESIAN_POINT ( 'NONE',  ( 15.00000020682086976, 6.500000000000155431, -15.00000000000000000 ) ) ;
#1241 = DIRECTION ( 'NONE',  ( -0.000000000000000000, -0.000000000000000000, -1.000000000000000000 ) ) ;
#1242 = VERTEX_POINT ( 'NONE', #298 ) ;
#1243 = EDGE_CURVE ( 'NONE', #688, #99, #949, .T. ) ;
#1244 = CARTESIAN_POINT ( 'NONE',  ( 15.00000020682086976, -6.500000000000155431, -15.00000000000000000 ) ) ;
#1245 = EDGE_LOOP ( 'NONE', ( #354, #830, #359, #1054 ) ) ;
#1246 = EDGE_LOOP ( 'NONE', ( #1176, #509, #186, #1065 ) ) ;
#1247 = CARTESIAN_POINT ( 'NONE',  ( 14.99999999999999822, 2.499999999999988898, 15.00000000000000000 ) ) ;
#1248 = VERTEX_POINT ( 'NONE', #930 ) ;
#1249 = DIRECTION ( 'NONE',  ( -1.000000000000000000, 0.000000000000000000, 0.000000000000000000 ) ) ;
#1250 = ORIENTED_EDGE ( 'NONE', *, *, #675, .T. ) ;
#1251 = DIRECTION ( 'NONE',  ( -1.000000000000000000, 0.000000000000000000, 0.000000000000000000 ) ) ;
#1252 = ORIENTED_EDGE ( 'NONE', *, *, #412, .T. ) ;
#1253 = PLANE ( 'NONE',  #482 ) ;
#1254 = ADVANCED_FACE ( 'NONE', ( #1174 ), #1366, .F. ) ;
#1255 = ORIENTED_EDGE ( 'NONE', *, *, #563, .F. ) ;
#1256 = VECTOR ( 'NONE', #440, 1000.000000000000000 ) ;
#1257 = AXIS2_PLACEMENT_3D ( 'NONE', #1351, #1217, #1042 ) ;
#1258 = VERTEX_POINT ( 'NONE', #824 ) ;
#1259 = CARTESIAN_POINT ( 'NONE',  ( 9.499999999927242200, -6.499999999999997335, 15.00000000000000000 ) ) ;
#1260 = AXIS2_PLACEMENT_3D ( 'NONE', #1056, #1372, #746 ) ;
#1261 = CARTESIAN_POINT ( 'NONE',  ( 15.00000020682086976, -6.500000000000155431, -15.00000000000000000 ) ) ;
#1262 = VERTEX_POINT ( 'NONE', #1268 ) ;
#1263 = EDGE_CURVE ( 'NONE', #1155, #702, #77, .T. ) ;
#1264 = LINE ( 'NONE', #633, #397 ) ;
#1265 = VERTEX_POINT ( 'NONE', #82 ) ;
#1266 = DIRECTION ( 'NONE',  ( -1.000000000000000000, 0.000000000000000000, 0.000000000000000000 ) ) ;
#1267 = FACE_OUTER_BOUND ( 'NONE', #387, .T. ) ;
#1268 = CARTESIAN_POINT ( 'NONE',  ( 0.000000000000000000, 4.500000000000035527, -1.600000000000000089 ) ) ;
#1269 = ORIENTED_EDGE ( 'NONE', *, *, #682, .F. ) ;
#1270 = ADVANCED_BREP_SHAPE_REPRESENTATION ( 'Heatsink_ALUM_ANOD_TO-220_V5220L', ( #666, #510 ), #980 ) ;
#1271 = EDGE_CURVE ( 'NONE', #768, #632, #651, .T. ) ;
#1272 = ORIENTED_EDGE ( 'NONE', *, *, #1193, .T. ) ;
#1273 = CARTESIAN_POINT ( 'NONE',  ( -9.499999999927242200, -6.499999999999997335, -15.00000000000000000 ) ) ;
#1274 = DIRECTION ( 'NONE',  ( 0.000000000000000000, 0.000000000000000000, 1.000000000000000000 ) ) ;
#1275 = ORIENTED_EDGE ( 'NONE', *, *, #1181, .T. ) ;
#1276 = DIRECTION ( 'NONE',  ( -0.000000000000000000, -0.000000000000000000, -1.000000000000000000 ) ) ;
#1277 = ORIENTED_EDGE ( 'NONE', *, *, #478, .T. ) ;
#1278 = EDGE_CURVE ( 'NONE', #392, #473, #839, .T. ) ;
#1279 = VECTOR ( 'NONE', #1276, 1000.000000000000000 ) ;
#1280 = CARTESIAN_POINT ( 'NONE',  ( 14.99999999999999822, 1.499999999999986455, 15.00000000000000000 ) ) ;
#1281 = VECTOR ( 'NONE', #539, 1000.000000000000000 ) ;
#1282 = CYLINDRICAL_SURFACE ( 'NONE', #1002, 1.600000000000000089 ) ;
#1283 = FACE_OUTER_BOUND ( 'NONE', #821, .T. ) ;
#1284 = AXIS2_PLACEMENT_3D ( 'NONE', #65, #1029, #715 ) ;
#1285 = CIRCLE ( 'NONE', #38, 1.600000000000000089 ) ;
#1286 = EDGE_LOOP ( 'NONE', ( #312, #379, #301, #189 ) ) ;
#1287 = ORIENTED_EDGE ( 'NONE', *, *, #895, .F. ) ;
#1288 = ADVANCED_FACE ( 'NONE', ( #1146 ), #1165, .F. ) ;
#1289 = CARTESIAN_POINT ( 'NONE',  ( -14.99999999999999822, 1.499999999999984901, 15.00000000000000000 ) ) ;
#1290 = CARTESIAN_POINT ( 'NONE',  ( 14.99999999999999822, 1.499999999999984901, 15.00000000000000000 ) ) ;
#1291 = ORIENTED_EDGE ( 'NONE', *, *, #1198, .F. ) ;
#1292 = LINE ( 'NONE', #1082, #1166 ) ;
#1293 = ORIENTED_EDGE ( 'NONE', *, *, #2, .F. ) ;
#1294 = LINE ( 'NONE', #518, #398 ) ;
#1295 = DIRECTION ( 'NONE',  ( 0.000000000000000000, -0.000000000000000000, -1.000000000000000000 ) ) ;
#1296 = ORIENTED_EDGE ( 'NONE', *, *, #265, .F. ) ;
#1297 = ADVANCED_FACE ( 'NONE', ( #730, #843 ), #717, .F. ) ;
#1298 = DIRECTION ( 'NONE',  ( -0.000000000000000000, -0.000000000000000000, -1.000000000000000000 ) ) ;
#1299 = APPROVAL_DATE_TIME ( #970, #816 ) ;
#1300 = CC_DESIGN_APPROVAL ( #816, ( #176 ) ) ;
#1301 = VECTOR ( 'NONE', #1332, 1000.000000000000000 ) ;
#1302 = DIRECTION ( 'NONE',  ( 1.000000000000000000, -2.885948946927879338E-14, 0.000000000000000000 ) ) ;
#1303 = ORIENTED_EDGE ( 'NONE', *, *, #1243, .T. ) ;
#1304 = VECTOR ( 'NONE', #901, 1000.000000000000000 ) ;
#1305 = VECTOR ( 'NONE', #508, 1000.000000000000000 ) ;
#1306 = EDGE_CURVE ( 'NONE', #75, #473, #183, .T. ) ;
#1307 = CARTESIAN_POINT ( 'NONE',  ( -9.499999999927242200, 3.500000000000024425, 15.00000000000000000 ) ) ;
#1308 = MECHANICAL_CONTEXT ( 'NONE', #886, 'mechanical' ) ;
#1309 = FACE_OUTER_BOUND ( 'NONE', #1246, .T. ) ;
#1310 = ORIENTED_EDGE ( 'NONE', *, *, #333, .T. ) ;
#1311 = EDGE_CURVE ( 'NONE', #1258, #702, #1045, .T. ) ;
#1312 = CARTESIAN_POINT ( 'NONE',  ( 14.99999999999999822, 2.499999999999988898, 15.00000000000000000 ) ) ;
#1313 =( NAMED_UNIT ( * ) SI_UNIT ( $, .STERADIAN. ) SOLID_ANGLE_UNIT ( ) );
#1314 = LINE ( 'NONE', #1238, #1304 ) ;
#1315 = DIRECTION ( 'NONE',  ( -0.000000000000000000, -0.000000000000000000, -1.000000000000000000 ) ) ;
#1316 = ORIENTED_EDGE ( 'NONE', *, *, #185, .F. ) ;
#1317 = PLANE ( 'NONE',  #396 ) ;
#1318 = EDGE_CURVE ( 'NONE', #922, #615, #1052, .T. ) ;
#1319 = CARTESIAN_POINT ( 'NONE',  ( -9.499999999927242200, 3.500000000000024425, 15.00000000000000000 ) ) ;
#1320 = DIRECTION ( 'NONE',  ( -0.000000000000000000, -0.000000000000000000, -1.000000000000000000 ) ) ;
#1321 = VECTOR ( 'NONE', #679, 1000.000000000000000 ) ;
#1322 = ORIENTED_EDGE ( 'NONE', *, *, #222, .T. ) ;
#1323 = VECTOR ( 'NONE', #586, 1000.000000000000000 ) ;
#1324 = FACE_OUTER_BOUND ( 'NONE', #270, .T. ) ;
#1325 = AXIS2_PLACEMENT_3D ( 'NONE', #696, #925, #798 ) ;
#1326 = CARTESIAN_POINT ( 'NONE',  ( -7.500000000000000000, -8.500000000000040856, 15.00000000000000000 ) ) ;
#1327 = EDGE_CURVE ( 'NONE', #171, #213, #303, .T. ) ;
#1328 = PLANE ( 'NONE',  #550 ) ;
#1329 = LINE ( 'NONE', #283, #827 ) ;
#1330 = DIRECTION ( 'NONE',  ( -1.000000000000000000, 0.000000000000000000, 0.000000000000000000 ) ) ;
#1331 = VERTEX_POINT ( 'NONE', #188 ) ;
#1332 = DIRECTION ( 'NONE',  ( -0.000000000000000000, -0.000000000000000000, -1.000000000000000000 ) ) ;
#1333 = ORIENTED_EDGE ( 'NONE', *, *, #1375, .T. ) ;
#1334 = APPROVAL_ROLE ( '' ) ;
#1335 = LINE ( 'NONE', #1319, #1057 ) ;
#1336 = VERTEX_POINT ( 'NONE', #1156 ) ;
#1337 = DIRECTION ( 'NONE',  ( -0.000000000000000000, -0.000000000000000000, -1.000000000000000000 ) ) ;
#1338 = FACE_OUTER_BOUND ( 'NONE', #1374, .T. ) ;
#1339 = CARTESIAN_POINT ( 'NONE',  ( 15.00000000000000000, -7.499999999999942268, 15.00000000000000000 ) ) ;
#1340 = ORIENTED_EDGE ( 'NONE', *, *, #864, .T. ) ;
#1341 = ADVANCED_FACE ( 'NONE', ( #1066 ), #613, .T. ) ;
#1342 = DIRECTION ( 'NONE',  ( -0.000000000000000000, -0.000000000000000000, -1.000000000000000000 ) ) ;
#1343 = ORIENTED_EDGE ( 'NONE', *, *, #1311, .F. ) ;
#1344 = DIRECTION ( 'NONE',  ( -0.000000000000000000, -0.000000000000000000, -1.000000000000000000 ) ) ;
#1345 = LINE ( 'NONE', #881, #668 ) ;
#1346 = DIRECTION ( 'NONE',  ( 1.000000000000000000, 0.000000000000000000, 0.000000000000000000 ) ) ;
#1347 = ADVANCED_FACE ( 'NONE', ( #1377 ), #409, .F. ) ;
#1348 = LOCAL_TIME ( 14, 14, 16.00000000000000000, #336 ) ;
#1349 = AXIS2_PLACEMENT_3D ( 'NONE', #1084, #869, #335 ) ;
#1350 = CIRCLE ( 'NONE', #1118, 1.000000000000002665 ) ;
#1351 = CARTESIAN_POINT ( 'NONE',  ( -14.99999999999999822, -2.499999999999988898, -15.00000000000000000 ) ) ;
#1352 = EDGE_LOOP ( 'NONE', ( #10, #952, #1369, #410 ) ) ;
#1353 = ORIENTED_EDGE ( 'NONE', *, *, #727, .T. ) ;
#1354 = LINE ( 'NONE', #1240, #420 ) ;
#1355 = ORIENTED_EDGE ( 'NONE', *, *, #556, .F. ) ;
#1356 = CARTESIAN_POINT ( 'NONE',  ( -16.00000000000000355, 7.499999999999942268, 15.00000000000000000 ) ) ;
#1357 = ORIENTED_EDGE ( 'NONE', *, *, #322, .T. ) ;
#1358 = ADVANCED_FACE ( 'NONE', ( #1283 ), #953, .F. ) ;
#1359 = CARTESIAN_POINT ( 'NONE',  ( -15.00000000000000000, -7.499999999999942268, 15.00000000000000000 ) ) ;
#1360 = DIRECTION ( 'NONE',  ( -0.000000000000000000, 1.000000000000000000, -0.000000000000000000 ) ) ;
#1361 = DIRECTION ( 'NONE',  ( 1.000000000000000000, 6.308085367104944732E-15, 0.000000000000000000 ) ) ;
#1362 = VERTEX_POINT ( 'NONE', #1388 ) ;
#1363 = ORIENTED_EDGE ( 'NONE', *, *, #996, .T. ) ;
#1364 = PLANE ( 'NONE',  #438 ) ;
#1365 = DIRECTION ( 'NONE',  ( 0.000000000000000000, 0.000000000000000000, 1.000000000000000000 ) ) ;
#1366 = CYLINDRICAL_SURFACE ( 'NONE', #1260, 1.600000000000000089 ) ;
#1367 = ORIENTED_EDGE ( 'NONE', *, *, #520, .F. ) ;
#1368 = CIRCLE ( 'NONE', #234, 1.000000000000002665 ) ;
#1369 = ORIENTED_EDGE ( 'NONE', *, *, #55, .T. ) ;
#1370 = AXIS2_PLACEMENT_3D ( 'NONE', #749, #1177, #190 ) ;
#1371 = AXIS2_PLACEMENT_3D ( 'NONE', #1019, #268, #703 ) ;
#1372 = DIRECTION ( 'NONE',  ( 0.000000000000000000, -1.000000000000000000, 0.000000000000000000 ) ) ;
#1373 = EDGE_CURVE ( 'NONE', #941, #610, #329, .T. ) ;
#1374 = EDGE_LOOP ( 'NONE', ( #58, #1222, #257, #174 ) ) ;
#1375 = EDGE_CURVE ( 'NONE', #81, #1331, #766, .T. ) ;
#1376 = ORIENTED_EDGE ( 'NONE', *, *, #185, .T. ) ;
#1377 = FACE_OUTER_BOUND ( 'NONE', #452, .T. ) ;
#1378 = VERTEX_POINT ( 'NONE', #340 ) ;
#1379 = CC_DESIGN_DATE_AND_TIME_ASSIGNMENT ( #773, #134, ( #93 ) ) ;
#1380 = EDGE_LOOP ( 'NONE', ( #51, #743, #780, #1340 ) ) ;
#1381 = CARTESIAN_POINT ( 'NONE',  ( 9.499999999927242200, -3.500000000000024425, 15.00000000000000000 ) ) ;
#1382 = DIRECTION ( 'NONE',  ( 1.000000000000000000, -2.885948946927879338E-14, 0.000000000000000000 ) ) ;
#1383 = ORIENTED_EDGE ( 'NONE', *, *, #1221, .F. ) ;
#1384 = EDGE_CURVE ( 'NONE', #858, #1063, #1180, .T. ) ;
#1385 = ORIENTED_EDGE ( 'NONE', *, *, #243, .T. ) ;
#1386 = DIRECTION ( 'NONE',  ( -1.000000000000000000, 2.885948946927879338E-14, 0.000000000000000000 ) ) ;
#1387 = CARTESIAN_POINT ( 'NONE',  ( 9.499999999927242200, -6.499999999999997335, 15.00000000000000000 ) ) ;
#1388 = CARTESIAN_POINT ( 'NONE',  ( -15.00000020682086976, -6.499999999999960032, -15.00000000000000000 ) ) ;
#1389 = VECTOR ( 'NONE', #85, 1000.000000000000000 ) ;
#1390 = VECTOR ( 'NONE', #708, 1000.000000000000000 ) ;
#1391 = ORIENTED_EDGE ( 'NONE', *, *, #491, .F. ) ;
ENDSEC;
END-ISO-10303-21;
